<svg width="132" height="96" viewBox="0 0 132 96" fill="none" xmlns="http://www.w3.org/2000/svg">
<path d="M63.5591 37.7674L64.7956 36.9183L63.5591 37.7674ZM74.6613 15.0687L74.8089 13.576L74.6613 15.0687ZM71.5963 70.7659L72.6593 71.8242L71.5963 70.7659ZM0.850389 84.5433C0.318456 85.1784 0.402092 86.1244 1.03719 86.6563L11.3867 95.3246C12.0217 95.8565 12.9678 95.7729 13.4997 95.1378C14.0317 94.5027 13.948 93.5566 13.3129 93.0247L4.11341 85.3196L11.8185 76.1201C12.3504 75.485 12.2668 74.5389 11.6317 74.007C10.9966 73.4751 10.0506 73.5587 9.51864 74.1938L0.850389 84.5433ZM130.198 1.17413L128.737 0.834813C128.622 1.33178 128.505 1.82371 128.386 2.31065L129.843 2.66637L131.3 3.0221C131.422 2.52412 131.542 2.02125 131.66 1.51344L130.198 1.17413ZM129.101 5.56213L127.652 5.1727C127.392 6.14007 127.125 7.08637 126.851 8.01202L128.29 8.4376L129.728 8.86318C130.009 7.91302 130.283 6.9426 130.55 5.95157L129.101 5.56213ZM127.405 11.2865L125.979 10.8222C125.668 11.7778 125.349 12.7096 125.023 13.6182L126.435 14.1245L127.847 14.6308C128.183 13.6938 128.511 12.7339 128.832 11.7509L127.405 11.2865ZM125.393 16.895L123.997 16.3442C123.626 17.284 123.247 18.1968 122.861 19.0831L124.235 19.6829L125.61 20.2828C126.011 19.3633 126.404 18.4179 126.788 17.4459L125.393 16.895ZM122.998 22.3802L121.647 21.7285C121.213 22.6289 120.77 23.4991 120.32 24.34L121.642 25.0479L122.965 25.7558C123.435 24.8769 123.897 23.9692 124.349 23.0319L122.998 22.3802ZM120.166 27.6608L118.878 26.8924C118.37 27.7436 117.854 28.5609 117.331 29.3454L118.579 30.1779L119.826 31.0103C120.378 30.1828 120.921 29.3227 121.454 28.4292L120.166 27.6608ZM116.863 32.6035L115.663 31.7033C115.065 32.5006 114.459 33.2589 113.845 33.9797L114.987 34.952L116.13 35.9242C116.784 35.1556 117.429 34.3492 118.063 33.5037L116.863 32.6035ZM112.973 37.166L111.899 36.1195C111.212 36.8247 110.518 37.4869 109.818 38.1083L110.814 39.2299L111.81 40.3516C112.565 39.6813 113.311 38.9688 114.048 38.2124L112.973 37.166ZM108.507 41.1242L107.602 39.9282C106.823 40.5173 106.039 41.06 105.251 41.5591L106.054 42.8263L106.857 44.0935C107.715 43.5496 108.568 42.9593 109.412 42.3203L108.507 41.1242ZM103.464 44.3131L102.775 42.9806C101.914 43.4254 101.05 43.8223 100.185 44.1743L100.751 45.5637L101.316 46.9531C102.265 46.5671 103.211 46.1323 104.152 45.6457L103.464 44.3131ZM97.9347 46.5616L97.4993 45.1262C96.577 45.406 95.6555 45.6384 94.7372 45.8271L95.0391 47.2964L95.341 48.7657C96.3476 48.5589 97.3583 48.3039 98.3702 47.997L97.9347 46.5616ZM92.089 47.7643L91.921 46.2738C90.9645 46.3816 90.0143 46.445 89.0732 46.468L89.1098 47.9675L89.1464 49.4671C90.1729 49.442 91.2109 49.3729 92.2571 49.2549L92.089 47.7643ZM86.1244 47.9128L86.2151 46.4156C85.2484 46.357 84.2955 46.2582 83.36 46.1239L83.1468 47.6087L82.9336 49.0935C83.9479 49.2391 84.9826 49.3464 86.0337 49.4101L86.1244 47.9128ZM80.2053 47.0658L80.5357 45.6026C79.5858 45.3881 78.6602 45.1392 77.7633 44.8616L77.3198 46.2946L76.8764 47.7275C77.8461 48.0276 78.8471 48.2968 79.8748 48.5289L80.2053 47.0658ZM74.5018 45.3003L75.0561 43.9065C74.1379 43.5413 73.2614 43.149 72.4325 42.7377L71.7657 44.0813L71.0989 45.425C72.0016 45.8729 72.9531 46.2987 73.9474 46.6941L74.5018 45.3003ZM69.1558 42.6389L69.9416 41.3612C69.0837 40.8336 68.3061 40.2935 67.6177 39.7555L66.694 40.9373L65.7703 42.1192C66.5536 42.7314 67.4241 43.3349 68.3701 43.9166L69.1558 42.6389ZM64.4866 38.9235L65.5943 37.912C65.2747 37.562 65.009 37.2291 64.7956 36.9183L63.5591 37.7674L62.3226 38.6166C62.6257 39.058 62.9807 39.4989 63.379 39.935L64.4866 38.9235ZM63.5591 37.7674L64.7956 36.9183C64.5108 36.5035 64.249 36.0842 64.0097 35.6616L62.7045 36.4007L61.3992 37.1398C61.6814 37.6381 61.989 38.1309 62.3226 38.6166L63.5591 37.7674ZM61.3799 33.4728L62.7978 32.9834C62.4705 32.0351 62.2449 31.0833 62.1147 30.1424L60.6289 30.3481L59.143 30.5537C59.3001 31.6887 59.5713 32.8304 59.962 33.9622L61.3799 33.4728ZM60.5155 27.1368L62.0119 27.2403C62.0798 26.2585 62.2525 25.3072 62.5216 24.4041L61.084 23.9758L59.6465 23.5474C59.3131 24.6662 59.1018 25.8356 59.0191 27.0334L60.5155 27.1368ZM62.3564 21.0273L63.6517 21.7838C64.1326 20.9604 64.7097 20.2094 65.3739 19.549L64.3163 18.4853L63.2586 17.4217C62.4039 18.2716 61.6688 19.2305 61.0612 20.2707L62.3564 21.0273ZM66.8774 16.5526L67.6089 17.8622C68.4032 17.4185 69.2759 17.0698 70.2233 16.8352L69.8628 15.3792L69.5022 13.9232C68.2969 14.2216 67.1745 14.6685 66.1459 15.2431L66.8774 16.5526ZM73.0495 14.9921L73.0574 16.4921C73.5283 16.4896 74.0138 16.512 74.5136 16.5615L74.6613 15.0687L74.8089 13.576C74.2082 13.5166 73.6188 13.4891 73.0415 13.4921L73.0495 14.9921ZM74.6613 15.0687L74.5136 16.5615C74.9089 16.6006 75.3019 16.6771 75.6917 16.7906L76.1109 15.3504L76.5302 13.9102C75.9679 13.7465 75.3932 13.6338 74.8089 13.576L74.6613 15.0687ZM78.7662 16.627L77.9207 17.866C78.5922 18.3242 79.2482 18.9001 79.876 19.5908L80.986 18.5819L82.096 17.5729C81.328 16.7281 80.4974 15.9924 79.6117 15.388L78.7662 16.627ZM82.7673 20.9409L81.4993 21.7422C81.9662 22.4811 82.4022 23.2909 82.8003 24.1659L84.1657 23.5448L85.531 22.9236C85.0802 21.9326 84.5801 21.0016 84.0353 20.1396L82.7673 20.9409ZM85.2305 26.2997L83.8037 26.7627C84.0837 27.6256 84.3293 28.5321 84.5362 29.4775L86.0015 29.1569L87.4668 28.8362C87.2396 27.7978 86.9686 26.7963 86.6572 25.8367L85.2305 26.2997ZM86.5042 32.0749L85.0163 32.2651C85.1332 33.18 85.2153 34.1225 85.2597 35.089L86.7581 35.0202L88.2565 34.9514C88.2085 33.9048 88.1194 32.8814 87.9921 31.8848L86.5042 32.0749ZM86.7798 37.9799L85.2805 37.9341C85.252 38.8662 85.189 39.8158 85.0891 40.7801L86.5811 40.9348L88.0731 41.0894C88.1805 40.0529 88.2484 39.0307 88.2791 38.0256L86.7798 37.9799ZM86.1737 43.8611L84.696 43.6029C84.5348 44.5257 84.3397 45.459 84.1088 46.4006L85.5656 46.7578L87.0225 47.1151C87.2694 46.1079 87.4784 45.1086 87.6513 44.1193L86.1737 43.8611ZM84.7655 49.6113L83.3352 49.1594C83.0524 50.0547 82.7366 50.9553 82.3865 51.8595L83.7853 52.4012L85.1841 52.9428C85.5572 51.9793 85.8939 51.0188 86.1958 50.0631L84.7655 49.6113ZM82.6333 55.1231L81.2705 54.4964C80.8774 55.3513 80.4525 56.2079 79.9947 57.0647L81.3177 57.7716L82.6407 58.4785C83.1266 57.569 83.578 56.6589 83.9961 55.7497L82.6333 55.1231ZM79.8483 60.339L78.5684 59.5569C78.0766 60.3617 77.5545 61.1654 77.001 61.9669L78.2353 62.8193L79.4696 63.6716C80.0547 62.8243 80.6073 61.9738 81.1283 61.1212L79.8483 60.339ZM76.489 65.2074L75.3022 64.29C74.7243 65.0377 74.1177 65.7823 73.4816 66.5228L74.6195 67.5002L75.7573 68.4776C76.4268 67.6981 77.066 66.9135 77.6757 66.1248L76.489 65.2074ZM72.6367 69.6955L71.5485 68.6631C71.2171 69.0125 70.8787 69.3606 70.5333 69.7076L71.5963 70.7659L72.6593 71.8242C73.0216 71.4603 73.3768 71.0948 73.7249 70.7279L72.6367 69.6955ZM71.5963 70.7659L70.5333 69.7076C70.1929 70.0494 69.844 70.3835 69.4868 70.7101L70.499 71.8172L71.5111 72.9242C71.9023 72.5666 72.2852 72.2 72.6593 71.8242L71.5963 70.7659ZM68.1659 73.766L67.255 72.5742C66.4864 73.1616 65.6883 73.7207 64.8632 74.2528L65.6762 75.5134L66.4892 76.774C67.378 76.2007 68.2417 75.5959 69.0767 74.9578L68.1659 73.766ZM63.0639 77.0668L62.3428 75.7515C61.4892 76.2195 60.613 76.6628 59.7167 77.0826L60.353 78.441L60.9892 79.7994C61.9399 79.3541 62.8729 78.8822 63.785 78.3821L63.0639 77.0668ZM57.5637 79.6509L57.0051 78.2588C56.0938 78.6245 55.1663 78.9688 54.2252 79.2928L54.7134 80.7111L55.2017 82.1294C56.1876 81.79 57.1622 81.4283 58.1224 81.043L57.5637 79.6509ZM51.8157 81.6354L51.3913 80.1967C50.442 80.4767 49.4823 80.7381 48.5148 80.982L48.8814 82.4365L49.2481 83.891C50.2523 83.6379 51.2506 83.366 52.2401 83.0741L51.8157 81.6354ZM45.9191 83.1262L45.6048 81.6595C44.6303 81.8683 43.6507 82.061 42.6686 82.2385L42.9355 83.7146L43.2024 85.1907C44.2146 85.0077 45.2258 84.8088 46.2335 84.5928L45.9191 83.1262ZM39.9351 84.2112L39.7114 82.728C38.7189 82.8777 37.7265 83.0132 36.7369 83.1357L36.9211 84.6243L37.1054 86.1129C38.12 85.9874 39.1387 85.8483 40.1588 85.6945L39.9351 84.2112ZM33.8972 84.961L33.749 83.4683C32.743 83.5682 31.7427 83.6557 30.751 83.7322L30.8662 85.2277L30.9815 86.7233C31.994 86.6453 33.0163 86.5558 34.0454 86.4537L33.8972 84.961ZM27.831 85.4303L27.746 83.9327C26.7295 83.9904 25.7256 84.0374 24.7374 84.0752L24.7948 85.5741L24.8521 87.073C25.8576 87.0345 26.88 86.9867 27.916 86.9279L27.831 85.4303ZM21.7608 85.6642L21.7287 84.1645C20.6956 84.1867 19.6851 84.1998 18.701 84.2059L18.7103 85.7059L18.7196 87.2058C19.7176 87.1997 20.7434 87.1863 21.793 87.1639L21.7608 85.6642ZM15.6674 85.7038L15.6783 84.2038C14.6304 84.1962 13.6223 84.1822 12.6598 84.1644L12.6323 85.6642L12.6047 87.1639C13.5765 87.1818 14.5958 87.196 15.6565 87.2037L15.6674 85.7038ZM9.58582 85.5953L9.62497 84.0958C8.50801 84.0666 7.5112 84.0375 6.58021 84.0128L6.54052 85.5123L6.50082 87.0118C7.40402 87.0357 8.4461 87.066 9.54668 87.0948L9.58582 85.5953ZM3.5094 85.4589L3.50842 83.9589C2.87199 83.9593 2.31187 83.973 1.86823 84.0122L2.00033 85.5064L2.13241 87.0006C2.44186 86.9732 2.89632 86.9593 3.51039 86.9589L3.5094 85.4589Z" fill="#F94900"/>
</svg>
