<svg width="1157" height="124" viewBox="0 0 1157 124" fill="none" xmlns="http://www.w3.org/2000/svg">
<path d="M93.12 14.08C104.64 14.08 114.155 15.1893 121.664 17.408C129.173 19.6267 135.061 22.656 139.328 26.496C143.595 30.336 146.581 34.7307 148.288 39.68C150.08 44.544 150.976 49.664 150.976 55.04C150.976 60.416 149.995 65.5787 148.032 70.528C146.069 75.392 142.827 79.744 138.304 83.584C133.867 87.424 127.936 90.4533 120.512 92.672C113.173 94.8907 104.043 96 93.12 96H0.96V14.08H93.12ZM32.96 70.4H91.84C96.6187 70.4 100.672 70.1013 104 69.504C107.328 68.8213 109.973 67.84 111.936 66.56C113.984 65.28 115.435 63.7013 116.288 61.824C117.227 59.8613 117.696 57.6 117.696 55.04C117.696 52.48 117.227 50.2613 116.288 48.384C115.435 46.4213 113.984 44.8 111.936 43.52C109.973 42.24 107.328 41.3013 104 40.704C100.672 40.0213 96.6187 39.68 91.84 39.68H32.96V70.4ZM198.177 0.383995V19.584H165.665V0.383995H198.177ZM166.561 33.28H197.281V96H166.561V33.28ZM262.722 87.168C250.605 87.168 240.621 86.1867 232.77 84.224C224.919 82.176 219.117 79.1467 215.362 75.136C211.607 71.04 209.73 65.92 209.73 59.776C209.73 54.0587 211.565 49.1093 215.234 44.928C218.903 40.6613 224.621 37.3333 232.386 34.944C240.237 32.5547 250.349 31.36 262.722 31.36C265.197 31.36 267.714 31.36 270.274 31.36C272.834 31.36 275.351 31.36 277.826 31.36H326.722V47.488C321.175 47.744 315.543 47.488 309.826 46.72C304.194 45.8667 298.989 44.7573 294.21 43.392L292.802 41.472C296.642 42.6667 300.269 44.2027 303.682 46.08C307.181 47.9573 309.997 50.2187 312.13 52.864C314.263 55.5093 315.33 58.6667 315.33 62.336C315.33 67.6267 313.495 72.1493 309.826 75.904C306.242 79.5733 300.567 82.3893 292.802 84.352C285.122 86.2293 275.095 87.168 262.722 87.168ZM289.986 123.52V120.064C289.986 117.504 288.834 115.968 286.53 115.456C284.311 115.029 280.77 114.816 275.906 114.816H240.194C234.135 114.816 229.229 114.389 225.474 113.536C221.805 112.683 218.989 111.531 217.026 110.08C215.149 108.629 213.869 107.008 213.186 105.216C212.589 103.509 212.29 101.803 212.29 100.096C212.29 96.4267 213.655 93.568 216.386 91.52C219.117 89.3867 223.298 87.8933 228.93 87.04C234.562 86.1867 241.73 85.76 250.434 85.76L262.722 87.168C255.554 87.168 250.562 87.552 247.746 88.32C244.93 89.0027 243.522 90.4107 243.522 92.544C243.522 93.7387 244.077 94.6347 245.186 95.232C246.295 95.744 247.789 96 249.666 96H287.426C295.874 96 302.53 96.5973 307.394 97.792C312.258 99.072 315.671 101.163 317.634 104.064C319.682 107.051 320.706 111.104 320.706 116.224V123.52H289.986ZM262.722 70.4C268.354 70.4 272.877 69.9733 276.29 69.12C279.789 68.1813 282.306 66.944 283.842 65.408C285.378 63.872 286.146 62.1653 286.146 60.288C286.146 58.1547 285.378 56.32 283.842 54.784C282.306 53.248 279.831 52.0533 276.418 51.2C273.005 50.3467 268.439 49.92 262.722 49.92C257.09 49.92 252.525 50.3467 249.026 51.2C245.527 52.0533 242.967 53.248 241.346 54.784C239.725 56.32 238.914 58.1547 238.914 60.288C238.914 62.1653 239.682 63.872 241.218 65.408C242.839 66.944 245.399 68.1813 248.898 69.12C252.397 69.9733 257.005 70.4 262.722 70.4ZM368.802 0.383995V19.584H336.29V0.383995H368.802ZM337.186 33.28H367.906V96H337.186V33.28ZM378.435 33.28H453.699V52.48H378.435V33.28ZM400.707 14.08H431.427V96H400.707V14.08ZM508.474 97.792C499.258 97.792 491.066 96.512 483.898 93.952C476.73 91.3067 471.055 87.5093 466.874 82.56C462.778 77.6107 460.73 71.6373 460.73 64.64C460.73 57.3013 462.778 51.1573 466.874 46.208C471.055 41.2587 476.73 37.5467 483.898 35.072C491.066 32.5973 499.258 31.36 508.474 31.36C518.714 31.36 527.546 32.768 534.97 35.584C542.479 38.3147 548.239 42.1973 552.25 47.232C556.346 52.1813 558.394 57.984 558.394 64.64C558.394 69.5893 557.242 74.112 554.938 78.208C552.634 82.2187 549.306 85.7173 544.954 88.704C540.602 91.6053 535.354 93.8667 529.21 95.488C523.066 97.024 516.154 97.792 508.474 97.792ZM519.994 78.336C526.479 78.336 532.41 77.952 537.786 77.184C543.247 76.3307 547.599 74.9227 550.842 72.96C554.17 70.9973 555.834 68.224 555.834 64.64C555.834 60.9707 554.17 58.1547 550.842 56.192C547.599 54.2293 543.247 52.864 537.786 52.096C532.41 51.328 526.479 50.944 519.994 50.944C511.29 50.944 504.549 52.096 499.77 54.4C494.991 56.6187 492.602 60.032 492.602 64.64C492.602 67.6267 493.669 70.144 495.802 72.192C497.935 74.24 501.05 75.776 505.146 76.8C509.242 77.824 514.191 78.336 519.994 78.336ZM555.834 33.28H586.554V96H557.626C557.626 96 557.455 95.0187 557.114 93.056C556.858 91.0933 556.559 88.2773 556.218 84.608C555.962 80.9387 555.834 76.6293 555.834 71.68V33.28ZM600.055 7.67999H630.775V96H600.055V7.67999ZM708.077 83.584V64.384H795.629V83.584H708.077ZM679.405 96L734.317 14.08H769.901L825.325 96H790.125L742.637 22.656H761.709L714.605 96H679.405ZM948.609 96H917.889V33.28H948.609V96ZM919.169 63.616L919.425 69.76C919.169 71.552 918.316 73.6427 916.865 76.032C915.5 78.4213 913.58 80.896 911.105 83.456C908.63 86.016 905.601 88.4053 902.017 90.624C898.433 92.7573 894.337 94.5067 889.729 95.872C885.121 97.2373 880.001 97.92 874.369 97.92C868.737 97.92 863.404 97.3227 858.369 96.128C853.334 95.0187 848.854 93.1413 844.929 90.496C841.004 87.8507 837.932 84.3093 835.713 79.872C833.494 75.3493 832.385 69.7173 832.385 62.976V33.28H863.105V59.776C863.105 64.4693 863.873 68.096 865.409 70.656C867.03 73.216 869.548 75.008 872.961 76.032C876.374 76.9707 880.769 77.44 886.145 77.44C891.18 77.44 895.83 76.7147 900.097 75.264C904.449 73.728 908.246 71.8933 911.489 69.76C914.817 67.6267 917.377 65.5787 919.169 63.616ZM960.135 33.28H990.855V96H960.135V33.28ZM1023.88 56.96C1018.33 56.96 1013.26 57.472 1008.65 58.496C1004.04 59.52 1000.11 60.7573 996.871 62.208C993.628 63.5733 991.196 64.9387 989.575 66.304L989.319 60.16C989.575 58.368 990.258 56.2773 991.367 53.888C992.476 51.4133 993.97 48.896 995.847 46.336C997.724 43.6907 1000.03 41.2587 1002.76 39.04C1005.49 36.736 1008.6 34.9013 1012.1 33.536C1015.69 32.0853 1019.61 31.36 1023.88 31.36V56.96ZM1078.72 97.792C1069.51 97.792 1061.32 96.512 1054.15 93.952C1046.98 91.3067 1041.31 87.5093 1037.12 82.56C1033.03 77.6107 1030.98 71.6373 1030.98 64.64C1030.98 57.3013 1033.03 51.1573 1037.12 46.208C1041.31 41.2587 1046.98 37.5467 1054.15 35.072C1061.32 32.5973 1069.51 31.36 1078.72 31.36C1088.96 31.36 1097.8 32.768 1105.22 35.584C1112.73 38.3147 1118.49 42.1973 1122.5 47.232C1126.6 52.1813 1128.64 57.984 1128.64 64.64C1128.64 69.5893 1127.49 74.112 1125.19 78.208C1122.88 82.2187 1119.56 85.7173 1115.2 88.704C1110.85 91.6053 1105.6 93.8667 1099.46 95.488C1093.32 97.024 1086.4 97.792 1078.72 97.792ZM1090.24 78.336C1096.73 78.336 1102.66 77.952 1108.04 77.184C1113.5 76.3307 1117.85 74.9227 1121.09 72.96C1124.42 70.9973 1126.08 68.224 1126.08 64.64C1126.08 60.9707 1124.42 58.1547 1121.09 56.192C1117.85 54.2293 1113.5 52.864 1108.04 52.096C1102.66 51.328 1096.73 50.944 1090.24 50.944C1081.54 50.944 1074.8 52.096 1070.02 54.4C1065.24 56.6187 1062.85 60.032 1062.85 64.64C1062.85 67.6267 1063.92 70.144 1066.05 72.192C1068.19 74.24 1071.3 75.776 1075.4 76.8C1079.49 77.824 1084.44 78.336 1090.24 78.336ZM1126.08 33.28H1156.8V96H1127.88C1127.88 96 1127.71 95.0187 1127.36 93.056C1127.11 91.0933 1126.81 88.2773 1126.47 84.608C1126.21 80.9387 1126.08 76.6293 1126.08 71.68V33.28Z" fill="#F94900" fill-opacity="0.1"/>
</svg>
