<svg width="835" height="542" viewBox="0 0 835 542" fill="none" xmlns="http://www.w3.org/2000/svg">
<path d="M474.238 470.765C474.238 470.765 570.142 215.85 633.413 246.466C696.683 277.082 533.994 401.952 508.259 477.111L474.238 470.765Z" fill="#D5D6DA"/>
<path d="M506.565 436.308C506.565 436.308 674.846 196.392 746.484 250.586C818.121 304.781 593.584 383.036 547.09 454.636L506.565 436.308Z" fill="#EAEAEA"/>
<path d="M529.15 446.776C560.424 396.699 610.133 354.29 646.325 327.531C685.562 298.522 717.788 281.159 718.11 280.986L717.112 278.828C716.79 279.001 684.422 296.44 645.057 325.544C608.704 352.422 558.764 395.038 527.292 445.43L529.15 446.776Z" fill="white"/>
<path d="M786.656 407.001C756.105 417.887 766.361 468.258 729.783 462.903C698.845 458.356 696.01 455.655 686.504 466.204C683.245 469.821 680.538 473.962 678.346 478.413C675.72 483.749 670.422 491.774 661.439 494.557C606.561 511.557 521.254 431.312 574.729 375.527C578.591 371.499 584.589 369.429 591.265 367.503C627.483 357.077 640.766 373.959 665.142 323.89C689.526 273.807 735.56 336.29 760.026 331.09C784.492 325.889 805.469 315.41 827.513 341.374C849.561 367.361 817.213 396.138 786.656 407.001Z" fill="#D5D6DA"/>
<g opacity="0.5">
<path d="M598.978 438.261L597.617 436.517C598.331 435.87 670.953 371.596 832.739 348.867L833.013 351.127C671.835 373.772 599.69 437.619 598.978 438.261Z" fill="white"/>
<path d="M693.202 359.227C669.753 340.958 664.356 324.935 664.138 324.262L666.135 323.51C666.187 323.669 671.593 339.579 694.444 357.381L693.202 359.227Z" fill="#68A1BF"/>
<path d="M699.333 383.247C692.191 372.533 691.13 356.033 696.263 335.531C700.107 320.177 706.13 307.791 706.19 307.668L708.062 308.73C707.826 309.212 684.633 357.284 701.054 381.919L699.333 383.247Z" fill="#68A1BF"/>
</g>
<path d="M664.306 231.079C667.909 225.464 671.149 225.406 673.825 227.396C676.501 229.386 677.598 232.669 673.995 238.285C667.432 248.514 659.415 249.856 659.415 249.856C659.415 249.856 657.647 241.458 664.306 231.079Z" fill="#EAEAEA"/>
<path d="M306.122 346.029C306.122 346.029 309.214 226.909 279.16 227.22C249.106 227.532 293.515 307.535 291.595 342.181L306.122 346.029Z" fill="#D5D6DA"/>
<path d="M305.694 355.431C305.694 355.431 267.494 194.949 220.374 206.112C173.253 217.275 271.966 308.437 281.472 355.478L305.694 355.431Z" fill="#EAEAEA"/>
<path d="M292.144 355.586C286.128 322.969 269.227 290.035 256.108 268.149C241.885 244.422 228.928 228.221 228.798 228.06L229.732 227.191C229.861 227.352 242.876 243.625 257.145 267.428C270.322 289.411 287.301 322.505 293.354 355.326L292.144 355.586Z" fill="white"/>
<path d="M221.221 386.548C202.479 384.466 217.007 390.366 194.498 388.995C189.725 398.761 163.131 388.458 154.823 373.849C144.237 355.234 144.242 359.512 112.158 362.701C89.1442 364.975 88.1599 343.233 79.7464 326.797C79.5956 326.497 79.438 326.2 79.2809 325.902C76.0157 319.804 71.6239 314.53 64.5495 311.634C57.0445 308.567 49.4677 304.225 42.9396 299.069C42.3972 298.644 41.8616 298.21 41.3333 297.767C28.4325 287.032 20.2575 273.122 26.2658 260.039C26.4064 259.729 26.5556 259.419 26.7143 259.114C27.8189 256.96 29.3162 254.828 31.248 252.742C51.3854 231.008 69.3023 241.003 90.4499 246.541C102.143 249.6 120.309 234.896 137.515 228.679C137.761 228.59 138.009 228.503 138.254 228.417C151.898 223.677 164.868 224.532 173.428 244.145C173.428 244.148 173.431 244.148 173.431 244.152C173.605 244.549 173.779 244.944 173.951 245.332C193.13 288.552 205.367 274.722 236.298 285.2C242.05 287.153 247.207 289.204 250.431 292.877C280.5 327.101 255.307 368.42 221.221 386.548Z" fill="#EAEAEA"/>
<path d="M227.072 346.576L228.32 345.111C227.72 344.518 166.675 285.505 26.4242 259.059L26.105 261.019C165.83 287.365 226.474 345.987 227.072 346.576Z" fill="white"/>
<path d="M147.715 273.808C168.805 258.841 174.077 245.093 174.291 244.515L172.576 243.777C172.525 243.913 167.249 257.563 146.697 272.148L147.715 273.808Z" fill="white"/>
<path d="M141.522 294.499C148.126 285.451 149.635 271.108 145.884 253.023C143.076 239.48 138.263 228.434 138.214 228.324L136.545 229.173C136.734 229.604 155.255 272.466 140.068 293.271L141.522 294.499Z" fill="white"/>
<path d="M144.358 183.643C140.443 177.259 141.163 174.021 143.487 172.369C145.811 170.717 148.86 171.277 152.774 177.662C159.905 189.291 159.143 197.903 159.143 197.903C159.143 197.903 151.592 195.442 144.358 183.643Z" fill="#D5D6DA"/>
<path d="M137.087 206.475C130.118 204.982 128.486 202.153 129.03 199.213C129.574 196.272 132.087 194.333 139.056 195.826C151.751 198.547 156.901 205.186 156.901 205.186C156.901 205.186 149.967 209.235 137.087 206.475Z" fill="#D5D6DA"/>
<path d="M410.737 542C637.581 542 821.475 518.16 821.475 488.752C821.475 459.344 637.581 435.504 410.737 435.504C183.893 435.504 0 459.344 0 488.752C0 518.16 183.893 542 410.737 542Z" fill="#EAEAEA"/>
<path d="M221.04 83.9065C221.04 83.9065 496.015 189.735 581.274 261.238C683.737 347.17 408.367 339.914 403.663 367.939C398.959 395.964 686.043 447.164 686.043 447.164C672.791 488.753 479.18 508.693 332.395 478.797C275.785 467.267 200.713 432.585 206.112 370.787C214.932 269.838 400.96 301.566 395.08 265.231C389.199 228.896 206.95 106.577 206.95 106.577L221.04 83.9065Z" fill="#E85319"/>
<path d="M252.093 71.462C230.78 56.0486 152.552 39.1804 151.375 48.3781C150.198 57.5758 190.562 144.129 201.194 141.446C211.825 138.763 217.952 97.0709 217.952 97.0709C217.952 97.0709 263.606 79.7879 252.093 71.462Z" fill="#E85319"/>
<path d="M655.28 381.561C656.558 383.122 658.443 386.822 659.693 388.41C660.236 389.099 661.913 391.55 661.36 392.229C660.88 392.818 658.701 391.56 657.73 390.825C658.296 396.779 656.68 405.738 654.666 393.352C654.659 393.353 654.653 393.354 654.647 393.355C654.745 394.628 655.289 401.71 653.683 401.181C652.266 400.715 651.684 395.663 651.503 393.571C651.485 393.571 651.467 393.571 651.449 393.57C651.465 395.714 651.379 400.888 650.163 399.969C648.636 398.816 647.877 393.294 647.877 393.294C647.877 393.294 648.705 400.372 646.794 399.278C645.718 398.661 645.63 394.556 645.611 391.999V391.998C645.607 391.462 645.606 390.992 645.599 390.639C645.593 390.346 645.618 390.085 645.664 389.849C645.88 385.574 646.675 382.863 646.675 382.863C646.675 382.863 647.085 379.503 650.504 379.186C652.683 378.983 654.725 380.883 655.28 381.561Z" fill="#FF7955"/>
<path d="M659.854 383.099C671.876 374.595 660.265 345.343 665.261 327.173C666.419 322.963 666.919 321.374 667.919 319.031C668.724 317.146 666.554 313.474 663.573 311.957C660.775 310.532 654.064 311.47 653.533 312.424C645.438 326.967 641.554 350.661 645.587 381.138C645.587 381.138 654.694 386.749 659.854 383.099Z" fill="#657285"/>
<path d="M679.02 490.458C679.02 490.458 678.917 494.844 676.161 496.081C673.404 497.318 665.417 498.434 668.402 501.254C670.114 502.873 678.185 501.827 680.463 501.827C682.741 501.827 684.881 502.896 686.574 501.254C688.437 499.448 686.574 490.458 686.574 490.458C686.574 490.458 684.608 491.561 682.839 491.511C680.292 491.44 679.02 490.458 679.02 490.458Z" fill="#131F2D"/>
<path d="M655.238 358.099C655.238 358.099 654.689 377.892 660.556 415.862C664.791 443.274 669.791 470.896 672.244 484.139C673.122 488.876 676.823 492.339 681.208 492.529L683.564 492.631C688.306 492.836 692.155 488.45 691.808 483.237L685.857 393.645L684.39 364.158L655.238 358.099Z" fill="#364154"/>
<path d="M713.412 489.828C713.412 489.828 714.996 493.87 712.957 496.219C710.918 498.569 704.066 503.126 707.865 504.373C710.044 505.088 716.999 500.559 719.075 499.548C721.152 498.538 723.51 498.564 724.425 496.318C725.432 493.846 720.297 486.479 720.297 486.479C720.297 486.479 718.927 488.356 717.296 489.095C714.946 490.159 713.412 489.828 713.412 489.828Z" fill="#131F2D"/>
<path d="M679.602 359.938C679.602 359.938 680.56 379.713 689.296 417.038C695.604 443.985 702.689 471.073 706.142 484.054C707.377 488.698 711.329 491.824 715.714 491.625L718.071 491.519C722.812 491.305 726.314 486.595 725.572 481.429L712.823 392.664L709.117 363.405L679.602 359.938Z" fill="#364154"/>
<path d="M713.38 379.791C713.323 382.179 699.911 383.127 683.322 382.57C666.734 382.013 653.477 379.543 653.534 377.155C653.59 374.767 666.939 373.365 683.528 373.922C700.116 374.479 713.437 377.403 713.38 379.791Z" fill="#131F2D"/>
<path d="M709.319 312.182C709.319 312.182 706.386 299.665 684.743 299.538C653.531 299.355 656.421 330.231 653.534 377.154C653.534 377.154 684.261 373.061 713.38 379.79C713.38 379.79 716.097 331.308 709.319 312.182Z" fill="#657285"/>
<path d="M717.308 310.388L703.172 318.808C703.172 318.808 672.221 321.835 664.004 320.377C655.788 318.92 653.534 312.424 653.534 312.424C653.534 312.424 662.285 302.675 677.159 300.073C678.557 299.827 680.006 299.645 681.509 299.54C684.032 299.365 686.559 299.402 689.028 299.701C707.88 301.989 717.308 310.388 717.308 310.388Z" fill="#657285"/>
<path d="M656.146 379.086C656.146 379.086 674.121 373.393 711.346 381.208L711.633 386.973L657.063 389.05L656.146 379.086Z" fill="#364154"/>
<path d="M718.726 379.987C717.425 364.563 708.122 323.405 706.887 321.196C705.893 319.417 707.672 315.51 710.479 313.646C713.113 311.898 716.518 309.671 717.308 310.387C728.435 320.486 736.802 358.687 733.782 379.135L718.726 379.987Z" fill="#657285"/>
<path d="M681.245 273.204C681.245 273.204 679.756 275.032 679.039 277.944C678.323 280.855 683.829 275.717 683.829 275.717L681.245 273.204Z" fill="#5C305D"/>
<path d="M691.77 300.086C689.531 303.056 685.509 302.638 682.362 301.141C679.832 299.937 680.196 299.961 680.544 299.523C681.4 298.441 682.108 298.179 682.155 296.933L682.217 295.299L682.224 295.096L682.304 292.966L682.445 289.293L682.812 279.629L685.61 289.344L686.086 290.996L687.719 296.674C688.246 298.507 691.752 300.082 691.77 300.086Z" fill="#FF7955"/>
<path d="M686.522 292.521C686.522 292.521 685.077 294.849 682.217 295.299L682.225 295.095L682.304 292.966C683.851 292.805 686.522 292.521 686.522 292.521Z" fill="#131F2D"/>
<path d="M692.46 286.845C694.859 281.73 693.494 276.031 689.411 274.116C685.329 272.202 680.074 274.796 677.675 279.911C675.277 285.026 676.642 290.725 680.725 292.64C684.807 294.555 690.062 291.96 692.46 286.845Z" fill="#FF7955"/>
<path d="M683.491 282.147C683.454 282.112 683.432 282.06 683.436 282.003C683.442 281.907 683.519 281.834 683.608 281.841C683.661 281.844 684.892 281.813 685.298 283.283C685.323 283.376 685.278 283.474 685.192 283.503C685.107 283.533 685.033 283.473 684.988 283.39C684.534 282.553 683.629 282.194 683.585 282.19C683.549 282.187 683.516 282.172 683.491 282.147Z" fill="#080435"/>
<path d="M679.566 280.024C679.532 280.004 679.51 279.964 679.508 279.911C679.506 279.821 679.564 279.731 679.638 279.708C679.682 279.694 680.695 279.27 681.149 280.47C681.178 280.546 681.148 280.649 681.08 280.703C681.011 280.758 680.946 280.728 680.902 280.666C680.46 280.055 679.684 280.02 679.648 280.031C679.617 280.041 679.589 280.037 679.566 280.024Z" fill="#080435"/>
<path d="M684.691 301.619C684.691 301.619 680.889 300.353 679.878 301.336C678.868 302.318 679.611 306.814 681.362 307.214C683.113 307.613 686.422 302.703 684.691 301.619Z" fill="#00A3FE"/>
<path d="M682.458 300.558C682.458 300.558 687.421 298.669 688.389 296.78C689.357 294.891 694.495 299.255 694.406 300.558C694.317 301.86 685.061 309.089 684.456 308.177C683.852 307.265 681.245 301.795 682.458 300.558Z" fill="#364154"/>
<path d="M682.458 300.559C682.458 300.559 681.716 298.575 682.073 297.499C682.073 297.499 682.309 296.553 681.553 296.618C680.797 296.683 676.683 299.777 676.321 300.721C675.958 301.665 675.897 306.094 677.228 306.42C678.559 306.745 681.767 301.988 682.144 301.517C682.521 301.047 682.458 300.559 682.458 300.559Z" fill="#364154"/>
<path d="M680.297 305.474C680.297 305.474 667.216 341.978 668.088 357.277C668.088 357.277 669.011 366.205 674.889 371.025C674.889 371.025 682.823 365.424 683.889 357.277C684.765 350.582 680.887 311.791 683.125 306.434L680.297 305.474Z" fill="#00A3FE"/>
<path d="M681.391 307.308C681.381 307.308 681.37 307.308 681.36 307.308C680.202 307.287 679.574 304.859 679.548 304.755L679.731 304.709C679.737 304.733 680.348 307.102 681.363 307.119C681.372 307.12 681.381 307.12 681.39 307.12C682.423 307.12 683.349 306.086 683.358 306.076L683.499 306.2C683.459 306.246 682.507 307.308 681.391 307.308Z" fill="#131F2D"/>
<path d="M690.74 279.307C690.74 279.307 687.649 281.304 683.774 279.452C683.774 279.452 683.409 279.031 684.266 278.936C685.124 278.842 686.614 278.123 686.545 277.612C686.475 277.101 681.769 279.696 678.953 277.911C678.953 277.911 674.972 275.577 678.533 274.247C680.745 273.422 682.245 266.27 692.192 270.907C693.646 271.585 696.607 273.429 696.648 276.395C696.648 276.395 700.55 278.339 699.004 283.765C696.677 291.926 688.998 291.235 688.998 291.235C688.998 291.235 693.556 285.702 691.423 285.588C688.683 285.441 688.132 283.428 689.751 282.566C691.37 281.704 692.886 279.085 690.74 279.307Z" fill="#131F2D"/>
<path d="M691.354 288.872C690.395 288.978 689.546 288.316 689.459 287.394C689.371 286.471 690.077 285.637 691.035 285.532C691.994 285.426 692.843 286.088 692.93 287.01C693.019 287.933 692.312 288.766 691.354 288.872Z" fill="#FF7955"/>
<path d="M699.619 278.379C699.538 278.379 699.464 278.327 699.439 278.246C698.912 276.54 697.101 276.104 697.083 276.1C696.981 276.076 696.918 275.976 696.942 275.874C696.965 275.773 697.067 275.71 697.166 275.733C697.25 275.751 699.206 276.217 699.799 278.134C699.83 278.234 699.774 278.339 699.675 278.37C699.656 278.376 699.637 278.379 699.619 278.379Z" fill="#131F2D"/>
<path d="M697.03 274.852C696.995 274.852 696.96 274.842 696.928 274.822C696.841 274.766 696.815 274.65 696.871 274.563C696.894 274.525 697.393 273.682 696.34 272.526C696.27 272.449 696.275 272.33 696.352 272.26C696.428 272.189 696.548 272.195 696.618 272.272C697.876 273.653 697.218 274.72 697.188 274.765C697.153 274.821 697.092 274.852 697.03 274.852Z" fill="#131F2D"/>
<path d="M733.783 379.135C733.871 381.369 730.572 383.37 726.414 383.605C722.257 383.84 718.815 382.22 718.726 379.987C718.637 377.753 721.936 375.752 726.094 375.517C730.253 375.282 733.695 376.902 733.783 379.135Z" fill="#131F2D"/>
<path d="M653.346 377.17C653.32 376.837 650.811 343.63 659.755 323.059L660.101 323.209C651.193 343.694 653.695 376.808 653.721 377.14L653.346 377.17Z" fill="#131F2D"/>
<path d="M713.744 347.376C711.387 337.015 706.502 329.652 706.453 329.579L706.766 329.369C706.815 329.442 711.738 336.863 714.11 347.292L713.744 347.376Z" fill="#131F2D"/>
<path d="M679.02 281.958C678.904 282.311 679.004 282.669 679.242 282.759C679.479 282.849 679.765 282.636 679.88 282.284C679.995 281.931 679.896 281.573 679.659 281.483C679.421 281.393 679.135 281.606 679.02 281.958Z" fill="#080435"/>
<path d="M682.741 284.067C682.626 284.42 682.725 284.778 682.963 284.868C683.201 284.958 683.487 284.745 683.601 284.393C683.716 284.041 683.617 283.682 683.379 283.592C683.142 283.502 682.856 283.715 682.741 284.067Z" fill="#080435"/>
<path d="M686.219 404.539C686.203 404.462 684.651 396.837 683.178 390.805C681.744 384.931 676.08 383.36 676.023 383.345L676.17 382.79C676.231 382.807 682.222 384.467 683.736 390.668C685.212 396.712 686.767 404.348 686.782 404.424L686.219 404.539Z" fill="#020202"/>
<path d="M721.646 406.635L719.304 406.591L719.49 396.658C719.58 394.14 721.344 392.024 723.685 391.606L731.048 390.288C733.207 389.901 735.34 391.011 736.358 393.049L736.377 393.087L741.076 403.403L738.945 404.374L734.255 394.079C733.702 392.989 732.581 392.394 731.462 392.593L724.097 393.911C722.835 394.137 721.882 395.319 721.831 396.722L721.646 406.635Z" fill="#131F2D"/>
<path d="M715.846 437.825L750.444 435.182C752.882 434.996 754.723 432.743 754.568 430.137L752.992 403.74C752.827 400.975 750.494 398.946 747.927 399.335L706.466 405.609C703.615 406.041 701.892 409.208 702.952 412.068L711.391 434.833C712.106 436.762 713.909 437.973 715.846 437.825Z" fill="#B05638"/>
<path d="M729.084 420.842L728.996 420.825L704.256 415.994L704.36 415.46L729.012 420.275L753.188 408.729L753.422 409.219L729.084 420.842Z" fill="#131F2D"/>
<path d="M729.008 422.988C729.793 422.848 730.327 422.047 730.196 421.209L729.965 419.737C729.834 418.899 729.084 418.328 728.3 418.469C727.515 418.609 726.981 419.409 727.112 420.248L727.343 421.72C727.474 422.558 728.223 423.128 729.008 422.988Z" fill="#131F2D"/>
<path d="M717.449 391.024C717.993 389.896 718.595 388.023 719.197 386.234C719.683 384.793 720.168 383.405 720.623 382.504C720.858 382.039 722.409 379.861 726.118 379.888C729.861 379.914 730.285 381.517 730.285 381.517C730.285 381.517 731.791 384.187 733.038 388.685C733.144 388.924 733.233 389.195 733.296 389.509C733.737 391.692 734.737 394.702 733.497 395.858C732.144 397.119 731.304 394.948 730.963 393.755C731.195 394.846 731.468 396.946 730.472 398.133C729.424 399.382 728.223 395.967 727.701 394.23C727.696 394.232 727.692 394.233 727.687 394.234C728.057 395.795 728.573 398.816 727.249 399.638C725.684 400.609 724.479 395.963 724.158 394.9C724.12 394.902 724.08 394.906 724.043 394.907C723.13 401.52 720.679 398.179 720.126 393.089C719.231 394.148 717.197 396.046 716.542 395.555C715.78 394.985 717.022 391.908 717.449 391.024Z" fill="#FF7955"/>
<path d="M679.975 287.504C679.85 287.968 679.524 288.274 679.246 288.187C678.969 288.101 678.846 287.654 678.971 287.19C679.095 286.726 679.422 286.42 679.7 286.507C679.977 286.593 680.1 287.04 679.975 287.504Z" fill="white"/>
<path d="M368.957 369.279C367.879 371.136 366.513 375.326 365.468 377.206C365.015 378.021 363.665 380.878 364.347 381.479C364.941 382.002 367.001 380.292 367.892 379.349C368.256 385.635 371.364 394.638 371.478 381.406C371.484 381.406 371.491 381.406 371.498 381.406C371.599 382.745 372.165 390.198 373.748 389.353C375.145 388.607 374.942 383.253 374.796 381.048C374.815 381.045 374.833 381.041 374.852 381.037C375.178 383.265 376.093 388.622 377.209 387.442C378.609 385.963 378.516 380.089 378.516 380.089C378.516 380.089 378.787 387.59 380.596 386.1C381.616 385.26 381.05 380.982 380.662 378.324C380.581 377.767 380.508 377.279 380.458 376.911C380.417 376.605 380.35 376.339 380.264 376.103C379.357 371.705 378.099 369.037 378.099 369.037C378.099 369.037 377.137 365.624 373.535 365.928C371.241 366.122 369.424 368.473 368.957 369.279Z" fill="#FF7955"/>
<path d="M366.236 370.18C353.207 360.963 367.203 332.429 361.787 312.735C360.532 308.172 359.991 306.45 358.907 303.911C358.035 301.868 360.386 297.888 363.617 296.243C366.649 294.7 373.922 295.716 374.498 296.75C383.271 312.512 386.106 338.388 381.735 371.417C381.735 371.417 371.829 374.136 366.236 370.18Z" fill="#B05638"/>
<path d="M346.876 489.702C346.876 489.702 346.986 494.455 349.973 495.796C352.961 497.137 361.617 498.346 358.382 501.402C356.526 503.156 347.78 502.023 345.31 502.023C342.841 502.023 340.522 503.182 338.687 501.402C336.668 499.445 338.687 489.702 338.687 489.702C338.687 489.702 340.818 490.897 342.735 490.843C345.497 490.766 346.876 489.702 346.876 489.702Z" fill="#131F2D"/>
<path d="M372.65 346.251C372.65 346.251 373.246 367.702 366.887 408.855C362.297 438.563 356.878 468.5 354.219 482.852C353.268 487.986 349.257 491.74 344.504 491.945L341.95 492.056C336.81 492.278 332.64 487.525 333.015 481.874L339.464 384.776L341.054 352.818L372.65 346.251Z" fill="#364154"/>
<path d="M318.581 489.702C318.581 489.702 318.692 494.455 321.679 495.796C324.667 497.137 333.322 498.346 330.088 501.402C328.232 503.156 319.485 502.023 317.016 502.023C314.547 502.023 312.228 503.182 310.393 501.402C308.374 499.445 310.393 489.702 310.393 489.702C310.393 489.702 312.524 490.897 314.441 490.843C317.202 490.766 318.581 489.702 318.581 489.702Z" fill="#131F2D"/>
<path d="M344.356 346.251C344.356 346.251 344.952 367.703 338.593 408.855C334.003 438.563 328.584 468.5 325.925 482.853C324.974 487.986 320.964 491.741 316.21 491.946L313.656 492.056C308.516 492.278 304.346 487.525 304.721 481.875L311.17 384.777L312.76 352.818L344.356 346.251Z" fill="#364154"/>
<path d="M309.636 369.761C309.698 372.349 324.234 373.377 342.213 372.773C360.192 372.169 374.559 369.493 374.498 366.904C374.436 364.316 359.969 362.797 341.99 363.401C324.012 364.005 309.575 367.173 309.636 369.761Z" fill="#131F2D"/>
<path d="M314.037 296.489C314.037 296.489 317.216 282.924 340.672 282.786C374.499 282.588 371.367 316.05 374.496 366.906C374.496 366.906 341.177 361.832 309.618 369.125C309.618 369.125 306.692 317.217 314.037 296.489Z" fill="#B05638"/>
<path d="M305.378 294.544L320.699 303.67C320.699 303.67 354.244 306.95 363.149 305.37C372.054 303.79 374.497 296.751 374.497 296.751C374.497 296.751 365.012 286.185 348.892 283.364C347.377 283.097 345.806 282.901 344.177 282.787C341.443 282.597 338.705 282.637 336.029 282.962C315.597 285.441 305.378 294.544 305.378 294.544Z" fill="#B05638"/>
<path d="M371.667 368.999C371.667 368.999 352.186 362.828 311.841 371.298L311.53 377.547L370.672 379.797L371.667 368.999Z" fill="#364154"/>
<path d="M302.444 369.125C303.854 352.409 315.335 308.652 316.673 306.258C317.75 304.33 315.822 300.096 312.78 298.076C309.926 296.181 306.236 293.767 305.379 294.544C293.32 305.489 282.944 345.483 286.216 367.644L302.444 369.125Z" fill="#B05638"/>
<path d="M333.057 283.378C335.484 286.597 339.842 286.144 343.253 284.521C345.995 283.217 345.601 283.242 345.223 282.768C344.295 281.595 343.528 281.312 343.477 279.96L343.41 278.19L343.402 277.97L343.316 275.662L343.163 271.681L342.766 261.207L339.733 271.735L339.217 273.527L337.447 279.68C336.877 281.666 333.076 283.373 333.057 283.378Z" fill="#FF7955"/>
<path d="M338.852 275.102C338.852 275.102 340.311 277.703 343.411 278.19L343.403 277.97L343.316 275.661C341.64 275.487 338.852 275.102 338.852 275.102Z" fill="#131F2D"/>
<path d="M358.711 345.354C358.711 345.354 357.733 355.026 351.347 360.256C351.347 360.256 347.375 357.46 344.503 352.888C343.097 350.749 341.966 348.216 341.6 345.354C341.447 344.071 341.417 341.703 341.478 338.643C341.569 336.176 341.722 333.248 341.875 330.058C342.15 324.465 342.547 318.116 342.822 312.129C342.975 308.84 343.097 305.648 343.158 302.787C343.281 296.701 343.127 291.931 342.425 290.253L345.48 289.233C345.48 289.233 346.794 292.886 348.597 298.445C349.269 300.583 350.033 302.984 350.827 305.55C352.049 309.662 353.364 314.235 354.555 318.84C355.197 321.373 355.839 323.939 356.358 326.44C357.489 331.605 358.344 336.539 358.619 340.684C358.772 342.394 358.803 343.94 358.711 345.354Z" fill="#00A3FE"/>
<path d="M286.217 367.643C286.121 370.064 289.696 372.233 294.203 372.488C298.709 372.742 302.44 370.987 302.535 368.566C302.631 366.145 299.056 363.976 294.549 363.721C290.043 363.467 286.313 365.223 286.217 367.643Z" fill="#131F2D"/>
<path d="M374.7 366.921L374.293 366.889C374.322 366.529 377.032 330.639 367.379 308.44L367.754 308.278C377.447 330.57 374.729 366.56 374.7 366.921Z" fill="#131F2D"/>
<path d="M309.243 334.632L308.845 334.542C311.416 323.239 316.752 315.196 316.806 315.116L317.145 315.343C317.092 315.422 311.796 323.407 309.243 334.632Z" fill="#131F2D"/>
<path d="M346.324 254.529C346.324 254.529 347.691 256.714 348.091 259.95C348.491 263.186 343.226 256.85 343.226 256.85L346.324 254.529Z" fill="#131F2D"/>
<path d="M348.714 260.692C346.102 255.13 340.511 252.511 336.227 254.844C331.942 257.176 330.586 263.576 333.199 269.138C335.811 274.7 341.402 277.319 345.687 274.986C349.971 272.654 351.326 266.254 348.714 260.692Z" fill="#FF7955"/>
<path d="M332 266.167L335.826 264.223C336.667 263.795 337.301 262.989 337.514 262.014C337.88 260.336 338.629 259.262 342.382 258.012C347.134 256.43 349.249 252.249 348.894 249.416C348.532 246.524 345.537 245.603 343.6 247.779C341.663 249.955 341.647 246.42 339.272 246.941C334.835 247.915 335.188 251.728 331.686 252.923C327.093 254.491 320.165 261.284 326.833 268.437L332 266.167Z" fill="#131F2D"/>
<path d="M341.779 263.672C341.812 263.627 341.826 263.566 341.812 263.506C341.787 263.405 341.691 263.344 341.597 263.37C341.542 263.386 340.225 263.615 340.064 265.269C340.053 265.373 340.12 265.468 340.217 265.481C340.313 265.494 340.381 265.415 340.413 265.316C340.742 264.327 341.64 263.75 341.686 263.737C341.724 263.727 341.756 263.703 341.779 263.672Z" fill="#080435"/>
<path d="M341.806 266.24C342.045 266.613 342.442 266.764 342.693 266.577C342.944 266.391 342.954 265.937 342.716 265.564C342.477 265.192 342.08 265.041 341.829 265.228C341.577 265.414 341.567 265.867 341.806 266.24Z" fill="#080435"/>
<path d="M347.276 260.576C347.309 260.549 347.328 260.503 347.322 260.445C347.312 260.349 347.237 260.261 347.154 260.249C347.105 260.242 345.958 259.95 345.639 261.311C345.618 261.397 345.665 261.503 345.746 261.55C345.827 261.597 345.893 261.555 345.932 261.482C346.32 260.754 347.149 260.592 347.19 260.597C347.223 260.603 347.253 260.594 347.276 260.576Z" fill="#080435"/>
<path d="M346.647 263.089C346.787 263.517 347.134 263.774 347.422 263.664C347.709 263.554 347.829 263.12 347.689 262.693C347.549 262.266 347.202 262.009 346.914 262.118C346.627 262.228 346.507 262.662 346.647 263.089Z" fill="#080435"/>
<path d="M326.833 268.437C326.833 268.437 331.651 273.771 335.692 272.769C335.692 272.769 330.965 269.103 336.627 263.64C336.627 263.64 330.207 264.909 326.833 268.437Z" fill="#131F2D"/>
<path d="M333.461 269.88C334.479 270.136 335.475 269.549 335.687 268.571C335.899 267.592 335.245 266.592 334.228 266.336C333.211 266.081 332.215 266.667 332.003 267.646C331.791 268.625 332.443 269.625 333.461 269.88Z" fill="#FF7955"/>
<path d="M347.521 248.849C346.662 248.849 346.263 248.197 346.168 247.802C346.141 247.693 346.209 247.583 346.318 247.556C346.427 247.528 346.537 247.596 346.565 247.705C346.588 247.8 346.828 248.621 347.846 248.404C347.957 248.381 348.065 248.451 348.088 248.561C348.112 248.671 348.042 248.78 347.931 248.804C347.784 248.835 347.647 248.849 347.521 248.849Z" fill="#00A3FE"/>
<path d="M343.252 256.092L343.177 255.995C343.222 255.96 347.695 252.48 346.998 249.633C346.797 248.81 346.498 248.333 346.083 248.174C345.444 247.931 344.632 248.487 343.915 248.98C343.803 249.056 343.693 249.132 343.587 249.202L343.519 249.099C343.625 249.029 343.733 248.954 343.845 248.878C344.588 248.369 345.43 247.792 346.127 248.059C346.583 248.233 346.907 248.738 347.118 249.603C347.415 250.817 346.839 252.326 345.451 253.965C344.409 255.197 343.264 256.083 343.252 256.092Z" fill="white"/>
<path d="M330.061 254.652L330.034 254.532C335.134 253.402 336.521 249.566 336.534 249.528L336.65 249.569C336.637 249.608 335.231 253.506 330.061 254.652Z" fill="white"/>
<path d="M299.462 369.314C300.943 370.816 303.251 374.497 304.704 376.03C305.334 376.695 307.314 379.088 306.795 379.857C306.345 380.525 303.948 379.434 302.864 378.765C303.993 384.945 303.108 394.501 299.88 381.733C299.874 381.736 299.867 381.737 299.861 381.739C300.079 383.063 301.286 390.426 299.556 390.04C298.029 389.7 296.964 384.466 296.586 382.293C296.567 382.295 296.548 382.296 296.529 382.298C296.739 384.542 297.116 389.973 295.759 389.137C294.055 388.088 292.762 382.381 292.762 382.381C292.762 382.381 294.267 389.711 292.166 388.764C290.982 388.23 290.521 383.937 290.27 381.26C290.218 380.699 290.174 380.207 290.135 379.838C290.103 379.531 290.105 379.256 290.133 379.003C289.973 374.501 290.562 371.577 290.562 371.577C290.562 371.577 290.689 368.014 294.244 367.324C296.509 366.884 298.82 368.662 299.462 369.314Z" fill="#FF7955"/>
<path d="M337.495 416.711L337.236 416.661C337.294 416.36 343.012 386.435 344.243 381.741C345.494 376.974 350.037 375.865 350.083 375.854L350.143 376.111C350.099 376.121 345.708 377.199 344.499 381.807C343.269 386.494 337.553 416.409 337.495 416.711Z" fill="#131F2D"/>
<path d="M343.158 302.787C343.28 296.701 343.127 291.931 342.424 290.253L345.48 289.233C345.48 289.233 346.794 292.886 348.596 298.445C346.764 299.859 344.808 301.405 343.158 302.787Z" fill="#016EB9"/>
<path d="M354.556 318.839C350.248 322.425 344.167 327.59 341.875 330.057C342.151 324.465 342.548 318.115 342.823 312.128L350.828 305.549C352.05 309.661 353.364 314.234 354.556 318.839Z" fill="#016EB9"/>
<path d="M358.619 340.684C354.739 343.973 348.566 349.204 344.503 352.889C343.097 350.75 341.966 348.217 341.6 345.355C341.447 344.072 341.417 341.704 341.478 338.644L356.358 326.439C357.489 331.604 358.344 336.539 358.619 340.684Z" fill="#016EB9"/>
<path d="M340.729 285.039C340.729 285.039 344.85 283.667 345.945 284.732C347.041 285.797 346.235 290.67 344.338 291.103C342.44 291.536 338.853 286.214 340.729 285.039Z" fill="#00A3FE"/>
<path d="M343.15 283.89C343.15 283.89 337.771 281.843 336.721 279.796C335.673 277.749 330.103 282.478 330.199 283.89C330.296 285.302 340.327 293.136 340.983 292.148C341.639 291.16 344.464 285.231 343.15 283.89Z" fill="#A0462D"/>
<path d="M343.15 283.89C343.15 283.89 343.953 281.741 343.566 280.575C343.566 280.575 343.311 279.549 344.13 279.62C344.949 279.69 349.408 283.043 349.801 284.066C350.194 285.09 350.26 289.89 348.818 290.242C347.375 290.595 343.898 285.439 343.49 284.929C343.081 284.419 343.15 283.89 343.15 283.89Z" fill="#A0462D"/>
<path d="M344.306 291.206C343.097 291.206 342.064 290.055 342.021 290.005L342.174 289.87C342.184 289.881 343.189 291.001 344.306 291.001C344.316 291.001 344.326 291.001 344.336 291.001C345.435 290.982 346.098 288.415 346.104 288.389L346.302 288.439C346.274 288.551 345.594 291.182 344.339 291.205C344.328 291.206 344.317 291.206 344.306 291.206Z" fill="#131F2D"/>
<path d="M345.723 270.343C345.723 270.96 346.036 271.459 346.421 271.459C346.807 271.459 347.119 270.96 347.119 270.343C347.119 269.727 346.807 269.228 346.421 269.228C346.036 269.228 345.723 269.727 345.723 270.343Z" fill="white"/>
<path d="M526.267 127.693C517.678 110.682 484.473 89.0863 474.301 90.8559C472.112 91.2368 486.462 61.1846 491.3 64.2453C508.038 74.8329 532.912 98.1694 539.056 115.166L526.267 127.693Z" fill="#657285"/>
<path d="M529.724 117.672C533.827 112.556 537.587 113.26 539.055 115.166C540.523 117.073 538.726 121.285 535.041 124.575C531.355 127.866 527.734 129.599 526.265 127.693C524.798 125.787 526.595 121.574 529.724 117.672Z" fill="#131F2D"/>
<path d="M530.31 124.109C530.284 126.225 531.106 130.421 531.119 132.537C531.124 133.454 531.339 136.54 532.182 136.669C532.915 136.781 533.821 134.258 534.118 132.998C537.344 137.992 544.099 143.748 538.035 132.762C538.041 132.759 538.046 132.755 538.051 132.751C538.759 133.802 542.695 139.65 543.608 138.098C544.414 136.729 541.755 132.418 540.608 130.677C540.622 130.664 540.635 130.651 540.649 130.637C541.955 132.301 545.203 136.229 545.576 134.654C546.043 132.677 543.233 127.878 543.233 127.878C543.233 127.878 546.947 133.925 547.747 131.72C548.198 130.476 545.741 127.249 544.183 125.263L544.183 125.263C543.856 124.846 543.569 124.483 543.357 124.207C543.181 123.977 543.001 123.793 542.821 123.644C540.026 120.502 537.745 118.978 537.745 118.978C537.745 118.978 535.362 116.68 532.531 118.873C530.727 120.271 530.32 123.192 530.31 124.109Z" fill="#FF7955"/>
<path d="M454.523 245.053C454.523 245.053 456.395 250.109 453.812 252.968C451.23 255.826 442.629 261.297 447.311 262.944C449.997 263.889 458.726 258.455 461.324 257.258C463.922 256.06 466.846 256.155 468.033 253.393C469.338 250.354 463.137 241.082 463.137 241.082C463.137 241.082 461.395 243.373 459.356 244.246C456.418 245.505 454.523 245.053 454.523 245.053Z" fill="#131F2D"/>
<path d="M529.475 265.907C529.475 265.907 529.749 271.341 526.453 273.162C523.158 274.983 513.384 277.209 517.331 280.379C519.596 282.199 529.48 280.053 532.297 279.812C535.115 279.57 537.857 280.666 539.801 278.457C541.94 276.026 538.816 265.107 538.816 265.107C538.816 265.107 536.485 266.679 534.294 266.805C531.137 266.986 529.475 265.907 529.475 265.907Z" fill="#131F2D"/>
<path d="M467.255 140.626C467.255 140.626 456.177 134.271 472.414 171.399C484.136 198.203 509.082 245.956 521.521 262.428C524.545 266.433 529.009 269.362 534.328 268.12L537.187 267.452C542.938 266.109 546.505 260.337 544.828 255.089L502.517 134.512C502.517 134.512 499.873 131.131 485.128 132.817C467.051 134.886 467.255 140.626 467.255 140.626Z" fill="#364154"/>
<path d="M451.96 143.129C451.96 143.129 429.785 160.837 424.036 183.919C417.506 210.136 446.107 245.089 452.932 247.785C457.384 249.543 460.925 247.798 465.97 238.36C468.987 232.716 454.307 200.567 458.906 189.505C464.469 176.126 491.702 165.057 491.702 165.057L489.065 130.618C489.065 130.618 469.022 135.3 451.96 143.129Z" fill="#364154"/>
<path d="M499.562 73.4506C499.562 73.4506 495.626 59.2226 470.754 60.2103C451.598 60.9708 440.875 63.7009 438.552 77.3746C437.728 82.2274 435.759 100.233 446.034 148.144C446.034 148.144 479.831 163.935 511.379 146.687C511.379 146.687 506.566 121.113 500.863 81.8088C500.381 78.4871 500.563 75.9514 499.562 73.4506Z" fill="#657285"/>
<path d="M465.127 66.3275C466.327 71.017 475.24 104.634 524.268 91.8657C527.308 91.0742 530.499 91.2691 533.436 92.4279L541.522 95.6196C542.546 96.0242 542.9 97.3909 542.217 98.3074L537.362 104.82C534.248 108.998 529.905 111.904 525.049 113.074C514.879 115.526 496.706 117.954 481.356 109.611C463.128 99.7029 460.765 75.9744 460.542 66.9868C460.507 65.537 462.048 64.694 463.113 65.5816C463.386 65.8076 465.036 65.9692 465.127 66.3275Z" fill="#00A3FE"/>
<path d="M469.988 56.7477L468.655 49.9603L468.267 47.9844L465.986 36.3662L464.594 47.559L463.76 54.2775L463.496 56.4042C463.316 57.8478 462.469 58.0709 461.363 59.2309C460.915 59.701 458.061 62.5373 460.879 64.2261C464.389 66.3313 471.458 64.3752 474.355 61.1813C474.335 61.1739 470.419 58.941 469.988 56.7477Z" fill="#FF7955"/>
<path d="M469.012 51.7814C469.012 51.7814 466.708 54.1606 463.759 54.277L464.15 51.5361L469.012 51.7814Z" fill="#131F2D"/>
<path d="M457.987 31.293C457.987 31.293 457.09 33.9609 457.458 37.4549C457.826 40.9483 461.787 32.845 461.787 32.845L457.987 31.293Z" fill="#5C305D"/>
<path d="M456.987 38.4046C458.364 31.8573 463.569 27.5463 468.612 28.7758C473.656 30.0052 476.628 36.3096 475.251 42.8569C473.874 49.4041 468.67 53.7151 463.626 52.4857C458.583 51.2562 455.611 44.9519 456.987 38.4046Z" fill="#FF7955"/>
<path d="M475.781 39.4165L471.311 38.4634C470.329 38.2537 469.47 37.5898 469.011 36.631C468.22 34.9812 467.175 34.0704 462.951 33.8218C457.602 33.5071 454.376 29.7357 454.057 26.6756C453.732 23.5523 456.639 21.7459 459.191 23.4737C461.743 25.2015 460.901 21.5035 463.509 21.3787C468.381 21.1465 468.939 25.2292 472.89 25.4908C478.069 25.8343 486.959 30.9799 481.731 40.3318L475.781 39.4165Z" fill="#131F2D"/>
<path d="M465.57 40.0259C465.513 40.0271 465.455 40.0005 465.417 39.948C465.353 39.8593 465.366 39.731 465.449 39.6615C465.497 39.6202 466.539 38.5558 467.961 39.4852C468.051 39.544 468.082 39.6671 468.03 39.7649C467.977 39.8626 467.87 39.8734 467.77 39.8389C466.769 39.4971 465.724 39.9496 465.684 39.9835C465.65 40.0112 465.61 40.0254 465.57 40.0259Z" fill="#080435"/>
<path d="M458.727 38.4505C458.69 38.4245 458.674 38.3641 458.689 38.2816C458.715 38.142 458.82 37.9912 458.925 37.9448C458.987 37.9177 460.45 37.1058 460.65 38.9263C460.663 39.041 460.591 39.2076 460.483 39.3026C460.376 39.3975 460.3 39.3596 460.263 39.2698C459.886 38.372 458.882 38.4296 458.831 38.4522C458.789 38.4697 458.753 38.4681 458.727 38.4505Z" fill="#080435"/>
<path d="M460.277 41.0325C460.292 41.5201 460.038 41.9241 459.709 41.936C459.381 41.9473 459.102 41.5614 459.088 41.0743C459.073 40.5867 459.327 40.1828 459.656 40.1709C459.985 40.1596 460.263 40.5455 460.277 41.0325Z" fill="#080435"/>
<path d="M481.731 40.3321C481.731 40.3321 477.994 47.2631 473.529 47.3546C473.529 47.3546 477.576 42.1921 470.333 38.08C470.333 38.08 477.349 37.5964 481.731 40.3321Z" fill="#5C305D"/>
<path d="M475.158 43.7075C474.157 44.2612 472.974 43.9289 472.514 42.9662C472.055 42.0034 472.494 40.7739 473.495 40.2208C474.495 39.6677 475.679 39.9993 476.138 40.9621C476.598 41.9243 476.159 43.1538 475.158 43.7075Z" fill="#FF7955"/>
<path d="M460.012 23.057C459.922 23.057 459.827 23.0508 459.726 23.0372L459.761 22.7745C460.984 22.9377 461.179 21.8874 461.187 21.8428L461.448 21.8874C461.446 21.9004 461.232 23.057 460.012 23.057Z" fill="#131F2D"/>
<path d="M461.577 32.0588C461.563 32.0531 460.151 31.4497 458.762 30.4564C456.913 29.1338 455.943 27.7195 455.959 26.3675C455.969 25.3962 456.189 24.7753 456.63 24.4679C457.295 24.0058 458.307 24.3696 459.2 24.6894C459.335 24.738 459.467 24.7855 459.595 24.8284L459.551 24.9538C459.424 24.9103 459.291 24.8629 459.155 24.8143C458.292 24.5046 457.313 24.1538 456.705 24.577C456.302 24.8572 456.101 25.4437 456.09 26.3692C456.056 29.5389 461.572 31.9136 461.628 31.9373L461.577 32.0588Z" fill="white"/>
<path d="M474.441 26.8518C471.779 26.8518 469.915 25.9761 468.796 25.2122C467.497 24.3257 466.892 23.3917 466.886 23.3827L466.998 23.3115C467.022 23.3482 469.404 26.9598 475.003 26.7066L475.009 26.8388C474.816 26.8479 474.627 26.8518 474.441 26.8518Z" fill="white"/>
<path d="M459.384 46.3442C459.384 46.3442 459.748 48.7528 462.143 48.9042C464.73 49.0681 465.377 46.9787 465.377 46.9787C465.377 46.9787 461.893 47.4596 459.384 46.3442Z" fill="white"/>
<path d="M467.888 42.1413C467.857 42.1413 467.825 42.1328 467.796 42.1153C466.693 41.448 465.169 41.8209 465.154 41.8249C465.058 41.848 464.962 41.791 464.938 41.696C464.915 41.6011 464.972 41.5045 465.067 41.4802C465.136 41.4627 466.752 41.0677 467.98 41.8113C468.065 41.8621 468.091 41.9712 468.041 42.0554C468.006 42.1108 467.948 42.1413 467.888 42.1413Z" fill="#131F2D"/>
<path d="M466.372 62.4837C466.372 62.4837 461.947 61.2283 460.83 62.4103C459.713 63.5923 460.77 68.7191 462.8 69.0869C464.829 69.4547 468.41 63.6392 466.372 62.4837Z" fill="#00A3FE"/>
<path d="M462.775 69.1968C461.46 69.1968 460.64 66.4752 460.606 66.3582L460.813 66.2966C460.821 66.3238 461.621 68.9799 462.775 68.9799C462.782 68.9799 462.789 68.9799 462.796 68.9799C463.996 68.9465 465.032 67.6882 465.042 67.6758L465.21 67.8125C465.166 67.8673 464.1 69.1607 462.802 69.1963C462.794 69.1968 462.785 69.1968 462.775 69.1968Z" fill="#131F2D"/>
<path d="M464.227 138.363C464.654 139.059 465.525 139.252 466.172 138.792C466.82 138.332 466.998 137.394 466.571 136.697C466.144 136 465.366 135.614 464.719 136.074C463.803 136.725 463.799 137.666 464.227 138.363Z" fill="#131F2D"/>
<path d="M461.318 116.067C461.622 116.835 462.446 117.192 463.16 116.865C463.874 116.538 464.206 115.65 463.902 114.882C463.598 114.113 462.898 113.584 462.184 113.911C461.174 114.374 461.014 115.298 461.318 116.067Z" fill="#131F2D"/>
<path d="M458.489 93.5202C458.793 94.2886 459.618 94.6457 460.331 94.3186C461.045 93.9914 461.377 93.1032 461.073 92.3348C460.769 91.5664 460.069 91.037 459.356 91.3641C458.346 91.8275 458.185 92.7524 458.489 93.5202Z" fill="#131F2D"/>
<path d="M459.384 60.1606C446.358 60.1736 434.867 68.017 431.323 64.5112C430.486 63.6834 434.907 36.0247 434.907 36.0247L424.169 36.3981C424.169 36.3981 403.372 72.1365 414.125 83.9061C427.309 98.3381 446.657 89.5398 446.657 89.5398C446.657 89.5398 466.055 60.1538 459.384 60.1606Z" fill="#657285"/>
<path d="M454.501 44.345L428.133 39.1532C426.79 38.8888 425.9 37.5017 426.145 36.0558L426.666 32.9901C426.912 31.5437 428.2 30.586 429.543 30.8504L455.911 36.0423C457.255 36.3067 458.145 37.6938 457.899 39.1396L457.378 42.2048C457.132 43.6512 455.844 44.6095 454.501 44.345Z" fill="#131F2D"/>
<path d="M437.64 44.0288L412.193 39.0189C410.436 38.6731 409.272 36.8583 409.593 34.9661L410.756 28.1188C411.078 26.2266 412.763 24.9734 414.52 25.3192L439.967 30.3291C441.725 30.6749 442.889 32.4897 442.568 34.3819L441.405 41.2292C441.083 43.1214 439.398 44.3751 437.64 44.0288Z" fill="#364154"/>
<path d="M416.584 41.8573L376.227 33.9116C374.786 33.628 373.832 32.1409 374.096 30.5899L376.118 18.6864C376.382 17.1355 377.762 16.1083 379.203 16.3919L419.561 24.3376C421.001 24.6212 421.956 26.1083 421.692 27.6593L419.669 39.5628C419.406 41.1132 418.024 42.1404 416.584 41.8573Z" fill="#00A3FE"/>
<path d="M373.753 34.8119L371.749 34.4175C370.645 34.2 369.913 33.0598 370.115 31.871L372.865 15.683C373.067 14.4943 374.125 13.7066 375.23 13.9242L377.234 14.3185C378.338 14.5361 379.069 15.6762 378.868 16.865L376.118 33.053C375.916 34.2418 374.857 35.0294 373.753 34.8119Z" fill="#131F2D"/>
<path d="M429.792 25.6108C429.792 25.6108 427.078 24.3232 426.003 26.9991C424.634 30.4083 425.965 36.0685 426.86 33.921C427.654 32.0169 428.017 29.8495 428.017 29.8495C428.017 29.8495 426.942 36.6567 428.502 36.3912C430.062 36.1256 430.984 30.5852 430.984 30.5852C430.984 30.5852 430.49 37.1002 431.889 36.3358C433.287 35.5713 433.996 31.6937 433.996 31.6937C433.996 31.6937 433.303 36.9545 434.908 36.025C436.513 35.0956 436.268 31.1914 436.515 29.5116C436.748 27.924 435.873 27.2482 434.435 27.1155C434.435 27.1155 433.074 26.0871 432.114 26.2555C431.747 26.3205 431.452 25.903 431.198 25.8261C430.715 25.6792 429.792 25.6108 429.792 25.6108Z" fill="#FF7955"/>
<path d="M474.075 174.553C473.983 174.553 473.895 174.498 473.857 174.407C470.329 165.942 462.574 164.954 462.496 164.945C462.366 164.93 462.273 164.812 462.288 164.683C462.304 164.553 462.419 164.462 462.551 164.475C462.631 164.484 470.661 165.507 474.294 174.224C474.344 174.345 474.287 174.484 474.166 174.534C474.137 174.547 474.106 174.553 474.075 174.553Z" fill="#131F2D"/>
<path d="M437.906 92.1163H437.904C437.773 92.1152 437.668 92.0084 437.669 91.8773C437.741 82.8965 438.311 77.403 438.316 77.3488C438.331 77.2182 438.443 77.1245 438.577 77.138C438.707 77.1516 438.801 77.2685 438.788 77.3985C438.782 77.4527 438.215 82.9254 438.143 91.8813C438.141 92.0118 438.036 92.1163 437.906 92.1163Z" fill="#131F2D"/>
<path d="M463.758 61.3841C463.758 61.3841 469.375 58.954 470.402 56.7335C471.429 54.513 477.53 59.2574 477.487 60.7586C477.443 62.2598 466.227 71.1321 465.491 70.1163C464.754 69.1004 462.421 62.8695 463.758 61.3841Z" fill="#364154"/>
<path d="M463.758 61.3823C463.758 61.3823 462.817 59.1426 463.179 57.8877C463.179 57.8877 463.407 56.7882 462.541 56.9029C461.676 57.0176 457.089 60.7868 456.714 61.8908C456.34 62.9948 456.471 68.0861 458.014 68.3906C459.558 68.6952 463.029 63.0609 463.441 62.5005C463.853 61.9405 463.758 61.3823 463.758 61.3823Z" fill="#364154"/>
<path d="M275.748 279.43C277.499 276.788 268.401 267.835 268.401 267.835C267.495 267.376 256.258 283.657 239.97 281.297C234.169 280.456 224.886 271.53 224.088 270.095C223.982 269.904 212.649 276.891 212.649 276.891C214.095 279.49 215.202 289.381 222.07 294.129C236.279 303.952 257.814 301.229 275.748 279.43Z" fill="#FF7955"/>
<path d="M214.393 465.3C214.393 465.3 214.613 469.861 217.514 471.064C220.414 472.268 228.754 473.188 225.722 476.212C223.982 477.947 215.558 477.104 213.187 477.173C210.816 477.242 208.618 478.419 206.813 476.762C204.828 474.938 206.532 465.528 206.532 465.528C206.532 465.528 208.607 466.616 210.445 466.511C213.095 466.36 214.393 465.3 214.393 465.3Z" fill="#131F2D"/>
<path d="M235.29 338.919C235.29 338.919 236.776 347.441 231.66 387.126C227.968 415.776 223.485 444.667 221.277 458.52C220.487 463.475 216.728 467.191 212.169 467.521L209.72 467.697C204.792 468.054 200.673 463.607 200.897 458.172L204.755 364.774L205.512 334.049L235.29 338.919Z" fill="#364154"/>
<path d="M187.229 466.087C187.229 466.087 187.449 470.648 190.35 471.851C193.25 473.055 201.59 473.976 198.558 476.999C196.818 478.735 188.394 477.891 186.023 477.96C183.652 478.029 181.454 479.206 179.649 477.549C177.664 475.725 179.368 466.315 179.368 466.315C179.368 466.315 181.443 467.403 183.281 467.298C185.93 467.147 187.229 466.087 187.229 466.087Z" fill="#131F2D"/>
<path d="M208.524 327.651C208.524 327.651 209.613 348.229 204.498 387.914C200.805 416.563 196.322 445.454 194.115 459.307C193.325 464.262 189.565 467.978 185.007 468.308L182.557 468.485C177.629 468.841 173.511 464.394 173.735 458.959L177.592 365.561L178.35 334.836L208.524 327.651Z" fill="#364154"/>
<path d="M175.758 351.19C175.879 353.672 191.002 348.254 208.247 347.173C225.493 346.092 237.012 339.826 236.89 337.344C236.769 334.861 224.144 335.799 206.898 336.88C189.652 337.96 175.636 348.707 175.758 351.19Z" fill="#131F2D"/>
<path d="M168.868 281.502C168.868 281.502 169.79 268.102 191.96 263.792C223.929 257.576 226.111 289.791 236.89 337.343C236.89 337.343 204.526 338.391 175.792 350.914C175.792 350.914 165.107 302.42 168.868 281.502Z" fill="#016EB9"/>
<path d="M160.379 281.204L176.275 287.107C176.275 287.107 208.514 284.232 216.695 281.151C224.876 278.07 226.106 270.975 226.106 270.975C226.106 270.975 215.509 262.67 199.825 262.874C198.351 262.891 196.835 262.985 195.276 263.168C192.66 263.476 190.076 264 187.594 264.785C168.646 270.771 160.379 281.204 160.379 281.204Z" fill="#016EB9"/>
<path d="M188.432 261.43L189.161 255.294L189.373 253.508L190.62 243.005L192.608 252.844L193.8 258.75L194.178 260.62C194.434 261.889 195.201 262.021 196.263 262.966C196.693 263.349 199.419 265.648 197.028 267.368C194.049 269.512 187.637 268.323 184.847 265.71C184.865 265.702 188.196 263.412 188.432 261.43Z" fill="#FF7955"/>
<path d="M235.29 338.919C235.29 338.919 220.913 338.149 177.93 351.834L177.763 358.611L234.595 359.123L235.29 338.919Z" fill="#364154"/>
<path d="M160.136 281.621C159.212 283.724 161.622 287.08 165.521 289.118C169.419 291.155 173.329 291.102 174.254 288.999C175.179 286.896 172.768 283.539 168.869 281.502C164.97 279.465 161.06 279.518 160.136 281.621Z" fill="#131F2D"/>
<path d="M168.348 357.393C167.112 341.329 166.499 318.143 170.594 298.918C171.544 294.464 171.966 292.778 172.864 290.275C173.587 288.26 171.111 284.597 167.923 283.229C164.931 281.944 160.774 283.03 160.253 284.043C159.367 285.765 158.63 288.884 157.497 293.83C153.562 311.015 153.001 332.361 155.735 359.231L168.348 357.393Z" fill="#FF7955"/>
<path d="M195.285 236.54C195.285 236.54 196.62 238.622 197.037 241.725C197.454 244.828 192.333 238.805 192.333 238.805L195.285 236.54Z" fill="#131F2D"/>
<path d="M197.642 242.431C195.077 237.12 189.681 234.671 185.591 236.961C181.499 239.251 180.262 245.412 182.827 250.723C185.391 256.034 190.787 258.483 194.878 256.194C198.969 253.904 200.206 247.742 197.642 242.431Z" fill="#FF7955"/>
<path d="M181.646 247.884L185.3 245.973C186.104 245.553 186.704 244.771 186.899 243.832C187.234 242.216 187.943 241.176 191.534 239.932C196.081 238.356 198.07 234.317 197.701 231.6C197.324 228.827 194.438 227.978 192.6 230.09C190.763 232.203 190.711 228.807 188.436 229.336C184.185 230.324 184.562 233.981 181.21 235.17C176.816 236.729 170.231 243.334 176.707 250.125L181.646 247.884Z" fill="#131F2D"/>
<path d="M190.503 245.989C190.534 245.945 190.547 245.887 190.532 245.83C190.507 245.732 190.415 245.675 190.325 245.702C190.272 245.718 189.01 245.953 188.871 247.543C188.862 247.643 188.927 247.734 189.02 247.745C189.113 247.756 189.177 247.68 189.208 247.584C189.513 246.631 190.37 246.067 190.414 246.054C190.451 246.043 190.481 246.02 190.503 245.989Z" fill="#080435"/>
<path d="M190.555 248.457C190.788 248.812 191.171 248.952 191.41 248.77C191.65 248.588 191.655 248.152 191.422 247.797C191.188 247.443 190.806 247.302 190.566 247.484C190.327 247.666 190.322 248.101 190.555 248.457Z" fill="#080435"/>
<path d="M196.214 243.177C196.249 243.155 196.271 243.113 196.271 243.057C196.272 242.965 196.209 242.872 196.131 242.85C196.085 242.837 195.021 242.423 194.577 243.683C194.549 243.763 194.582 243.869 194.654 243.924C194.727 243.978 194.794 243.946 194.839 243.881C195.284 243.233 196.091 243.177 196.129 243.187C196.161 243.196 196.191 243.191 196.214 243.177Z" fill="#080435"/>
<path d="M195.358 245.499C195.447 245.923 195.752 246.21 196.038 246.14C196.324 246.07 196.483 245.669 196.393 245.245C196.303 244.821 195.998 244.534 195.712 244.605C195.427 244.675 195.268 245.076 195.358 245.499Z" fill="#080435"/>
<path d="M176.706 250.125C176.706 250.125 181.387 255.191 185.257 254.181C185.257 254.181 180.681 250.716 186.064 245.403C186.064 245.403 179.911 246.697 176.706 250.125Z" fill="#131F2D"/>
<path d="M183.086 251.434C184.066 251.668 185.016 251.093 185.21 250.151C185.404 249.208 184.767 248.255 183.788 248.022C182.808 247.788 181.857 248.363 181.663 249.305C181.469 250.248 182.106 251.2 183.086 251.434Z" fill="#FF7955"/>
<path d="M186.064 245.403C186.064 245.403 187.284 250.715 188.577 251.303C189.87 251.892 196.394 249.807 198.954 247.402C200.113 250.666 198.942 254.408 196.118 256.13C195.183 256.699 194.154 257.104 193.067 257.312C190.849 257.737 188.508 257.602 186.944 255.856C186.469 255.325 185.913 251.128 185.913 251.128C185.913 251.128 185.426 248.728 183.787 248.022C183.787 248.022 184.747 246.081 186.064 245.403Z" fill="#131F2D"/>
<path d="M191.414 229.99C190.645 229.99 190.324 229.279 190.32 229.27L190.537 229.176C190.552 229.212 190.945 230.063 191.958 229.628L192.052 229.845C191.811 229.948 191.599 229.99 191.414 229.99Z" fill="#131F2D"/>
<path d="M192.35 238.077L192.276 237.984C192.287 237.976 193.37 237.118 194.35 235.932C195.249 234.844 196.245 233.249 195.882 231.83C195.681 231.042 195.388 230.588 194.988 230.44C194.373 230.213 193.598 230.758 192.914 231.238C192.807 231.314 192.702 231.387 192.601 231.455L192.535 231.358C192.636 231.289 192.74 231.216 192.846 231.142C193.554 230.644 194.358 230.081 195.03 230.329C195.469 230.491 195.785 230.973 195.997 231.801C196.713 234.601 192.528 237.936 192.35 238.077Z" fill="white"/>
<path d="M179.668 236.848L179.641 236.733C184.53 235.587 185.82 231.889 185.833 231.852L185.944 231.89C185.932 231.927 184.621 235.687 179.668 236.848Z" fill="white"/>
<path d="M197.644 250.08C197.644 250.08 195.547 251.352 193.036 251.788C193.036 251.788 193.95 254.089 196.322 252.915C197.701 252.232 197.644 250.08 197.644 250.08Z" fill="white"/>
<path d="M162.45 352.133C161.726 353.088 161.859 354.507 162.745 355.287L170.233 361.807C171.119 362.587 175.062 364.82 175.787 363.865C176.511 362.911 174.079 359.683 173.298 358.781C171.497 356.701 168.715 351.792 166.878 349.749C166.08 348.864 163.174 351.178 162.45 352.133Z" fill="#FF7955"/>
<path d="M155.122 352.039C155.122 352.039 153.844 357.045 154.136 364.508C154.224 366.777 168.206 367.001 168.768 364.529C169.33 362.058 166.947 354.068 166.947 354.068L155.122 352.039Z" fill="#FF7955"/>
<path d="M165.51 357.458C165.51 357.458 169 355.005 170.224 359.566C172.212 366.976 170.446 384.621 166.595 365.541C166.519 365.164 168.196 377.178 165.705 376.486C163.214 375.795 162.173 365.066 162.173 365.066C162.173 365.066 162.964 376.527 160.807 375.053C158.649 373.58 157.319 366.128 157.319 366.128C157.319 366.128 158.824 375.688 156.143 374.318C154.314 373.384 154.209 365.426 154.05 362.661C153.9 360.048 155.416 359.098 157.767 359.123C157.767 359.123 160.122 357.683 161.654 358.117C162.241 358.283 162.779 357.656 163.2 357.573C164.005 357.415 165.51 357.458 165.51 357.458Z" fill="#FF7955"/>
<path d="M203.676 395.987L203.294 395.939C203.315 395.77 205.409 378.906 206.987 372.85C208.58 366.74 215.911 361.466 215.984 361.413L216.208 361.727C216.135 361.778 208.917 366.973 207.36 372.947C205.788 378.979 203.697 395.817 203.676 395.987Z" fill="#131F2D"/>
<path d="M268.626 274.512C269.765 274.646 270.797 273.752 270.921 272.526L271.914 262.214C272.038 260.988 271.626 256.212 270.488 256.079C269.35 255.946 268.164 259.901 267.887 261.098C267.25 263.857 264.945 269.045 264.356 271.817C264.102 273.019 267.488 274.379 268.626 274.512Z" fill="#FF7955"/>
<path d="M272.55 281.179C272.55 281.179 277.145 279.603 282.795 275.27C284.513 273.952 277.063 261.213 274.832 262.053C272.601 262.893 267.68 269.402 267.68 269.402L272.55 281.179Z" fill="#FF7955"/>
<path d="M271.105 268.847C271.105 268.847 267.291 267.036 270.175 263.444C274.86 257.609 289.561 249.581 276.806 263.461C276.554 263.736 284.993 255.67 285.813 258.296C286.633 260.921 278.847 267.711 278.847 267.711C278.847 267.711 287.34 260.748 287.369 263.498C287.398 266.248 282.322 271.513 282.322 271.513C282.322 271.513 288.944 264.941 289.34 268.108C289.61 270.268 283.471 274.702 281.405 276.353C279.453 277.913 277.886 277.064 276.624 274.928C276.624 274.928 274.218 273.589 273.721 271.97C273.53 271.349 272.748 271.205 272.454 270.871C271.892 270.23 271.105 268.847 271.105 268.847Z" fill="#FF7955"/>
<path d="M49.8032 494.347C49.8032 494.347 61.0479 432.076 62.7904 430.249C64.5323 428.422 67.2251 430.046 66.2748 433.496C65.3245 436.946 52.2502 493.088 51.7038 494.347C51.1761 495.562 49.4874 496.088 49.8032 494.347Z" fill="#131F2D"/>
<path d="M121.753 412.832C121.837 401.731 96.338 368.361 83.0575 364.201C68.0193 359.491 48.7402 350.935 43.0766 366.398C37.413 381.861 56.3847 429.491 56.3847 429.491C56.3847 429.491 57.4385 433.722 61.2816 434.196C65.1248 434.668 112.462 436.327 112.536 434.196C112.582 432.837 128.445 415.101 121.753 412.832Z" fill="#B8C1C9"/>
<path d="M114.608 338.319C114.608 338.319 132.27 367.994 155.829 374.967L151.611 385.191C151.611 385.191 121.728 380.79 104.625 349.716L114.608 338.319Z" fill="#FF7955"/>
<path d="M132.879 487.014C132.879 487.014 132.748 491.816 135.693 493.346C138.639 494.875 147.309 496.609 143.89 499.5C141.927 501.159 133.162 499.498 130.671 499.352C128.18 499.205 125.781 500.236 124.021 498.333C122.085 496.238 124.62 486.529 124.62 486.529C124.62 486.529 126.708 487.861 128.644 487.921C131.434 488.006 132.879 487.014 132.879 487.014Z" fill="#131F2D"/>
<path d="M163.531 486.983C163.531 486.983 163.399 491.785 166.345 493.315C169.29 494.844 177.96 496.578 174.541 499.469C172.579 501.128 163.813 499.467 161.323 499.321C158.831 499.174 156.433 500.206 154.673 498.302C152.737 496.208 155.272 486.499 155.272 486.499C155.272 486.499 157.36 487.83 159.296 487.89C162.085 487.975 163.531 486.983 163.531 486.983Z" fill="#131F2D"/>
<path d="M166.762 479.052C164.557 447.594 164.037 426.368 154.791 412.731C144.671 397.806 117.541 387.25 107.08 386.591C90.0205 385.518 81.9822 388.252 81.9822 388.252C69.1774 416.92 89.2346 420.723 104.071 421.508C104.561 421.534 105.053 421.563 105.547 421.597C114.53 422.206 130.501 424.662 136.546 434.272C141.333 441.881 144.655 452.564 146.056 480.119C146.325 485.406 150.445 489.507 155.361 489.362C155.36 489.361 167.555 490.366 166.762 479.052Z" fill="#016EB9"/>
<path d="M142.549 480.671C142.839 449.126 143.749 433.021 134.955 419.042C129.305 410.061 120.809 403.281 109.701 398.892C101.774 395.76 92.4505 393.838 81.9894 393.179C64.9302 392.106 57.2647 389.887 57.2647 389.887C43.4582 426.584 93.9613 418.794 107.109 434.429C112.838 441.242 119.936 454.198 121.337 481.753C121.606 487.041 125.726 491.142 130.643 490.997C130.643 490.997 142.443 492.205 142.549 480.671Z" fill="#016EB9"/>
<path d="M142.461 449.688C142.452 449.5 141.586 430.785 138.672 424.247C134.987 415.976 124.291 407.34 113.239 403.712L113.303 403.519C124.404 407.163 135.151 415.846 138.858 424.164C141.786 430.737 142.655 449.49 142.663 449.68L142.461 449.688Z" fill="#020202"/>
<path d="M69.3658 331.621C69.3658 331.621 76.6234 318.265 93.3538 322.364C110.084 326.462 116.9 344.859 118.099 389.039C118.099 389.039 102.61 388.427 61.9156 402.958C57.0956 404.68 50.0251 403.314 52.4999 394.474C57.1007 378.041 61.5569 345.263 69.3658 331.621Z" fill="#00A3FE"/>
<path d="M54.5825 335.278L68.1709 339.005C68.1709 339.005 98.2632 348.586 106.687 348.662C115.112 348.738 118.598 342.105 118.598 342.105C118.598 342.105 111.804 329.688 97.5631 323.83C96.2258 323.278 94.824 322.786 93.355 322.366C90.8881 321.663 88.3818 321.048 85.872 321.017C57.4652 320.666 54.5825 335.278 54.5825 335.278Z" fill="#00A3FE"/>
<path d="M54.5822 335.276C54.615 336.79 58.7203 338.01 63.7517 338C68.7831 337.99 72.8348 336.755 72.802 335.24C72.7693 333.726 68.6639 332.507 63.6325 332.517C58.6012 332.526 54.5489 333.762 54.5822 335.276Z" fill="#131F2D"/>
<path d="M79.2588 321.224C81.0657 320.827 82.3663 319.483 82.9319 317.594L84.7044 311.671L85.2185 309.952L88.2424 299.846L88.4594 309.976L88.5888 316.057L88.6255 317.79C88.6554 319.204 88.7057 321.01 90.0939 321.534C90.0939 321.534 91.8647 324.792 89.7725 325.683C86.4881 327.082 79.2492 321.227 79.2588 321.224Z" fill="#FF7955"/>
<path d="M74.8145 300.9C74.8145 300.9 75.5727 302.396 75.5535 305.927C75.5252 311.093 81.1272 311.591 82.081 309.838C82.1991 309.621 79.9074 301.525 79.9074 301.525L78.0146 300.965L74.8145 300.9Z" fill="#131F2D"/>
<path d="M84.6796 311.506C84.6864 311.561 84.6942 311.617 84.7039 311.671C85.2135 314.892 88.5696 316.077 88.5696 316.077L88.5877 316.057L88.4583 309.976C87.4391 309.689 86.0006 309.433 85.218 309.953C84.809 310.224 84.5796 310.706 84.6796 311.506Z" fill="#131F2D"/>
<path d="M88.5109 312.346C93.3051 311.384 96.1633 305.481 94.8949 299.163C93.6264 292.844 88.7117 288.501 83.9175 289.464C79.1233 290.426 76.2651 296.329 77.5335 302.648C78.8019 308.966 83.7167 313.309 88.5109 312.346Z" fill="#FF7955"/>
<path d="M87.4229 291.253C87.2749 291.67 90.0943 297.086 80.4463 301.427C70.7982 305.768 73.4791 290.931 80.7835 288.457C91.3299 284.885 94.846 292.14 94.529 295.218C94.2126 298.296 87.4229 291.253 87.4229 291.253Z" fill="#131F2D"/>
<path d="M72.3844 288.161C72.3844 288.161 76.6621 289.696 74.5054 292.967C72.3488 296.238 64.9755 299.566 68.1141 303.085C71.2521 306.602 74.6195 312.192 71.0606 314.066C67.5022 315.94 65.0608 316.331 64.3506 319.998C63.6404 323.665 56.3212 323.685 55.9026 319.694C55.4839 315.702 48.7869 314.059 50.3927 309.799C51.9984 305.538 57.3354 300.671 57.6948 295.626C58.0536 290.582 68.9582 287.033 72.3844 288.161Z" fill="#131F2D"/>
<path d="M81.0783 299.251C81.0783 299.251 78.173 305.096 80.7986 309.42C80.7986 309.42 77.7176 307.332 77.4001 306.306C77.0826 305.281 76.7549 301.336 76.7549 301.336L81.0783 299.251Z" fill="#131F2D"/>
<path d="M79.329 304.799C80.5449 305.505 81.9178 305.209 82.3958 304.137C82.8738 303.066 82.2755 301.625 81.0602 300.919C79.8443 300.213 78.4713 300.509 77.9933 301.581C77.5153 302.652 78.1131 304.093 79.329 304.799Z" fill="#FF7955"/>
<path d="M58.6003 322.994L58.4121 322.758C59.1986 322.132 59.6037 321.534 59.6512 320.932C59.724 320 58.9364 319.142 58.103 318.233C57.294 317.352 56.4578 316.44 56.3391 315.367C56.1883 314 57.6149 313.27 58.9952 312.563C60.0517 312.023 61.1445 311.463 61.3976 310.656C61.5163 310.277 61.4501 309.861 61.1959 309.384C60.8834 308.798 60.5501 308.283 60.2275 307.785C58.7692 305.533 57.6171 303.754 60.0817 298.213C63.2112 291.177 66.9493 289.781 70.5219 289.321C70.9541 289.266 72.3124 289.495 72.5215 290.24C72.7311 290.986 71.6959 291.873 69.4455 292.877C69.4218 292.891 65.7538 295.039 65.0233 300.168C64.6447 302.824 66.6606 304.921 68.4392 306.771C70.0891 308.487 71.5141 309.969 70.1965 311.332C69.4789 312.075 68.6201 312.618 67.7901 313.144C65.695 314.47 63.7169 315.723 64.4989 319.972L64.2011 320.026C63.3819 315.578 65.4448 314.271 67.6279 312.888C68.4432 312.372 69.2868 311.838 69.9789 311.122C71.0943 309.968 69.8263 308.65 68.2212 306.98C66.4849 305.175 64.3249 302.928 64.7238 300.125C65.4764 294.843 69.271 292.629 69.3094 292.607C72.1683 291.332 72.3039 290.585 72.2305 290.322C72.0898 289.821 70.9739 289.568 70.5603 289.622C67.0753 290.07 63.4271 291.437 60.358 298.336C57.9595 303.727 59.0726 305.446 60.4812 307.621C60.8072 308.124 61.1439 308.645 61.462 309.242C61.7563 309.795 61.8298 310.287 61.6857 310.747C61.3947 311.675 60.2444 312.263 59.1325 312.832C57.7844 313.522 56.5114 314.174 56.6397 315.334C56.7471 316.308 57.5494 317.183 58.3257 318.029C59.2054 318.987 60.036 319.893 59.9529 320.955C59.8987 321.646 59.4562 322.313 58.6003 322.994Z" fill="white"/>
<path d="M79.4922 297.971L79.3877 297.644C83.015 296.483 84.0727 292.743 84.0829 292.705L84.4134 292.795C84.4033 292.835 83.2947 296.754 79.4922 297.971Z" fill="white"/>
<path d="M94.4517 306.109C92.4646 306.284 90.6752 304.366 90.4622 301.833C90.3481 300.475 90.7074 299.153 91.4481 298.204C92.038 297.449 92.8313 296.992 93.6811 296.917C95.6682 296.74 97.4576 298.659 97.6706 301.192C97.7847 302.55 97.4254 303.872 96.6847 304.82C96.2264 305.407 95.645 305.814 95.0094 306.002C94.8274 306.056 94.641 306.092 94.4517 306.109ZM91.6103 298.351C90.9057 299.253 90.5645 300.514 90.673 301.812C90.8752 304.221 92.5623 306.047 94.4342 305.881C95.2275 305.811 95.9694 305.383 96.5225 304.674C97.2271 303.772 97.5683 302.511 97.4593 301.213C97.257 298.804 95.5699 296.979 93.698 297.145C93.5217 297.16 93.3489 297.193 93.1794 297.244C92.5855 297.418 92.0408 297.8 91.6103 298.351Z" fill="#364154"/>
<path d="M85.9024 307.292C83.9153 307.467 82.1259 305.55 81.9129 303.016C81.7988 301.658 82.1581 300.335 82.8988 299.387C83.4887 298.632 84.282 298.175 85.1317 298.099C87.1189 297.924 88.9083 299.841 89.1213 302.375C89.2354 303.733 88.8761 305.055 88.1353 306.003C87.6771 306.59 87.0957 306.997 86.4606 307.185C86.2787 307.239 86.0917 307.275 85.9024 307.292ZM83.061 299.534C82.3564 300.436 82.0146 301.697 82.1242 302.995C82.3265 305.404 84.0136 307.229 85.8854 307.064C86.6787 306.994 87.42 306.565 87.9737 305.857C88.6783 304.955 89.0195 303.694 88.9105 302.396C88.7082 299.987 87.0211 298.162 85.1493 298.328C84.973 298.344 84.7995 298.376 84.63 298.427C84.0362 298.601 83.4915 298.983 83.061 299.534Z" fill="#364154"/>
<path d="M91.5766 301.954C91.6088 301.944 91.6359 301.919 91.6483 301.883C91.6686 301.824 91.6404 301.758 91.5856 301.736C91.5308 301.715 90.225 301.216 88.3905 302.09C88.3368 302.116 88.3125 302.183 88.3363 302.241C88.36 302.298 88.4221 302.325 88.4758 302.299C90.2279 301.464 91.4997 301.945 91.5121 301.95C91.5342 301.959 91.5562 301.96 91.5766 301.954Z" fill="#364154"/>
<path d="M92.8226 306.843C92.8226 306.843 89.9355 307.773 86.75 307.533C86.75 307.533 87.2941 310.687 90.4937 309.964C92.3543 309.544 92.8226 306.843 92.8226 306.843Z" fill="#E9633E"/>
<path d="M92.8226 306.843C92.8226 306.843 92.2797 307.679 90.6372 308.156C88.9948 308.633 86.75 307.533 86.75 307.533C86.75 307.533 90.5152 307.534 92.8226 306.843Z" fill="white"/>
<path d="M87.1143 300.785C87.1668 300.752 87.2047 300.693 87.2115 300.623C87.2239 300.505 87.1453 300.398 87.0352 300.384C86.9702 300.376 85.4848 300.04 84.6836 301.725C84.6333 301.831 84.6678 301.961 84.7656 302.018C84.8633 302.074 84.965 302.02 85.0373 301.93C85.7622 301.024 86.9358 300.808 86.9894 300.814C87.0352 300.819 87.0781 300.808 87.1143 300.785Z" fill="#080435"/>
<path d="M86.1662 303.528C86.278 304.029 86.6425 304.365 86.9803 304.277C87.3182 304.19 87.5013 303.713 87.3894 303.212C87.2775 302.71 86.9131 302.375 86.5752 302.462C86.2373 302.549 86.0543 303.026 86.1662 303.528Z" fill="#080435"/>
<path d="M94.2963 299.833C94.3568 299.823 94.4121 299.785 94.4438 299.723C94.4969 299.618 94.4625 299.487 94.3653 299.43C94.3082 299.396 93.0533 298.475 91.7165 299.705C91.6323 299.782 91.6182 299.917 91.6888 300.009C91.7595 300.101 91.8725 300.092 91.9713 300.039C92.9618 299.499 94.1235 299.78 94.1715 299.808C94.2105 299.831 94.2545 299.839 94.2963 299.833Z" fill="#080435"/>
<path d="M92.4495 301.978C92.3754 302.487 92.5941 302.947 92.937 303.005C93.28 303.062 93.6184 302.696 93.6924 302.187C93.7665 301.678 93.5478 301.218 93.2048 301.161C92.8613 301.103 92.5235 301.469 92.4495 301.978Z" fill="#080435"/>
<path d="M117.41 502.218L116.858 502.16C116.428 502.115 116.107 501.351 116.141 500.452L120.422 386.86L128.557 382.523L118.695 499.929C118.623 501.273 118.054 502.285 117.41 502.218Z" fill="#131F2D"/>
<path d="M241.245 502.218L241.797 502.16C242.227 502.115 242.548 501.351 242.514 500.452L238.233 386.86L230.098 382.523L239.96 499.929C240.032 501.273 240.6 502.285 241.245 502.218Z" fill="#131F2D"/>
<path d="M176.001 402.532C216.831 402.532 249.931 397.92 249.931 392.23C249.931 386.541 216.831 381.929 176.001 381.929C135.171 381.929 102.072 386.541 102.072 392.23C102.072 397.92 135.171 402.532 176.001 402.532Z" fill="#B8C1C9"/>
<path d="M249.931 387.481H102.072V392.231H249.931V387.481Z" fill="#B8C1C9"/>
<path d="M176.001 397.783C216.831 397.783 249.931 393.171 249.931 387.482C249.931 381.793 216.831 377.181 176.001 377.181C135.171 377.181 102.072 381.793 102.072 387.482C102.072 393.171 135.171 397.783 176.001 397.783Z" fill="#D5D6DA"/>
<path d="M228.937 394.942C228.804 394.942 228.688 394.845 228.669 394.709C228.647 394.561 228.751 394.424 228.899 394.402C235.092 393.517 240.037 392.498 243.596 391.373C243.74 391.329 243.891 391.408 243.936 391.55C243.981 391.693 243.901 391.845 243.759 391.89C240.172 393.024 235.197 394.05 228.976 394.939C228.963 394.941 228.95 394.942 228.937 394.942Z" fill="#131F2D"/>
<path d="M114.609 393.494C114.59 393.494 114.57 393.491 114.551 393.487C114.253 393.422 107.247 391.881 104.498 390.414C104.366 390.344 104.316 390.179 104.386 390.048C104.457 389.915 104.622 389.865 104.753 389.936C107.436 391.367 114.594 392.942 114.666 392.957C114.812 392.989 114.905 393.134 114.873 393.28C114.846 393.407 114.733 393.494 114.609 393.494Z" fill="#131F2D"/>
<path d="M111.05 376.719C111.05 376.719 119.932 373.12 122.873 374.421C125.815 375.722 128.658 379.78 126.676 379.39C124.693 379 122.288 377.748 122.288 377.748C122.288 377.748 127.31 380.683 126.164 381.65C125.018 382.617 120.673 380.02 120.673 380.02C120.673 380.02 126.39 384.024 125.033 384.56C123.675 385.096 119.352 382.022 119.352 382.022C119.352 382.022 124.533 385.976 122.943 386.559C121.352 387.142 118.68 383.261 117.535 384.229C116.389 385.196 113.554 389.502 110.667 386.4L111.05 376.719Z" fill="#FF7955"/>
<path d="M74.5962 377.203C84.6669 386.699 94.5624 388.542 110.668 386.401L111.051 376.719C99.3248 378.279 91.1317 371.546 84.3804 365.179C74.7781 356.121 71.9587 342.096 71.1587 335.748C71.083 335.146 70.7061 334.641 70.1761 334.432C68.4178 333.74 64.0515 332.6 57.4432 334.671C56.855 334.856 56.46 335.452 56.4872 336.11C56.9764 348.178 61.9135 365.243 74.5962 377.203Z" fill="#FF7955"/>
<g opacity="0.3">
<path d="M76.5835 373.789C76.5185 373.789 76.4524 373.786 76.3851 373.781C75.4936 373.709 74.5512 373.144 73.8641 372.271C72.6821 370.768 72.5623 368.772 73.5974 367.82C74.0104 367.44 74.5483 367.264 75.1574 367.315C76.049 367.386 76.9914 367.95 77.679 368.824C78.8616 370.327 78.9814 372.323 77.9457 373.275C77.5785 373.613 77.1107 373.789 76.5835 373.789ZM74.963 367.881C74.5805 367.881 74.2455 368.005 73.9867 368.243C73.1674 368.996 73.3149 370.644 74.3161 371.916C74.906 372.666 75.697 373.148 76.4315 373.208C76.8739 373.245 77.2649 373.121 77.557 372.852C78.3763 372.099 78.2282 370.451 77.2276 369.179C76.6378 368.429 75.8467 367.947 75.1117 367.888C75.0614 367.884 75.0116 367.881 74.963 367.881Z" fill="#EC865C"/>
</g>
<path d="M128.296 388.1H158.47C159.102 388.1 159.663 387.668 159.863 387.027L166.133 366.865C166.449 365.85 165.742 364.802 164.741 364.802H135.723C134.401 364.802 133.226 365.707 132.809 367.049L126.903 386.037C126.588 387.052 127.295 388.1 128.296 388.1Z" fill="#131F2D"/>
<path d="M130.189 388.1H160.364C160.996 388.1 161.557 387.668 161.756 387.027L168.027 366.865C168.342 365.85 167.636 364.802 166.634 364.802H137.616C136.294 364.802 135.12 365.707 134.703 367.049L128.797 386.037C128.482 387.052 129.189 388.1 130.189 388.1Z" fill="#131F2D"/>
<path d="M151.332 375.791C151.332 375.025 150.512 374.713 149.796 374.713C149.08 374.713 147.911 375.553 147.918 376.626C147.926 377.783 148.767 377.934 149.482 377.934C150.198 377.934 151.332 376.765 151.332 375.791Z" fill="#DAEBE8"/>
<path d="M119.231 385.25H160.379V388.099H118.302C117.772 388.099 117.342 387.669 117.342 387.139C117.342 386.096 118.188 385.25 119.231 385.25Z" fill="#131F2D"/>
<path d="M132.339 374.993L132.142 374.944C132.203 374.697 133.643 368.882 134.613 367.003C135.598 365.096 136.805 364.72 136.855 364.705L136.914 364.9C136.902 364.903 135.736 365.273 134.794 367.096C133.834 368.954 132.354 374.933 132.339 374.993Z" fill="#366F90"/>
<path d="M127.875 385.353V385.149C128.86 385.149 129.104 384.71 129.107 384.705L131.453 377.16L131.647 377.221L129.295 384.782C129.277 384.819 128.998 385.353 127.875 385.353Z" fill="#366F90"/>
<g opacity="0.4">
<path d="M631.622 14.673C631.622 14.673 623.62 -1.89636 603.372 0.180037C583.124 2.25643 585.534 18.8654 575.893 17.3082C566.251 15.751 552.753 17.3082 549.86 27.689C546.967 38.0699 533.95 32.3605 533.469 41.1837C532.987 50.0074 548.413 56.2354 566.251 48.4502C584.089 40.665 592.766 54.4986 617.835 51.9934C642.903 49.4881 646.009 46.3738 660.848 47.931C675.686 49.4881 675.334 38.5502 668.584 31.2831C661.834 24.0165 634.514 24.7086 631.622 14.673Z" fill="#EAEAEA"/>
</g>
<path d="M87.5292 109.781C87.5292 109.781 92.3876 99.7209 104.682 100.981C116.976 102.242 115.513 112.327 121.367 111.382C127.222 110.436 135.418 111.382 137.174 117.685C138.931 123.988 146.834 120.521 147.127 125.878C147.419 131.236 138.052 135.017 127.221 130.291C116.391 125.563 111.122 133.963 95.9003 132.442C80.679 130.921 78.793 129.03 69.7834 129.976C60.7738 130.921 60.988 124.28 65.086 119.867C69.1845 115.454 85.7731 115.874 87.5292 109.781Z" fill="#EAEAEA"/>
<path d="M699.874 74.1823C699.874 74.1823 695.177 64.4563 683.291 65.675C671.406 66.8937 672.82 76.6435 667.161 75.7293C661.501 74.8151 653.577 75.7293 651.879 81.8229C650.181 87.9165 642.54 84.5648 642.257 89.7442C641.974 94.9237 651.03 98.5798 661.501 94.0095C671.971 89.4391 677.065 97.56 691.781 96.0893C706.496 94.6186 708.32 92.7908 717.03 93.7049C725.74 94.6191 725.533 88.1984 721.571 83.9326C717.61 79.6668 701.572 80.0731 699.874 74.1823Z" fill="#EAEAEA"/>
<path d="M299.529 11.3442C299.529 11.3442 294.398 0.718683 281.413 2.04984C268.429 3.38099 269.974 14.0325 263.791 13.0336C257.608 12.0352 248.952 13.0335 247.097 19.6905C245.242 26.3474 236.894 22.6861 236.585 28.3447C236.276 34.0032 246.169 37.9972 257.608 33.0043C269.047 28.0113 274.612 36.883 290.688 35.2767C306.764 33.6704 308.756 31.6731 318.272 32.6715C327.787 33.6698 327.561 26.6553 323.233 21.9957C318.904 17.3355 301.385 17.779 299.529 11.3442Z" fill="#EAEAEA"/>
</svg>
