<svg width="544" height="341" viewBox="0 0 544 341" fill="none" xmlns="http://www.w3.org/2000/svg">
<path d="M419.465 0C410.782 0 403.321 5.22614 400.048 12.7007C398.338 11.9797 396.458 11.5891 394.479 11.5891C386.468 11.5891 379.972 18.0859 379.972 26.0969H398.876H408.987H440.043C440.433 24.5092 440.629 22.8612 440.629 21.1638C440.629 9.47577 431.152 0 419.465 0Z" fill="#D1EEFF"/>
<path d="M86.9445 116.511C79.9064 116.511 73.8581 120.747 71.2046 126.805C69.8182 126.222 68.2944 125.905 66.691 125.905C60.1978 125.905 54.9307 131.17 54.9307 137.665H70.2547H78.4513H103.625C103.942 136.379 104.1 135.042 104.1 133.666C104.099 124.191 96.4167 116.511 86.9445 116.511Z" fill="#D1EEFF"/>
<path d="M332.525 102.268C342.003 102.268 350.148 107.974 353.722 116.132C355.588 115.346 357.641 114.919 359.8 114.919C368.545 114.919 375.638 122.011 375.638 130.755H355.002H343.964H310.063C309.636 129.022 309.423 127.223 309.423 125.37C309.423 112.611 319.767 102.268 332.525 102.268Z" fill="#D1EEFF"/>
<path d="M167.778 18.6748C175.549 18.6748 182.228 23.3536 185.158 30.0421C186.687 29.3971 188.372 29.0475 190.141 29.0475C197.312 29.0475 203.127 34.8632 203.127 42.0327H186.206H177.156H149.359C149.01 40.6113 148.835 39.1357 148.835 37.6167C148.836 27.156 157.319 18.6748 167.778 18.6748Z" fill="#D1EEFF"/>
<path d="M488.139 146.957C495.177 146.957 501.225 151.193 503.879 157.253C505.265 156.669 506.789 156.352 508.392 156.352C514.885 156.352 520.152 161.618 520.152 168.112H504.828H496.632H471.458C471.141 166.826 470.983 165.489 470.983 164.113C470.983 154.639 478.665 146.957 488.139 146.957Z" fill="#D1EEFF"/>
<path d="M315.217 291.079H308.638C308.66 290.856 308.669 290.633 308.669 290.403C308.669 285.868 304.996 282.196 300.462 282.196C298.277 282.196 296.292 283.044 294.82 284.434C292.954 281.505 289.683 279.564 285.952 279.564C280.139 279.564 275.433 284.27 275.433 290.076C275.433 290.41 275.448 290.745 275.478 291.079H273.687C272.773 291.079 271.954 291.45 271.353 292.046C270.758 292.64 270.386 293.459 270.386 294.372C270.386 296.194 271.865 297.673 273.687 297.673H278.682H293.216H296.658H304.269H315.22C316.126 297.673 316.959 297.302 317.554 296.706C318.148 296.105 318.52 295.286 318.52 294.372C318.518 292.551 317.039 291.079 315.217 291.079Z" fill="#EC7C70"/>
<path d="M318.515 294.373C318.515 295.283 318.145 296.108 317.548 296.705C316.961 297.302 316.126 297.672 315.216 297.672H273.683C271.864 297.672 270.385 296.192 270.385 294.373C270.385 293.871 270.49 293.406 270.689 292.989C271.219 294.118 272.357 294.904 273.683 294.904H315.216C316.126 294.904 316.961 294.534 317.548 293.937C317.823 293.662 318.051 293.34 318.211 292.989C318.4 293.406 318.515 293.88 318.515 294.373Z" fill="#E66B66"/>
<path d="M274.656 340.144C422.982 340.144 543.224 322.92 543.224 301.672C543.224 280.425 422.982 263.2 274.656 263.2C126.33 263.2 6.08789 280.425 6.08789 301.672C6.08789 322.92 126.33 340.144 274.656 340.144Z" fill="#FCE5B6"/>
<path d="M28.31 297.673C26.8778 297.673 25.7168 296.512 25.7168 295.079V245.028C25.7168 243.596 26.8778 242.435 28.31 242.435C29.7422 242.435 30.9032 243.596 30.9032 245.028V295.079C30.9032 296.512 29.7422 297.673 28.31 297.673Z" fill="#C48651"/>
<path d="M30.1465 270.573C29.4003 270.573 28.7083 270.532 28.0886 270.461C27.0133 270.338 26.2405 269.367 26.3647 268.291C26.4876 267.217 27.4509 266.446 28.5311 266.566C29.0049 266.616 39.8839 267.707 41.8188 258.998C42.0527 257.941 43.1016 257.27 44.1576 257.509C45.2149 257.744 45.8816 258.79 45.6465 259.847C43.7417 268.407 35.5752 270.573 30.1465 270.573Z" fill="#C48651"/>
<path d="M27.1606 263.317C22.0092 263.317 13.786 260.507 12.3827 249.391C12.2477 248.316 13.0084 247.335 14.0814 247.2C15.1579 247.06 16.1369 247.825 16.2719 248.899C17.6788 260.043 27.046 259.452 28.1106 259.349C29.1968 259.251 30.148 260.027 30.2565 261.1C30.3662 262.174 29.5922 263.134 28.518 263.249C28.0985 263.293 27.6428 263.317 27.1606 263.317Z" fill="#C48651"/>
<path d="M49.7392 261.334H44.6493C39.1784 261.334 34.7432 256.899 34.7432 251.428C34.7432 245.957 39.1784 241.522 44.6493 241.522H49.7392C55.2101 241.522 59.6454 245.957 59.6454 251.428C59.6454 256.899 55.2101 261.334 49.7392 261.334Z" fill="#008782"/>
<path d="M59.6458 251.429C59.6458 254.166 58.5403 256.643 56.744 258.431C54.949 260.226 52.4703 261.332 49.7421 261.332H44.645C39.1801 261.332 34.7412 256.901 34.7412 251.429C34.7412 250.896 34.781 250.371 34.8666 249.861C35.6189 254.589 39.7118 258.196 44.6438 258.196H49.7409C52.4691 258.196 54.9478 257.083 56.7428 255.295C58.1859 253.852 59.1817 251.97 59.5181 249.862C59.6061 250.371 59.6458 250.896 59.6458 251.429Z" fill="#00746F"/>
<path d="M14.7984 255.241H9.77595C4.37742 255.241 0 250.864 0 245.465C0 240.066 4.37742 235.689 9.77595 235.689H14.7984C20.1969 235.689 24.5743 240.065 24.5743 245.465C24.5743 250.863 20.1981 255.241 14.7984 255.241Z" fill="#008782"/>
<path d="M24.5729 245.463C24.5729 248.16 23.4758 250.608 21.7109 252.38C19.9387 254.152 17.4998 255.242 14.7957 255.242H9.77814C4.37599 255.242 0.000976562 250.867 0.000976562 245.465C0.000976562 244.782 0.0721052 244.124 0.197484 243.481C1.12216 247.928 5.05834 251.267 9.77935 251.267H14.7969C19.5167 251.267 23.4529 247.926 24.3788 243.481C24.5017 244.123 24.5729 244.781 24.5729 245.463Z" fill="#00746F"/>
<path d="M33.9889 247.221H25.609C16.601 247.221 9.29883 239.919 9.29883 230.911C9.29883 221.903 16.601 214.601 25.609 214.601H33.9889C42.9969 214.601 50.299 221.903 50.299 230.911C50.299 239.919 42.9969 247.221 33.9889 247.221Z" fill="#008782"/>
<path d="M50.299 230.91C50.299 235.41 48.4726 239.488 45.5238 242.444C42.5761 245.391 38.4989 247.219 33.9901 247.219H25.6078C16.5985 247.219 9.29883 239.919 9.29883 230.91C9.29883 229.954 9.38563 229.013 9.54235 228.104C10.8757 235.772 17.5558 241.606 25.6078 241.606H33.9901C38.4989 241.606 42.5761 239.779 45.5238 236.823C47.8445 234.503 49.4672 231.484 50.0555 228.105C50.2134 229.013 50.299 229.954 50.299 230.91Z" fill="#00746F"/>
<path d="M503.872 291.993C502.172 291.993 500.793 290.615 500.793 288.914V229.482C500.793 227.782 502.171 226.403 503.872 226.403C505.572 226.403 506.951 227.781 506.951 229.482V288.914C506.95 290.614 505.572 291.993 503.872 291.993Z" fill="#C48651"/>
<path d="M506.052 259.815C505.166 259.815 504.344 259.766 503.608 259.682C502.332 259.536 501.414 258.382 501.561 257.106C501.707 255.83 502.85 254.914 504.134 255.057C504.696 255.117 517.615 256.411 519.911 246.071C520.19 244.816 521.434 244.019 522.688 244.304C523.944 244.583 524.735 245.826 524.455 247.08C522.196 257.242 512.498 259.815 506.052 259.815Z" fill="#C48651"/>
<path d="M502.505 251.199C496.388 251.199 486.624 247.862 484.958 234.662C484.798 233.387 485.701 232.222 486.976 232.06C488.254 231.895 489.416 232.802 489.578 234.077C491.247 247.311 502.371 246.608 503.636 246.486C504.926 246.371 506.054 247.292 506.183 248.566C506.315 249.84 505.394 250.981 504.119 251.117C503.619 251.17 503.078 251.199 502.505 251.199Z" fill="#C48651"/>
<path d="M529.317 248.843H523.273C516.777 248.843 511.511 243.577 511.511 237.08C511.511 230.583 516.777 225.317 523.273 225.317H529.317C535.814 225.317 541.08 230.583 541.08 237.08C541.08 243.576 535.813 248.843 529.317 248.843Z" fill="#008782"/>
<path d="M541.08 237.082C541.08 240.331 539.767 243.274 537.635 245.397C535.503 247.529 532.56 248.841 529.32 248.841H523.268C516.778 248.841 511.509 243.581 511.509 237.082C511.509 236.449 511.556 235.824 511.658 235.219C512.552 240.834 517.412 245.117 523.269 245.117H529.321C532.562 245.117 535.503 243.794 537.636 241.671C539.349 239.958 540.532 237.723 540.932 235.219C541.033 235.826 541.08 236.449 541.08 237.082Z" fill="#00746F"/>
<path d="M487.827 241.606H481.863C475.452 241.606 470.255 236.409 470.255 229.998C470.255 223.587 475.452 218.39 481.863 218.39H487.827C494.238 218.39 499.436 223.587 499.436 229.998C499.436 236.409 494.238 241.606 487.827 241.606Z" fill="#008782"/>
<path d="M499.434 229.996C499.434 233.199 498.13 236.103 496.035 238.208C493.931 240.312 491.035 241.607 487.823 241.607H481.864C475.449 241.607 470.254 236.412 470.254 229.997C470.254 229.187 470.338 228.405 470.487 227.642C471.585 232.921 476.259 236.887 481.864 236.887H487.823C493.427 236.887 498.101 232.921 499.201 227.642C499.35 228.405 499.434 229.186 499.434 229.996Z" fill="#00746F"/>
<path d="M510.615 232.084H500.664C489.968 232.084 481.298 223.414 481.298 212.718C481.298 202.022 489.968 193.352 500.664 193.352H510.615C521.311 193.352 529.981 202.022 529.981 212.718C529.981 223.414 521.311 232.084 510.615 232.084Z" fill="#008782"/>
<path d="M529.982 212.716C529.982 218.061 527.813 222.902 524.312 226.413C520.811 229.914 515.969 232.082 510.615 232.082H500.662C489.964 232.082 481.296 223.414 481.296 212.716C481.296 211.581 481.398 210.463 481.584 209.383C483.167 218.488 491.1 225.416 500.661 225.416H510.614C515.968 225.416 520.81 223.247 524.311 219.736C527.067 216.98 528.994 213.396 529.692 209.383C529.879 210.464 529.982 211.581 529.982 212.716Z" fill="#00746F"/>
<path d="M183.015 121.587H102.342C97.3291 121.587 93.0723 123.199 89.5725 126.42C86.0703 129.643 84.3223 133.92 84.3223 139.248V275.89C84.3223 281.222 85.9715 285.518 89.2747 288.78C92.5756 292.042 96.5733 293.672 101.268 293.672C105.961 293.672 110.019 292.042 113.44 288.78C116.859 285.518 118.571 281.222 118.571 275.89V218.488H179.554C183.45 218.488 186.515 217.196 188.744 214.61C190.969 212.025 192.084 208.901 192.084 205.243C192.084 201.662 190.95 198.56 188.684 195.934C186.416 193.309 183.372 191.996 179.554 191.996H118.571V148.557H183.015C186.834 148.557 189.877 147.204 192.143 144.499C194.411 141.795 195.546 138.652 195.546 135.07C195.546 131.489 194.412 128.348 192.143 125.642C189.877 122.941 186.834 121.587 183.015 121.587Z" fill="#F94900"/>
<path d="M279.459 141.994C276.117 133.163 272.278 127.237 267.942 124.213C263.606 121.19 258.375 119.678 252.249 119.678C246.121 119.678 240.891 121.19 236.557 124.213C232.22 127.237 228.382 133.163 225.04 141.994L172.651 273.147C171.855 275.216 171.457 277.246 171.457 279.233C171.457 283.61 173.128 287.23 176.469 290.093C179.812 292.957 183.63 294.388 187.925 294.388C191.345 294.388 194.45 293.415 197.233 291.465C200.017 289.517 202.087 286.593 203.44 282.693L214.181 254.052H290.319L301.058 282.693C302.41 286.593 304.478 289.517 307.264 291.465C310.047 293.417 313.151 294.388 316.573 294.388C320.868 294.388 324.687 292.957 328.028 290.093C331.37 287.228 333.041 283.609 333.041 279.233C333.041 277.246 332.642 275.216 331.847 273.147L279.459 141.994ZM222.772 231.02L252.249 152.376L281.727 231.02H222.772Z" fill="#F94900"/>
<path d="M466.11 296.776L449.584 287.218C456.606 283.494 462.797 278.69 468.14 272.789C482.619 256.798 489.86 234.8 489.86 206.795C489.86 178.792 482.62 156.773 468.14 140.741C453.659 124.71 433.012 116.694 406.203 116.694C379.549 116.694 358.946 124.71 344.386 140.741C329.826 156.773 322.546 178.791 322.546 206.795C322.546 234.8 329.826 256.798 344.386 272.789C358.946 288.781 379.549 296.776 406.203 296.776C408.525 296.776 410.781 296.694 413.011 296.574L455.371 318.615C457.357 319.729 459.467 320.286 461.696 320.286C464.877 320.286 467.642 319.033 469.989 316.526C472.335 314.021 473.51 311.016 473.51 307.517C473.508 303.061 471.042 299.48 466.11 296.776ZM370.342 253.517C362.504 242.657 358.585 227.083 358.585 206.795C358.585 186.668 362.524 171.134 370.401 160.194C378.276 149.256 390.211 143.785 406.201 143.785C422.272 143.785 434.225 149.235 442.064 160.135C449.899 171.035 453.818 186.588 453.818 206.795C453.818 227.082 449.879 242.657 442.004 253.517C434.127 264.376 422.195 269.806 406.203 269.806C390.131 269.806 378.176 264.376 370.342 253.517Z" fill="#F94900"/>
<path d="M333.043 279.234C333.043 283.612 331.372 287.225 328.03 290.095C324.688 292.955 320.863 294.391 316.569 294.391C313.156 294.391 310.049 293.414 307.26 291.46C305.542 290.259 304.095 288.682 302.918 286.729C303.813 286.895 304.742 286.965 305.684 286.965C309.979 286.965 313.803 285.529 317.145 282.669C320.487 279.797 322.158 276.186 322.158 271.808C322.158 269.819 321.757 267.784 320.957 265.724L268.567 134.56C266.389 128.817 264.012 124.298 261.399 121.016C263.765 121.757 265.953 122.828 267.942 124.204C272.272 127.24 276.109 133.159 279.45 141.985L331.841 273.149C332.644 275.21 333.043 277.246 333.043 279.234Z" fill="#C54411"/>
<path d="M290.32 254.052H214.179L203.447 282.695C202.094 286.59 200.023 289.519 197.233 291.462C194.456 293.415 191.349 294.392 187.925 294.392C183.63 294.392 179.818 292.957 176.476 290.097C174.111 288.073 172.593 285.673 171.898 282.895C175.017 285.26 178.524 286.449 182.43 286.449C185.854 286.449 188.961 285.472 191.738 283.518C194.527 281.576 196.598 278.646 197.952 274.751L204.9 256.231C207.184 250.142 213.005 246.109 219.508 246.109H279.089C284.055 246.109 288.5 249.19 290.242 253.839L290.32 254.052Z" fill="#C54411"/>
<path d="M252.249 152.377L222.769 231.023C218.783 231.023 216.023 227.043 217.422 223.31L244.011 152.377C245.438 148.57 250.823 148.57 252.249 152.377Z" fill="#C54411"/>
<path d="M192.085 205.24C192.085 208.9 190.967 212.03 188.743 214.607C186.519 217.197 183.448 218.49 179.553 218.49H118.573V275.893C118.573 281.224 116.867 285.52 113.442 288.779C110.018 292.038 105.958 293.674 101.274 293.674C96.5785 293.674 92.5784 292.038 89.2716 288.779C87.8948 287.414 86.8122 285.884 86.0117 284.166C88.377 285.402 91.0136 286.025 93.919 286.025C98.6027 286.025 102.663 284.389 106.087 281.129C109.511 277.869 111.218 273.574 111.218 268.244V217.195C111.218 213.686 114.063 210.841 117.572 210.841H172.198C176.093 210.841 179.165 209.546 181.388 206.958C183.612 204.38 184.73 201.251 184.73 197.591C184.73 195.838 184.46 194.202 183.917 192.684C185.776 193.319 187.353 194.402 188.683 195.932C190.955 198.556 192.085 201.663 192.085 205.24Z" fill="#C54411"/>
<path d="M195.544 135.069C195.544 138.658 194.414 141.8 192.143 144.495C189.872 147.202 186.836 148.556 183.011 148.556H118.571V192.684C114.671 192.684 111.51 189.523 111.51 185.623V147.966C111.51 144.067 114.671 140.905 118.571 140.905H175.95C179.774 140.905 182.811 139.552 185.082 136.845C187.353 134.15 188.483 131.007 188.483 127.418C188.483 125.629 188.201 123.946 187.635 122.382C189.377 123.041 190.883 124.136 192.143 125.641C194.414 128.349 195.544 131.491 195.544 135.069Z" fill="#C54411"/>
<path d="M473.508 307.512C473.508 311.019 472.331 314.019 469.988 316.526C467.635 319.032 464.87 320.28 461.692 320.28C459.467 320.28 457.361 319.727 455.372 318.609L413.008 296.568C410.784 296.697 408.525 296.78 406.195 296.78C379.541 296.78 358.947 288.777 344.379 272.785C341.296 269.396 338.543 265.736 336.106 261.806C336.295 262.018 336.472 262.229 336.66 262.43C351.146 278.458 371.786 286.471 398.606 286.471C425.259 286.471 445.853 278.458 460.421 262.43C474.978 246.401 482.262 224.384 482.262 196.378C482.262 174.313 477.744 155.979 468.694 141.376C482.802 157.345 489.853 179.15 489.853 206.793C489.853 234.8 482.616 256.794 468.142 272.787C462.798 278.694 456.609 283.496 449.584 287.214L466.107 296.781C471.048 299.474 473.508 303.064 473.508 307.512Z" fill="#C54411"/>
<path d="M294.475 288.948H303.182C303.153 288.652 303.142 288.357 303.142 288.052C303.142 282.051 308.001 277.191 314.003 277.191C316.895 277.191 319.522 278.312 321.47 280.152C323.939 276.276 328.268 273.708 333.206 273.708C340.9 273.708 347.127 279.936 347.127 287.619C347.127 288.062 347.108 288.504 347.068 288.948H349.439C350.65 288.948 351.731 289.439 352.528 290.227C353.315 291.014 353.807 292.095 353.807 293.306C353.807 295.716 351.849 297.674 349.439 297.674H342.828H323.597H319.042H308.967H294.476C293.275 297.674 292.174 297.182 291.388 296.394C290.6 295.598 290.108 294.515 290.108 293.306C290.107 290.895 292.065 288.948 294.475 288.948Z" fill="#00C3C3"/>
<path d="M290.112 293.308C290.112 294.512 290.602 295.603 291.391 296.394C292.169 297.184 293.273 297.673 294.478 297.673H349.444C351.853 297.673 353.81 295.717 353.81 293.308C353.81 292.642 353.672 292.029 353.408 291.477C352.705 292.969 351.201 294.011 349.444 294.011H294.478C293.273 294.011 292.169 293.521 291.391 292.732C291.027 292.367 290.727 291.941 290.514 291.478C290.263 292.029 290.112 292.656 290.112 293.308Z" fill="#00B3B5"/>
<path d="M278.945 291.079H285.524C285.502 290.856 285.494 290.633 285.494 290.403C285.494 285.868 289.166 282.196 293.7 282.196C295.886 282.196 297.87 283.044 299.342 284.434C301.208 281.505 304.479 279.564 308.21 279.564C314.023 279.564 318.729 284.27 318.729 290.076C318.729 290.41 318.714 290.745 318.684 291.079H320.475C321.389 291.079 322.208 291.45 322.809 292.046C323.404 292.64 323.776 293.459 323.776 294.372C323.776 296.194 322.297 297.673 320.475 297.673H315.48H300.947H297.505H289.893H278.942C278.036 297.673 277.203 297.302 276.608 296.706C276.014 296.105 275.642 295.286 275.642 294.372C275.645 292.551 277.124 291.079 278.945 291.079Z" fill="#FB941B"/>
<path d="M275.648 294.373C275.648 295.283 276.019 296.108 276.615 296.705C277.202 297.302 278.037 297.672 278.947 297.672H320.479C322.299 297.672 323.777 296.192 323.777 294.373C323.777 293.871 323.673 293.406 323.473 292.989C322.943 294.118 321.805 294.904 320.479 294.904H278.947C278.037 294.904 277.202 294.534 276.615 293.937C276.34 293.662 276.113 293.34 275.952 292.989C275.762 293.406 275.648 293.88 275.648 294.373Z" fill="#FB7E0B"/>
<path d="M149.696 184.683H148.733C148.741 184.535 148.756 184.389 148.756 184.239C148.756 179.955 145.282 176.48 140.997 176.48C139.226 176.48 137.598 177.081 136.292 178.079C134.503 175.267 131.363 173.407 127.776 173.407C122.205 173.407 117.684 177.928 117.684 183.507C117.684 183.997 117.721 184.478 117.792 184.949C117.329 185.128 116.91 185.403 116.563 185.75C115.905 186.418 115.495 187.334 115.495 188.339C115.495 190.36 117.132 191.997 119.153 191.997H122.313H133.25H149.696C150.701 191.997 151.618 191.587 152.285 190.929C152.944 190.261 153.354 189.345 153.354 188.339C153.354 186.32 151.715 184.683 149.696 184.683Z" fill="#FB941B"/>
<path d="M153.354 188.341C153.354 189.346 152.944 190.262 152.285 190.93C151.618 191.589 150.701 191.999 149.696 191.999H119.153C117.132 191.999 115.495 190.361 115.495 188.341C115.495 187.931 115.566 187.54 115.682 187.175C116.171 188.625 117.542 189.657 119.153 189.657H149.696C150.701 189.657 151.618 189.257 152.285 188.589C152.677 188.197 152.98 187.708 153.167 187.174C153.282 187.539 153.354 187.931 153.354 188.341Z" fill="#FB7E0E"/>
<path d="M255.606 30.7525C258.047 26.7295 262.892 24.1882 267.555 24.8247C272.218 25.4612 276.315 29.4468 276.744 34.1329C277.059 37.5688 275.573 40.8732 274.602 44.1837C273.63 47.4942 273.272 51.4159 275.464 54.0802C276.045 54.7879 276.773 55.3581 277.414 56.0103C279.83 58.4673 280.921 62.1551 280.231 65.5307C279.54 68.9063 277.088 71.8696 273.903 73.1801C270.716 74.4905 266.889 74.1096 264.023 72.1975C261.214 74.4736 256.941 74.7883 253.897 72.8389C250.853 70.8895 249.278 66.9003 250.168 63.3981C250.781 60.9882 252.401 58.9326 253.043 56.5299C253.796 53.7041 253.126 50.7239 252.856 47.8125C252.296 41.7666 252.457 35.9412 255.606 30.7525Z" fill="#4F290E"/>
<path d="M250.978 110.423L220.392 118.072C219.309 118.343 218.344 118.965 217.651 119.842L202.271 139.973C202.271 139.973 204.085 144.361 210.09 143.097L222.007 128.014C223.028 126.654 224.546 125.754 226.23 125.509L253.008 121.625C254.685 121.423 255.848 119.854 255.552 118.191L254.585 112.76C254.287 111.082 252.63 110.009 250.978 110.423Z" fill="#FFAB93"/>
<path d="M210.091 143.098L206.351 149.415C205.743 150.442 204.463 150.853 203.371 150.372L191.293 145.057C189.716 144.362 189.143 142.418 190.091 140.979C190.619 140.178 191.525 139.705 192.484 139.729L202.272 139.975C202.272 139.975 204.992 144.233 210.091 143.098Z" fill="#FB7E0E"/>
<path d="M250.029 108.331L223.175 124.848C222.223 125.434 221.492 126.318 221.096 127.363L212.505 151.196C212.505 151.196 215.557 154.832 220.902 151.815L227.714 133.84C228.277 132.236 229.454 130.919 230.985 130.179L255.345 118.398C256.883 117.7 257.518 115.853 256.735 114.357L254.174 109.471C253.383 107.962 251.481 107.438 250.029 108.331Z" fill="#FFBDAE"/>
<path d="M220.901 151.815L219.241 158.966C218.971 160.128 217.875 160.907 216.689 160.778L203.57 159.353C201.857 159.167 200.724 157.485 201.194 155.828C201.455 154.904 202.175 154.181 203.099 153.914L212.506 151.197C212.506 151.197 216.384 154.436 220.901 151.815Z" fill="#FB7E0E"/>
<path d="M266.258 101.34C267.76 105.591 269.28 110.171 268.086 114.518C267.179 117.825 264.77 120.56 261.957 122.524C259.145 124.488 255.926 125.772 252.74 127.04C246.748 129.424 242.639 131.603 237.261 133.92C235.229 134.796 232.874 134.278 231.373 132.652C227.042 127.96 223.055 122.237 221.673 116.229C221.054 113.533 222.389 110.765 224.851 109.505C232.299 105.694 239.729 101.917 247.453 98.6755C253.821 99.5182 259.887 100.5 266.258 101.34Z" fill="#4862DF"/>
<path d="M226.002 73.5109L225.933 73.5675C225.89 73.5953 225.848 73.6242 225.806 73.6375C225.708 73.6929 225.595 73.7219 225.483 73.7351L218.676 74.0437C218.311 74.0582 217.975 73.8328 217.862 73.4819L213.551 59.9639C213.397 59.472 213.733 58.9536 214.253 58.9114L220.723 58.3918H220.878V58.4063C220.948 58.4063 221.017 58.4208 221.089 58.4485L222.997 59.1923C223.221 59.29 223.404 59.4865 223.474 59.7252L226.79 71.0407C227.055 71.9533 226.746 72.9358 226.002 73.5109Z" fill="#5E6B6A"/>
<path d="M226.002 73.5099L225.932 73.5665C225.89 73.5942 225.848 73.6232 225.806 73.6364C225.749 73.5665 225.708 73.4954 225.679 73.4122L220.876 58.4065C220.946 58.4065 221.016 58.421 221.087 58.4487L222.995 59.1925C223.22 59.2902 223.403 59.4867 223.473 59.7254L226.788 71.0408C227.055 71.9523 226.746 72.9348 226.002 73.5099Z" fill="#6D7C81"/>
<path d="M218.57 60.8918C218.57 61.3149 218.228 61.6573 217.805 61.6573C217.381 61.6573 217.039 61.3149 217.039 60.8918C217.039 60.4686 217.381 60.1262 217.805 60.1262C218.227 60.1274 218.57 60.4698 218.57 60.8918Z" fill="#6D7C81"/>
<path d="M242.763 80.0726C243.28 80.9081 243.097 81.9979 242.334 82.6176L232.151 90.8902C231.359 91.5147 230.38 91.8546 229.373 91.8546C227.857 91.8546 226.446 91.0903 225.617 89.8221L215.104 74.128L221.949 72.4185L229.455 84.2608L238.56 77.3468C239.478 76.65 240.797 76.8947 241.403 77.8749L242.763 80.0726Z" fill="#FFA983"/>
<path d="M221.946 72.4186C221.946 72.4186 221.885 69.4614 220.607 67.1406C218.962 64.1544 214.487 64.6957 213.557 67.9761C213.014 69.8893 213.453 72.6308 216.718 76.3343L221.946 72.4186Z" fill="#FFA983"/>
<path d="M251.615 68.5521C251.615 68.5521 251.612 68.675 251.596 68.8969C251.347 72.5304 249.887 75.976 247.504 78.7307L242.659 84.3318C241.598 85.5578 239.79 85.7821 238.457 84.8598C236.794 83.7097 234.677 81.8049 233.305 78.9513C232.83 77.9627 233.183 76.774 234.085 76.1508C236.058 74.7861 240.365 69.8119 243.501 68.0771C243.501 68.0771 247.193 67.4839 251.615 68.5521Z" fill="#00A9A4"/>
<path d="M267.031 100.133C265.989 92.5802 264.931 75.6287 264.43 69.2922C264.218 66.5966 262.473 64.2759 259.957 63.2825C257.438 62.2879 255.644 62.0757 255.644 62.0757L248.668 63.3174C248.668 63.3174 233.364 66.2361 240.49 84.7127V84.7114C240.103 91.1805 239.786 97.5363 239.602 100.615C239.488 102.518 240.721 104.231 242.552 104.756C250.435 107.023 259.125 105.706 263.911 104.62C265.96 104.154 267.318 102.214 267.031 100.133Z" fill="#00C3C3"/>
<path d="M270.732 85.8472L268.93 98.3718C268.655 100.284 266.957 101.665 265.028 101.545C262.956 101.416 261.392 99.6111 261.562 97.5412L262.581 85.0696L270.732 85.8472Z" fill="#FFBDAE"/>
<path d="M262.332 64.8232C262.332 64.8232 264.337 66.2193 264.516 66.3555C267.07 68.2917 270.733 71.959 271.762 78.7922L272.547 86.2872C272.718 87.928 271.626 89.4265 270.013 89.7737C268.002 90.2065 265.114 90.4512 262.041 89.4843C260.977 89.1492 260.34 88.0594 260.505 86.9551C260.866 84.5415 260.917 81.6409 261.033 77.0079C261.033 77.0079 260.067 68.7257 262.332 64.8232Z" fill="#00C3C3"/>
<path d="M262.506 100.743L248.61 80.7956L254.215 77.4827L267.658 94.9321C270.002 97.9749 267.194 102.427 263.492 101.402C263.439 101.388 263.386 101.372 263.333 101.357C262.996 101.256 262.706 101.03 262.506 100.743Z" fill="#FFBDAE"/>
<path d="M254.761 78.5123C254.761 78.5123 253.305 74.159 249.773 72.7111C246.26 71.2717 242.945 74.6991 244.459 78.182C245.148 79.7649 246.588 81.2056 249.471 81.6408L254.761 78.5123Z" fill="#FFBDAE"/>
<path d="M256.421 56.6577V63.0942C256.421 65.1039 254.793 66.7314 252.783 66.7314C250.786 66.7314 249.158 65.1039 249.158 63.0942V56.6577H256.421Z" fill="#FFBDAE"/>
<path d="M256.421 56.6577V59.9477C254.47 61.6946 251.935 62.8073 249.158 62.9869V56.6577H256.421Z" fill="#FFAB93"/>
<path d="M248.364 61.2935C241.674 61.2935 236.25 55.8697 236.25 49.18V34.6733H260.477V49.18C260.476 55.8697 255.053 61.2935 248.364 61.2935Z" fill="#FFBDAE"/>
<path d="M251.969 48.2343C250.845 48.2343 249.934 47.3228 249.934 46.1992V44.9889C249.934 43.8653 250.845 42.9539 251.969 42.9539C253.092 42.9539 254.004 43.8653 254.004 44.9889V46.1992C254.005 47.3228 253.093 48.2343 251.969 48.2343Z" fill="#723D0E"/>
<path d="M255.297 43.5722C255.297 44.4234 254.607 45.1129 253.758 45.1129C252.906 45.1129 252.217 44.4234 252.217 43.5722C252.217 42.7211 252.906 42.0327 253.758 42.0327C254.607 42.0315 255.297 42.7211 255.297 43.5722Z" fill="white"/>
<path d="M240.296 47.2348C241.314 47.2348 242.14 46.409 242.14 45.3903V44.2933C242.14 43.2746 241.314 42.4487 240.296 42.4487C239.277 42.4487 238.451 43.2746 238.451 44.2933V45.3903C238.451 46.409 239.277 47.2348 240.296 47.2348Z" fill="#723D0E"/>
<path d="M237.279 43.01C237.279 43.7804 237.904 44.4061 238.675 44.4061C239.447 44.4061 240.071 43.7816 240.071 43.01C240.071 42.2397 239.447 41.614 238.675 41.614C237.904 41.614 237.279 42.2385 237.279 43.01Z" fill="white"/>
<path d="M244.69 48.276C244.69 48.7426 244.906 49.1501 245.24 49.4249C244.606 49.2694 244.127 48.6835 244.127 47.9891C244.127 47.1753 244.785 46.5171 245.599 46.5171C245.934 46.5171 246.245 46.6244 246.496 46.8281C246.389 46.804 246.28 46.792 246.161 46.792C245.348 46.792 244.69 47.4502 244.69 48.276Z" fill="#723D0E"/>
<path d="M262.739 49.7037H259.019V42.2642H262.739C264.793 42.2642 266.459 43.9303 266.459 45.9846C266.458 48.0376 264.793 49.7037 262.739 49.7037Z" fill="#FFBDAE"/>
<path d="M265.179 46.2369C265.179 46.9072 264.904 47.5293 264.462 47.9597C264.031 48.4021 263.409 48.677 262.739 48.677H260.299V43.7957H262.739C264.09 43.7969 265.179 44.8855 265.179 46.2369Z" fill="#FFAB93"/>
<path d="M264.078 46.2369C264.078 46.9072 263.803 47.5293 263.361 47.9597C262.931 48.4021 262.309 48.677 261.638 48.677H260.299V43.7957H261.638C262.988 43.7969 264.078 44.8855 264.078 46.2369Z" fill="#FF8B77"/>
<path d="M244.122 53.0163C244.122 53.0163 246.777 53.8759 248.871 52.1567C248.871 52.1567 247.524 54.774 244.122 53.0163Z" fill="#723D0E"/>
<path d="M264.078 42.2642H260.477C260.477 42.2642 247.083 42.5801 241.763 35.5082C241.763 35.5082 241.104 35.6589 236.25 39.2864C235.026 36.5956 235.71 32.9753 237.504 30.6268C239.298 28.2772 241.992 26.7666 244.776 25.7708C247.134 24.9269 249.666 24.4073 252.145 24.7593C254.092 25.0354 256.004 25.9119 257.343 27.3236C257.92 27.9336 258.754 28.2338 259.56 27.9975C260.598 27.6937 261.715 27.8046 262.71 28.3579C264.125 29.1452 265.12 30.5509 265.694 32.0651C266.956 35.3973 266.445 39.5963 264.078 42.2642Z" fill="#723D0E"/>
<path d="M436.88 258.836L444.18 260.968C445.367 261.316 446.626 260.72 447.112 259.584L452.488 247.015C453.19 245.374 452.247 243.496 450.512 243.079C449.546 242.846 448.527 243.13 447.817 243.826L440.586 250.939C440.586 250.939 441.541 256.088 436.88 258.836Z" fill="#3351C2"/>
<path d="M404.39 247.764C404.39 247.764 404.825 247.264 405.695 246.6C409.079 244.017 413.583 243.417 417.609 244.805L440.586 250.939C440.586 250.939 441.982 256.744 436.88 258.835L416.009 253.781C414.491 253.47 412.915 253.603 411.471 254.165L407.284 255.795L404.39 247.764Z" fill="#FF976D"/>
<path d="M370.65 253.496C370.65 253.496 371.048 255.623 372.341 258.198C375.949 265.393 384.698 268.343 392.017 264.992L410.056 256.735C411.262 256.183 411.871 254.809 411.429 253.558C410.83 251.861 409.664 249.266 407.423 245.95C406.729 244.926 405.396 244.529 404.258 245.015L389.921 251.136C389.921 251.136 377.036 256.25 370.65 253.496Z" fill="#FB7E0E"/>
<path d="M430.599 266.114L437.658 269.706C438.806 270.166 440.117 269.696 440.711 268.611L447.276 256.621C448.134 255.056 447.377 253.095 445.69 252.512C444.75 252.186 443.708 252.37 442.935 252.995L435.05 259.376C435.05 259.376 435.504 263.83 430.599 266.114Z" fill="#4663DA"/>
<path d="M403.35 250.271C403.35 250.271 403.832 249.817 404.761 249.239C408.379 246.995 412.919 246.834 416.792 248.604L435.05 259.374C435.05 259.374 435.878 264.525 430.599 266.112L414.332 257.383C412.852 256.927 411.27 256.908 409.779 257.327L405.455 258.545L403.35 250.271Z" fill="#FFA983"/>
<path d="M369.215 252.715C369.215 252.715 369.405 254.869 370.442 257.558C373.338 265.067 381.761 268.849 389.368 266.223L408.121 259.748C409.376 259.315 410.114 258.006 409.794 256.717C409.361 254.972 408.452 252.276 406.542 248.758C405.951 247.671 404.662 247.148 403.482 247.521L388.62 252.228C388.622 252.229 375.304 256.074 369.215 252.715Z" fill="#FB941B"/>
<path d="M404.215 216.371L404.292 216.416C404.338 216.436 404.383 216.458 404.427 216.465C404.532 216.505 404.646 216.515 404.759 216.511L411.495 215.752C411.855 215.708 412.152 215.436 412.207 215.073L414.334 201.12C414.409 200.613 413.997 200.155 413.481 200.195L407.043 200.694L406.891 200.718L406.893 200.732C406.825 200.742 406.757 200.768 406.693 200.806L404.934 201.835C404.729 201.966 404.58 202.188 404.549 202.433L403.057 214.066C402.937 215.005 403.394 215.922 404.215 216.371Z" fill="#5E6B6A"/>
<path d="M404.214 216.372L404.292 216.416C404.337 216.437 404.383 216.458 404.427 216.466C404.471 216.388 404.501 216.312 404.516 216.226L406.892 200.734C406.823 200.745 406.756 200.77 406.692 200.809L404.933 201.837C404.728 201.969 404.579 202.19 404.547 202.435L403.056 214.069C402.937 215.006 403.393 215.922 404.214 216.372Z" fill="#6D7C81"/>
<path d="M409.546 202.814C409.613 203.229 410.002 203.512 410.418 203.446C410.833 203.38 411.116 202.991 411.051 202.575C410.985 202.159 410.595 201.877 410.179 201.942C409.765 202.008 409.481 202.398 409.546 202.814Z" fill="#6D7C81"/>
<path d="M388.774 225.432C388.397 226.334 388.747 227.376 389.593 227.865L400.887 234.404C401.762 234.895 402.777 235.076 403.767 234.918C405.254 234.682 406.524 233.71 407.14 232.334L415.021 215.274L408.03 214.663L402.504 227.469L392.479 222.098C391.469 221.557 390.211 222.003 389.768 223.06L388.774 225.432Z" fill="#FF976D"/>
<path d="M408.029 214.664C408.029 214.664 407.628 211.749 408.521 209.27C409.671 206.08 414.152 205.914 415.577 208.99C416.409 210.786 416.406 213.547 413.776 217.695L408.029 214.664Z" fill="#FF976D"/>
<path d="M378.278 215.497C378.278 215.497 378.301 215.618 378.351 215.832C379.162 219.363 381.134 222.521 383.905 224.855L389.538 229.602C390.772 230.642 392.584 230.58 393.749 229.465C395.203 228.075 396.985 225.873 397.889 222.857C398.202 221.812 397.669 220.699 396.686 220.227C394.535 219.195 389.527 214.979 386.176 213.765C386.176 213.765 382.457 213.758 378.278 215.497Z" fill="#3351C2"/>
<path d="M372.658 210.954C372.658 210.954 370.928 211.442 368.61 212.813C366.294 214.181 364.941 216.735 365.152 219.416C365.65 225.72 367.255 242.539 367.41 250.121C367.454 252.21 369.09 253.904 371.175 254.041C376.047 254.361 384.79 254.299 392.18 250.842C393.897 250.039 394.841 248.163 394.432 246.312C393.222 240.834 389.871 224.675 387.759 216.732C387.111 214.291 385.189 212.42 382.748 211.77C382.72 211.763 382.691 211.756 382.663 211.747C380.974 211.3 379.231 211.076 377.484 211.043L372.658 210.954Z" fill="#4663DA"/>
<path d="M362.968 232.56L364.844 245.597C365.131 247.588 366.897 249.025 368.904 248.9C371.061 248.767 372.688 246.887 372.512 244.733L371.453 231.751L362.968 232.56Z" fill="#FFA983"/>
<path d="M366.781 214.665C366.781 214.665 366.688 214.757 366.529 214.929C363.902 217.754 362.299 221.378 361.897 225.216L361.081 233.018C360.902 234.726 362.039 236.285 363.719 236.647C365.812 237.098 368.817 237.352 372.017 236.346C373.125 235.997 373.786 234.861 373.615 233.714C373.24 231.201 372.5 226.661 371.567 222.982C371.567 222.982 370.719 218.738 366.781 214.665Z" fill="#4862DF"/>
<path d="M371.532 248.066L385.996 227.303L380.162 223.854L366.169 242.017C363.729 245.184 366.653 249.818 370.506 248.752C370.561 248.738 370.615 248.721 370.671 248.705C371.02 248.6 371.323 248.365 371.532 248.066Z" fill="#FFA983"/>
<path d="M379.593 224.926C379.593 224.926 381.108 220.394 384.784 218.887C388.442 217.389 391.892 220.957 390.316 224.581C389.599 226.229 388.099 227.729 385.1 228.181L379.593 224.926Z" fill="#FFA983"/>
<path d="M369.793 206.428L370.757 212.503C371.059 214.401 372.838 215.692 374.736 215.391C376.621 215.092 377.914 213.311 377.612 211.415L376.647 205.34L369.793 206.428Z" fill="#FFA983"/>
<path d="M369.793 206.428L370.286 209.534C372.389 210.89 374.949 211.561 377.595 211.313L376.647 205.34L369.793 206.428Z" fill="#EF9470"/>
<path d="M376.773 209.948C383.16 210.227 388.565 205.275 388.843 198.888L389.449 185.038L366.319 184.028L365.713 197.878C365.434 204.265 370.386 209.669 376.773 209.948Z" fill="#FFA983"/>
<path d="M373.875 197.329C374.948 197.377 375.856 196.545 375.903 195.472L375.954 194.317C376.001 193.244 375.169 192.336 374.096 192.289C373.023 192.242 372.115 193.074 372.068 194.147L372.018 195.302C371.971 196.375 372.802 197.282 373.875 197.329Z" fill="#723D0E"/>
<path d="M370.893 192.739C370.858 193.552 371.487 194.239 372.3 194.274C373.112 194.309 373.8 193.68 373.835 192.868C373.87 192.056 373.24 191.369 372.429 191.334C371.616 191.298 370.929 191.927 370.893 192.739Z" fill="white"/>
<path d="M385.062 196.863C384.089 196.821 383.335 195.997 383.378 195.024L383.423 193.978C383.466 193.005 384.289 192.251 385.262 192.294C386.235 192.336 386.988 193.159 386.946 194.132L386.9 195.179C386.858 196.152 386.035 196.905 385.062 196.863Z" fill="#723D0E"/>
<path d="M388.118 192.955C388.085 193.69 387.463 194.262 386.727 194.229C385.99 194.197 385.42 193.575 385.452 192.838C385.485 192.101 386.107 191.531 386.844 191.564C387.579 191.596 388.151 192.218 388.118 192.955Z" fill="white"/>
<path d="M380.823 197.673C380.804 198.119 380.581 198.497 380.249 198.747C380.861 198.625 381.342 198.085 381.371 197.422C381.405 196.645 380.805 195.99 380.028 195.956C379.709 195.941 379.408 196.032 379.159 196.215C379.263 196.197 379.367 196.19 379.481 196.195C380.256 196.228 380.858 196.884 380.823 197.673Z" fill="#723D0E"/>
<path d="M390.357 185.285C390.025 185.707 389.708 185.963 389.542 186.084C389.451 186.144 389.406 186.174 389.406 186.174C388.169 185.918 386.81 185.721 385.392 185.57C381.016 185.103 376.066 185.087 372.701 185.149C372.113 185.149 371.569 185.163 371.087 185.179C370.921 185.194 370.754 185.194 370.604 185.194C370.015 185.209 369.548 185.224 369.216 185.255C368.883 185.255 368.702 185.269 368.702 185.269V185.285C368.658 185.556 368.612 185.813 368.552 186.07C368.461 186.447 368.371 186.809 368.25 187.156C367.873 188.318 367.375 189.284 366.922 189.992C366.711 190.34 366.514 190.627 366.348 190.838C366.242 190.974 366.151 191.094 366.091 191.169C366.031 191.229 366.001 191.275 366.001 191.275H365.985L362.424 191.411H362.408C362.197 190.703 362.046 189.978 361.925 189.284C361.819 188.74 361.758 188.197 361.698 187.669C361.154 182.749 365.063 178.419 370.029 178.54C371.733 178.585 372.971 178.736 372.971 178.736C377.755 179.566 382.48 179.322 385.889 178.643C388.168 178.19 390.098 179.234 390.852 181.015C391.443 182.372 391.368 183.972 390.357 185.285Z" fill="#723D0E"/>
<path d="M390.357 185.284C390.025 185.706 389.708 185.963 389.542 186.084C389.452 186.16 389.406 186.19 389.406 186.19C388.183 185.933 386.81 185.738 385.392 185.571C381.016 185.103 376.066 185.088 372.701 185.149C372.113 185.164 371.569 185.164 371.087 185.179C370.921 185.195 370.754 185.195 370.604 185.195C370.015 185.225 369.532 185.241 369.216 185.255C368.883 185.27 368.702 185.286 368.702 185.286C368.658 185.557 368.612 185.814 368.552 186.07C368.461 186.448 368.371 186.809 368.25 187.157C367.873 188.319 367.375 189.284 366.922 189.993C366.711 190.34 366.5 190.627 366.348 190.838C366.242 190.975 366.152 191.095 366.091 191.17C366.031 191.23 366.001 191.276 366.001 191.276H365.985L362.424 191.412H362.408C362.197 190.703 362.047 189.979 361.925 189.284C362.997 188.756 364.37 188.817 365.38 189.481C365.667 189.013 365.924 188.515 366.149 188.002C366.572 187.112 366.904 186.161 367.13 185.21C367.237 184.817 367.387 184.44 367.598 184.093C368.232 182.947 369.349 182.146 370.692 181.981C375.958 181.377 381.451 181.65 386.627 182.69C388.271 183.021 389.992 182.358 390.852 181.015C391.443 182.372 391.368 183.971 390.357 185.284Z" fill="#723D0E"/>
<path d="M385.151 178.539C385.151 178.539 378.42 179.218 371.448 183.881C368.415 185.903 365.322 188.695 362.726 192.513C362.726 192.513 361.867 191.939 360.976 190.174C359.271 186.81 359.271 182.841 360.855 179.535C361.323 178.585 361.911 177.679 362.636 176.865C364.115 175.22 366.213 173.605 369.216 172.458C374.829 170.27 381.303 172.322 384.456 177.318C384.667 177.65 384.864 177.982 385.045 178.344C385.059 178.359 385.059 178.374 385.075 178.39L385.151 178.539Z" fill="#3351C2"/>
<path d="M384.456 177.317C381.815 177.528 377.379 178.238 372.611 180.486C369.927 181.755 367.122 183.524 364.484 185.978C363.471 186.919 361.798 186.546 361.357 185.235C361.351 185.217 361.344 185.198 361.338 185.18C360.72 183.339 360.569 181.408 360.855 179.536C361.323 178.586 361.911 177.68 362.636 176.866C364.115 175.222 366.213 173.606 369.216 172.46C374.829 170.269 381.303 172.322 384.456 177.317Z" fill="#3351C2"/>
<path d="M363.532 198.282L367.084 198.437L367.395 191.334L363.843 191.179C361.882 191.093 360.222 192.613 360.136 194.575C360.05 196.537 361.57 198.196 363.532 198.282Z" fill="#FFA983"/>
<path d="M361.347 194.871C361.319 195.512 361.555 196.117 361.961 196.546C362.354 196.987 362.936 197.275 363.576 197.303L365.906 197.405L366.11 192.745L363.78 192.644C362.489 192.586 361.404 193.58 361.347 194.871Z" fill="#EF9470"/>
<path d="M362.398 194.918C362.37 195.558 362.606 196.163 363.011 196.592C363.404 197.032 363.987 197.321 364.626 197.349L365.905 197.405L366.108 192.744L364.829 192.688C363.539 192.633 362.454 193.626 362.398 194.918Z" fill="#E5805C"/>
<path d="M393.179 179.867C391.488 181.572 389.24 182.372 389.24 182.372C384.818 184.077 373.305 183.926 371.448 183.881C372.293 183.308 373.153 182.795 373.984 182.342C379.96 179.068 385.151 178.54 385.151 178.54C386.524 178.268 390.613 177.815 392.319 177.845H392.334C393.359 177.89 393.918 179.128 393.179 179.867Z" fill="#FB7E0E"/>
<path d="M392.333 177.845C392.273 178.012 392.183 178.177 392.046 178.313C390.356 180.018 388.108 180.818 388.108 180.818C384.969 182.025 378.284 182.312 373.983 182.342C379.959 179.068 385.151 178.54 385.151 178.54C386.524 178.268 390.613 177.815 392.319 177.845H392.333Z" fill="#FB941B"/>
<path d="M381.62 201.414C381.59 201.625 381.529 201.821 381.469 202.002C381.242 202.696 380.79 203.118 380.246 203.33C379.221 203.708 377.908 203.254 377.41 202.168C377.289 201.927 377.213 201.64 377.199 201.339C377.153 200.66 377.335 200.146 377.335 200.146C379.492 201.609 381.62 201.414 381.62 201.414Z" fill="#723D0E"/>
<path d="M380.247 203.33C379.221 203.707 377.908 203.254 377.41 202.167C377.712 201.941 378.074 201.806 378.482 201.806C379.372 201.806 380.126 202.47 380.247 203.33Z" fill="#FB565E"/>
<path d="M54.1298 246.802L50.1381 282.577C50.0019 283.793 50.7445 284.951 51.9188 285.297C53.3293 285.713 55.2967 286.056 57.1919 285.587C58.1986 285.339 58.9243 284.453 59.0449 283.422L63.2402 247.73L54.1298 246.802Z" fill="#FFAB93"/>
<path d="M59.2332 281.815L58.6678 289.753C58.5762 291.044 57.5346 292.062 56.2422 292.125L41.9538 292.823C40.0888 292.915 38.589 291.306 38.8121 289.452C38.9363 288.418 39.5836 287.521 40.5264 287.08L50.1372 282.576C50.1372 282.576 54.8413 285.388 59.2332 281.815Z" fill="#FB7E0E"/>
<path d="M54.8881 217.514C54.8881 217.514 51.7874 239.313 51.0278 249.277C50.8892 251.098 51.9405 252.809 53.6439 253.469C55.8694 254.329 59.2896 255.186 63.3717 254.657C65.1631 254.425 66.5761 253.012 66.8835 251.231C67.9564 245.017 70.7051 229.952 73.4153 221.954C73.4153 221.954 64.1601 218.067 54.8881 217.514Z" fill="#3351C2"/>
<path d="M70.3057 248.753L73.4028 284.616C73.5077 285.836 74.4625 286.825 75.6813 286.935C77.1461 287.066 79.1425 287.017 80.9098 286.186C81.8478 285.745 82.3855 284.733 82.3023 283.7L79.421 247.879L70.3057 248.753Z" fill="#FFBDAE"/>
<path d="M82.1725 282.088L83.1731 289.982C83.3359 291.266 82.5137 292.469 81.2587 292.783L67.385 296.268C65.5742 296.722 63.7888 295.438 63.6429 293.577C63.5621 292.539 64.0215 291.532 64.8593 290.915L73.402 284.615C73.402 284.615 78.5654 286.452 82.1725 282.088Z" fill="#FB941B"/>
<path d="M55.6865 217.597C55.6865 217.597 59.0766 225.772 65.8555 229.361C65.8555 229.361 67.8989 246.132 69.0551 253.265C69.2865 254.69 70.3535 255.831 71.7652 256.133C74.2475 256.663 78.2186 256.923 81.1059 254.282C81.91 253.545 82.3199 252.469 82.2187 251.383C81.7401 246.211 80.1801 228.42 80.1801 216.6C80.1801 216.6 67.0888 217.648 55.6865 217.597Z" fill="#4862DF"/>
<path d="M37.4956 191.572L37.422 191.63C37.3786 191.659 37.334 191.689 37.2906 191.704C37.1881 191.762 37.0712 191.792 36.9543 191.806L29.8691 192.128C29.4894 192.142 29.1386 191.909 29.0216 191.543L24.5333 177.472C24.3729 176.961 24.7226 176.419 25.2639 176.376L31.9982 175.836H32.1585V175.85C32.2321 175.85 32.3044 175.865 32.3779 175.894L34.3647 176.668C34.5986 176.77 34.7879 176.975 34.8614 177.222L38.3117 189.001C38.5914 189.951 38.2707 190.973 37.4956 191.572Z" fill="#5E6B6A"/>
<path d="M37.496 191.573L37.4225 191.63C37.3791 191.659 37.3345 191.69 37.2911 191.704C37.2332 191.631 37.1886 191.558 37.1596 191.47L32.1602 175.85C32.2337 175.85 32.306 175.864 32.3796 175.893L34.3663 176.667C34.6002 176.769 34.7895 176.974 34.863 177.222L38.3134 189C38.5919 189.951 38.2712 190.973 37.496 191.573Z" fill="#6D7C81"/>
<path d="M29.7598 178.437C29.7598 178.877 29.4029 179.233 28.9629 179.233C28.5229 179.233 28.166 178.877 28.166 178.437C28.166 177.997 28.5229 177.64 28.9629 177.64C29.4029 177.64 29.7598 177.997 29.7598 178.437Z" fill="#6D7C81"/>
<path d="M54.942 198.403C55.4809 199.272 55.2892 200.407 54.4947 201.053L43.8954 209.664C43.072 210.314 42.0521 210.668 41.0032 210.668C39.4263 210.668 37.9555 209.873 37.0936 208.553L26.1494 192.216L33.2743 190.437L41.0864 202.763L50.5646 195.567C51.5206 194.842 52.8925 195.097 53.5243 196.117L54.942 198.403Z" fill="#FFAB93"/>
<path d="M33.2739 190.435C33.2739 190.435 33.21 187.356 31.8803 184.941C30.1684 181.833 25.51 182.396 24.542 185.81C23.9778 187.802 24.4335 190.655 27.832 194.511L33.2739 190.435Z" fill="#FFAB93"/>
<path d="M64.1558 186.412C64.1558 186.412 64.151 186.541 64.1353 186.77C63.8761 190.552 62.3559 194.138 59.876 197.006L54.8331 202.838C53.7288 204.114 51.8469 204.347 50.4593 203.387C48.7293 202.19 46.5256 200.207 45.097 197.238C44.6027 196.209 44.9704 194.971 45.9083 194.323C47.9614 192.903 52.4449 187.723 55.7096 185.919C55.7096 185.916 59.5529 185.299 64.1558 186.412Z" fill="#FB7E0E"/>
<path d="M69.2195 180.794C69.2195 180.794 71.087 181.015 73.7079 182.05C76.3264 183.085 78.1432 185.501 78.365 188.306C78.8858 194.903 79.9877 212.548 81.0715 220.409C81.3705 222.576 79.9563 224.595 77.8249 225.078C72.8423 226.209 63.7981 227.58 55.5918 225.221C53.6858 224.672 52.4031 222.889 52.5212 220.909C52.872 215.052 53.6822 197.811 54.561 189.252C54.8311 186.626 56.5044 184.369 58.9167 183.297C59.915 182.853 60.9831 182.414 61.9572 182.085L69.2195 180.794Z" fill="#FB941B"/>
<path d="M80.2467 188.096L88.1974 206.939C89.1594 209.218 89.3656 211.747 88.7857 214.152L84.5879 231.579L77.8994 230.358L81.5077 215.85C82.1503 213.267 81.8826 210.541 80.7506 208.131L76.0139 198.05C74.2007 194.192 76.0561 189.533 80.0875 188.149C80.1406 188.132 80.1936 188.114 80.2467 188.096Z" fill="#FFBDAE"/>
<path d="M77.8994 230.357C77.8994 230.357 75.6847 232.497 74.8179 235.115C73.7016 238.483 77.2821 241.516 80.4443 239.906C82.2888 238.965 84.0719 236.691 84.5891 231.579L77.8994 230.357Z" fill="#FFBDAE"/>
<path d="M74.374 182.56C74.374 182.56 74.4958 182.602 74.7104 182.684C78.2524 184.036 81.2373 186.539 83.2555 189.748L87.358 196.275C88.2562 197.704 87.9295 199.573 86.6045 200.619C84.9541 201.923 82.414 203.452 79.1565 203.95C78.0281 204.122 76.9516 203.409 76.6056 202.321C75.8472 199.943 74.532 195.618 73.7592 191.969C73.7592 191.969 72.667 187.858 74.374 182.56Z" fill="#FB941B"/>
<path d="M69.4772 175.225V181.661C69.4772 183.671 67.8497 185.298 65.84 185.298C63.8424 185.298 62.2148 183.671 62.2148 181.661V175.225H69.4772Z" fill="#FFBDAE"/>
<path d="M69.4772 175.225V178.515C67.5266 180.261 64.9913 181.374 62.2148 181.554V175.225H69.4772Z" fill="#FFAB93"/>
<path d="M61.4192 179.862C54.7295 179.862 49.3057 174.438 49.3057 167.748V153.241H73.5328V167.748C73.5328 174.438 68.1101 179.862 61.4192 179.862Z" fill="#FFBDAE"/>
<path d="M65.0252 166.802C63.9016 166.802 62.9902 165.89 62.9902 164.767V163.556C62.9902 162.433 63.9016 161.521 65.0252 161.521C66.1488 161.521 67.0602 162.433 67.0602 163.556V164.767C67.0602 165.89 66.1488 166.802 65.0252 166.802Z" fill="#723D0E"/>
<path d="M68.3539 162.139C68.3539 162.99 67.6643 163.68 66.8132 163.68C65.962 163.68 65.2725 162.99 65.2725 162.139C65.2725 161.288 65.962 160.598 66.8132 160.598C67.6631 160.6 68.3539 161.288 68.3539 162.139Z" fill="white"/>
<path d="M53.3514 165.802C54.3701 165.802 55.1959 164.976 55.1959 163.957V162.86C55.1959 161.841 54.3701 161.016 53.3514 161.016C52.3326 161.016 51.5068 161.841 51.5068 162.86V163.957C51.5068 164.976 52.3326 165.802 53.3514 165.802Z" fill="#723D0E"/>
<path d="M51.732 162.974C52.503 162.974 53.128 162.349 53.128 161.578C53.128 160.807 52.503 160.182 51.732 160.182C50.961 160.182 50.3359 160.807 50.3359 161.578C50.3359 162.349 50.961 162.974 51.732 162.974Z" fill="white"/>
<path d="M57.7456 166.843C57.7456 167.309 57.9614 167.717 58.2954 167.992C57.6612 167.836 57.1826 167.25 57.1826 166.556C57.1826 165.742 57.8409 165.084 58.6546 165.084C58.9898 165.084 59.3008 165.191 59.5516 165.395C59.4443 165.371 59.3358 165.359 59.2164 165.359C58.4039 165.359 57.7456 166.017 57.7456 166.843Z" fill="#723D0E"/>
<path d="M73.5321 160.831C73.5321 160.831 71.3633 158.177 70.9896 154.438C70.9896 154.438 57.4559 153.092 49.305 154.438C49.305 154.438 45.1181 151.522 48.1838 144.867C48.1838 144.867 57.4004 148.606 66.8123 147.41C66.8123 147.41 68.1215 147.3 69.9058 147.336C75.0234 147.44 78.9608 152.032 78.2254 157.098C78.0373 158.39 77.7396 159.761 77.2802 161.142L73.5321 160.831Z" fill="#723D0E"/>
<path d="M75.7956 168.272H72.0752V160.832H75.7956C77.8499 160.832 79.516 162.498 79.516 164.552C79.5148 166.607 77.8499 168.272 75.7956 168.272Z" fill="#FFBDAE"/>
<path d="M78.2346 164.805C78.2346 165.475 77.9598 166.097 77.5173 166.527C77.0869 166.97 76.4649 167.245 75.7946 167.245H73.3545V162.363H75.7946C77.146 162.363 78.2346 163.452 78.2346 164.805Z" fill="#FFAB93"/>
<path d="M77.1332 164.805C77.1332 165.475 76.8583 166.097 76.4147 166.527C75.9843 166.97 75.3622 167.245 74.6919 167.245H73.3525V162.363H74.6919C76.0446 162.363 77.1332 163.452 77.1332 164.805Z" fill="#FF8B77"/>
<path d="M77.8883 158.943C77.7328 159.66 77.5291 160.403 77.2783 161.144L73.5338 160.833C73.5338 160.833 71.3686 158.177 70.9852 154.445C70.9852 154.445 57.4539 153.093 49.3067 154.445C49.3067 154.445 45.9215 152.088 47.4646 146.764C47.4525 146.991 47.4766 147.206 47.5008 147.422C47.5369 147.638 47.5851 147.853 47.6322 148.068C48.194 150.09 50.288 151.239 52.358 150.916C57.8252 150.066 63.5686 150.031 69.0479 150.904C70.8659 151.203 72.2547 152.639 72.6248 154.433C72.9358 156.024 73.4976 157.567 74.2644 158.979C75.3518 158.333 76.7864 158.333 77.8883 158.943Z" fill="#723D0E"/>
<path d="M57.1787 171.584C57.1787 171.584 59.8334 172.444 61.9262 170.725C61.9262 170.725 60.5808 173.342 57.1787 171.584Z" fill="#723D0E"/>
</svg>
