<svg width="42" height="30" viewBox="0 0 42 30" fill="none" xmlns="http://www.w3.org/2000/svg">
<path d="M18.6547 16.2921L18.2416 16.0103L18.6547 16.2921ZM10.7747 15.6252L10.2931 15.7595L10.7747 15.6252ZM27.3707 10.2082L27.5712 9.75022L27.3707 10.2082ZM39.3965 29.3149C39.658 29.4035 39.9419 29.2633 40.0305 29.0018L41.4749 24.7399C41.5635 24.4784 41.4233 24.1945 41.1618 24.1059C40.9003 24.0172 40.6164 24.1574 40.5278 24.4189L39.2439 28.2073L35.4556 26.9234C35.194 26.8348 34.9102 26.975 34.8215 27.2365C34.7329 27.498 34.8731 27.7819 35.1346 27.8705L39.3965 29.3149ZM0.428216 0.99768L0.499123 1.49263C0.667598 1.46849 0.834626 1.44558 1.00022 1.42389L0.935258 0.928124L0.870299 0.432361C0.700697 0.454584 0.529703 0.478036 0.35731 0.502733L0.428216 0.99768ZM1.92396 0.810867L1.9766 1.30809C2.3106 1.27273 2.63842 1.2425 2.96016 1.21723L2.92101 0.718766L2.88187 0.220301C2.55092 0.246291 2.2141 0.277357 1.87132 0.313645L1.92396 0.810867ZM3.90741 0.655534L3.93202 1.15493C4.26938 1.1383 4.59961 1.12738 4.92285 1.12195L4.91445 0.622019L4.90605 0.12209C4.57174 0.127707 4.2307 0.138994 3.88279 0.15614L3.90741 0.655534ZM5.90458 0.622417L5.89551 1.12234C6.23012 1.12841 6.55667 1.14066 6.87533 1.15881L6.90377 0.659624L6.93222 0.160434C6.60033 0.141523 6.26086 0.128799 5.91365 0.122499L5.90458 0.622417ZM7.90226 0.737637L7.85248 1.23515C8.1823 1.26816 8.50291 1.30784 8.81456 1.35386L8.88759 0.859226L8.96063 0.36459C8.63314 0.316231 8.29701 0.27464 7.95205 0.240122L7.90226 0.737637ZM9.86594 1.02926L9.76737 1.51945C10.0946 1.58524 10.4109 1.65846 10.7167 1.7386L10.8435 1.25494L10.9702 0.771275C10.6453 0.686119 10.3102 0.608575 9.9645 0.539069L9.86594 1.02926ZM11.8014 1.53838L11.6441 2.01299C11.957 2.11673 12.2576 2.22827 12.5462 2.34694L12.7364 1.88451L12.9265 1.42207C12.6159 1.29434 12.2934 1.17471 11.9587 1.06377L11.8014 1.53838ZM13.6431 2.29798L13.4181 2.74451C13.7102 2.89164 13.9882 3.04672 14.2529 3.20889L14.5141 2.78255L14.7753 2.35622C14.4868 2.1794 14.1845 2.01087 13.8681 1.85145L13.6431 2.29798ZM15.3405 3.34038L15.0425 3.74183C15.3027 3.93504 15.5478 4.13585 15.7784 4.3432L16.1127 3.97137L16.447 3.59955C16.1931 3.37132 15.9239 3.15073 15.6386 2.93892L15.3405 3.34038ZM16.8212 4.67295L16.4525 5.01071C16.6696 5.24772 16.8711 5.49125 17.0577 5.74L17.4576 5.43998L17.8576 5.13997C17.6517 4.86542 17.4294 4.59667 17.1898 4.33519L16.8212 4.67295ZM18.0158 6.26526L17.5884 6.52487C17.7549 6.79893 17.9058 7.07754 18.0419 7.35918L18.4921 7.14157L18.9422 6.92396C18.7926 6.61439 18.6266 6.3077 18.4431 6.00565L18.0158 6.26526ZM18.8844 8.06003L18.416 8.23505C18.5286 8.53639 18.626 8.83932 18.7093 9.14203L19.1914 9.00939L19.6734 8.87676C19.5825 8.54635 19.4761 8.2151 19.3527 7.88502L18.8844 8.06003ZM19.414 9.98042L18.9223 10.0713C18.9813 10.3907 19.0256 10.7075 19.0566 11.0195L19.5541 10.9701L20.0517 10.9207C20.018 10.5817 19.9699 10.2372 19.9056 9.88957L19.414 9.98042ZM19.6113 11.9662L19.1113 11.974C19.1164 12.3023 19.1072 12.6215 19.0856 12.9287L19.5843 12.9638L20.0831 12.999C20.1068 12.6634 20.1168 12.3155 20.1112 11.9584L19.6113 11.9662ZM19.4684 13.9543L18.9751 13.8722C18.92 14.2039 18.8503 14.5121 18.7697 14.7918L19.2502 14.9302L19.7307 15.0685C19.8226 14.7491 19.9006 14.4031 19.9616 14.0363L19.4684 13.9543ZM18.9002 15.8634L18.4506 15.6444C18.3815 15.7864 18.3111 15.9084 18.2416 16.0103L18.6547 16.2921L19.0678 16.5738C19.1688 16.4256 19.2629 16.2606 19.3497 16.0823L18.9002 15.8634ZM18.6547 16.2921L18.2416 16.0103C18.1534 16.1397 18.0612 16.2629 17.9656 16.3799L18.3528 16.6962L18.74 17.0126C18.8539 16.8731 18.9634 16.7268 19.0678 16.5738L18.6547 16.2921ZM17.6487 17.4144L17.3255 17.0329C17.0875 17.2346 16.837 17.4071 16.579 17.5507L16.8222 17.9876L17.0654 18.4245C17.3805 18.2491 17.6845 18.0394 17.9719 17.7959L17.6487 17.4144ZM15.8983 18.3845L15.7498 17.9071C15.4578 17.9979 15.1629 18.0549 14.8713 18.0785L14.9117 18.5769L14.9521 19.0752C15.3185 19.0455 15.6858 18.9742 16.0467 18.862L15.8983 18.3845ZM13.9073 18.5398L13.986 18.046C13.6939 17.9994 13.4119 17.9169 13.1465 17.7991L12.9437 18.2561L12.7408 18.7131C13.0881 18.8672 13.4537 18.9737 13.8286 19.0335L13.9073 18.5398ZM12.0896 17.7279L12.4083 17.3426C12.1909 17.1629 11.9922 16.9498 11.8179 16.7022L11.409 16.9899L11.0001 17.2777C11.2253 17.5977 11.4847 17.8765 11.771 18.1132L12.0896 17.7279ZM10.935 16.1041L11.4001 15.9206C11.3464 15.7845 11.2983 15.6414 11.2564 15.4909L10.7747 15.6252L10.2931 15.7595C10.3441 15.9425 10.4032 16.1185 10.4699 16.2876L10.935 16.1041ZM10.7747 15.6252L11.2564 15.4909C11.2202 15.3614 11.1974 15.2275 11.1878 15.0896L10.689 15.1244L10.1902 15.1591C10.2044 15.3622 10.2383 15.5629 10.2931 15.7595L10.7747 15.6252ZM10.7986 14.1156L11.2807 14.2482C11.3541 13.9812 11.4692 13.7046 11.6265 13.4236L11.1902 13.1794L10.7539 12.9352C10.5619 13.2782 10.4138 13.6294 10.3165 13.9829L10.7986 14.1156ZM11.7676 12.341L12.1539 12.6583C12.345 12.4257 12.5632 12.1953 12.8074 11.9704L12.4687 11.6026L12.1299 11.2349C11.854 11.489 11.6036 11.7529 11.3812 12.0236L11.7676 12.341ZM13.257 10.9586L13.5511 11.363C13.8038 11.1793 14.0746 11.0024 14.3626 10.8346L14.1108 10.4026L13.8591 9.97063C13.5428 10.1549 13.2437 10.3501 12.963 10.5542L13.257 10.9586ZM15.0152 9.93046L15.2264 10.3837C15.5137 10.2498 15.814 10.1249 16.1263 10.0105L15.9542 9.54101L15.7822 9.07153C15.4436 9.19558 15.1173 9.3313 14.8041 9.47723L15.0152 9.93046ZM16.9259 9.22909L17.0596 9.71087C17.3677 9.62536 17.6853 9.54996 18.0117 9.4858L17.9153 8.99518L17.8188 8.50457C17.4673 8.57366 17.1249 8.65495 16.7922 8.7473L16.9259 9.22909ZM18.9228 8.83588L18.9826 9.33228C19.3018 9.29379 19.6282 9.266 19.9612 9.24983L19.9369 8.75042L19.9127 8.25101C19.5558 8.26834 19.2058 8.29814 18.8629 8.33947L18.9228 8.83588ZM20.9547 8.73642L20.9443 9.23632C21.2673 9.24299 21.5956 9.26059 21.9288 9.28989L21.9726 8.79181L22.0164 8.29374C21.6609 8.26248 21.3102 8.24366 20.965 8.23653L20.9547 8.73642ZM22.9856 8.91424L22.9096 9.40844C23.2288 9.45748 23.552 9.51732 23.8788 9.58857L23.9853 9.10004L24.0918 8.61152C23.7448 8.53586 23.4012 8.47224 23.0615 8.42004L22.9856 8.91424ZM24.9726 9.34661L24.8371 9.8279C25.149 9.91571 25.4639 10.014 25.7815 10.1234L25.9442 9.65061L26.107 9.17785C25.7715 9.06233 25.4385 8.95832 25.1081 8.86532L24.9726 9.34661ZM26.8976 10.0085L26.7093 10.4717C26.8624 10.5339 27.016 10.5988 27.1701 10.6663L27.3707 10.2082L27.5712 9.75022C27.409 9.6792 27.2473 9.61092 27.086 9.54534L26.8976 10.0085ZM27.3707 10.2082L27.1701 10.6663C27.3205 10.7321 27.4694 10.802 27.6167 10.8757L27.8404 10.4285L28.0641 9.98136C27.9018 9.90017 27.7375 9.82305 27.5712 9.75022L27.3707 10.2082ZM28.7453 10.9375L28.4801 11.3613C28.7589 11.5358 29.0321 11.7242 29.2996 11.9252L29.6 11.5255L29.9003 11.1257C29.6113 10.9086 29.3148 10.704 29.0105 10.5136L28.7453 10.9375ZM30.405 12.1803L30.0754 12.5563C30.3251 12.7752 30.5694 13.0049 30.8083 13.2442L31.1621 12.8909L31.516 12.5376C31.2623 12.2836 31.0019 12.0387 30.7346 11.8043L30.405 12.1803ZM31.874 13.6476L31.5001 13.9797C31.7226 14.2302 31.9399 14.4885 32.1522 14.7537L32.5425 14.4412L32.9329 14.1288C32.7106 13.8511 32.4823 13.5796 32.2478 13.3156L31.874 13.6476ZM33.1723 15.2665L32.7682 15.5609C32.9674 15.8343 33.1616 16.1131 33.3508 16.3961L33.7665 16.1182L34.1821 15.8402C33.9858 15.5467 33.784 15.2569 33.5764 14.9721L33.1723 15.2665ZM34.3278 16.9918L33.9025 17.2546C34.0818 17.5446 34.2561 17.8377 34.4255 18.1327L34.8591 17.8837L35.2927 17.6346C35.1182 17.3308 34.9384 17.0285 34.7532 16.7289L34.3278 16.9918ZM35.3632 18.792L34.9227 19.0284C35.0853 19.3314 35.2429 19.6352 35.3956 19.9386L35.8422 19.7138L36.2888 19.489C36.1324 19.1783 35.9708 18.8667 35.8038 18.5556L35.3632 18.792ZM36.2978 20.6468L35.846 20.861C35.9944 21.1739 36.1375 21.485 36.2754 21.793L36.7317 21.5886L37.188 21.3842C37.0473 21.0701 36.9012 20.7525 36.7497 20.4327L36.2978 20.6468ZM37.1475 22.5421L36.6873 22.7376C36.8246 23.0607 36.9559 23.3785 37.0815 23.6893L37.5451 23.502L38.0087 23.3147C37.881 22.9989 37.7475 22.6756 37.6078 22.3467L37.1475 22.5421ZM37.9257 24.4659L37.4593 24.646C37.5886 24.9808 37.7105 25.3042 37.8254 25.6137L38.2942 25.4397L38.7629 25.2658C38.6468 24.9528 38.5232 24.6252 38.3922 24.2858L37.9257 24.4659ZM38.6506 26.4157L38.1801 26.5852C38.308 26.9402 38.424 27.2666 38.5297 27.5623L39.0006 27.394L39.4714 27.2257C39.3664 26.9321 39.2494 26.6028 39.121 26.2463L38.6506 26.4157ZM39.3557 28.3639L38.8891 28.5438C38.9682 28.7489 39.0418 28.9273 39.1087 29.0627L39.557 28.8413L40.0053 28.62C39.9594 28.527 39.8991 28.3834 39.8222 28.1841L39.3557 28.3639Z" fill="#F94900"/>
</svg>
