<svg width="92" height="114" viewBox="0 0 92 114" fill="none" xmlns="http://www.w3.org/2000/svg">
<path d="M91.3857 85.1975C91.3857 107.289 71.2058 113.076 47.8904 113.076C24.575 113.076 20.3857 95.1677 20.3857 73.0763C20.3857 50.9849 24.575 33.0763 47.8904 33.0763C71.2058 33.0763 91.3857 63.1061 91.3857 85.1975Z" fill="#E3E3E3"/>
<path fill-rule="evenodd" clip-rule="evenodd" d="M14.085 20.5935C15.2798 20.3103 16.0712 19.1743 15.9237 17.9553C15.6345 16.6648 14.36 15.8473 13.0665 16.1226C11.7825 16.3879 11.0041 17.6994 11.3865 18.9536C11.6907 20.1426 12.8892 20.8709 14.085 20.5935Z" fill="#932B00"/>
<path fill-rule="evenodd" clip-rule="evenodd" d="M24.9186 16.4117C24.6467 15.1231 23.3805 14.2997 22.0922 14.5738C20.3692 14.9539 19.7041 17.0569 20.895 18.3588C21.4475 18.9631 22.2805 19.2266 23.0801 19.0498C24.275 18.7667 25.0664 17.6307 24.9186 16.4117Z" fill="#932B00"/>
<path fill-rule="evenodd" clip-rule="evenodd" d="M33.5782 14.9257C33.3063 13.637 32.0402 12.8136 30.7519 13.0877C29.0288 13.4679 28.3638 15.5709 29.5546 16.8727C30.1072 17.4771 30.9402 17.7405 31.7398 17.5638C32.9346 17.2807 33.7261 16.1447 33.5782 14.9257Z" fill="#932B00"/>
<path fill-rule="evenodd" clip-rule="evenodd" d="M71.389 8.62551C70.8823 7.23257 70.0977 5.95768 69.0822 4.87793C67.5901 3.48509 65.63 2.70141 63.589 2.68153C59.7531 2.80932 55.9385 3.30617 52.198 4.16557C47.5161 4.68657 42.6619 5.29982 37.9401 5.95298C33.2182 6.60615 28.5179 7.56985 23.7611 8.38613C20.0278 9.09427 16.3413 10.0308 12.7224 11.1907C10.2769 11.9917 7.92257 13.0482 5.69831 14.3424C5.30119 14.6233 5.18852 15.1631 5.43988 15.5794C5.67667 16.0175 6.23323 16.1659 6.6571 15.9042C8.77619 14.7386 11.016 13.8068 13.3372 13.1257C16.9205 12.1763 20.5564 11.437 24.226 10.9117C28.0069 10.2629 31.7533 9.77714 35.4995 9.29109C41.1569 8.60267 46.8301 8.006 52.5496 7.49522C54.8017 7.26586 58.6063 6.20494 61.9419 6.07174C63.6035 5.81232 65.2977 6.26185 66.6119 7.31091C67.3144 8.05111 67.8509 8.93289 68.1857 9.89715C68.7858 11.5218 69.182 13.2148 69.3645 14.9371C69.184 14.5353 68.7602 14.3012 68.3241 14.3622C66.4034 14.6918 64.4824 15.0215 62.4942 15.1429C57.9038 15.6482 53.2107 15.9199 48.7012 16.3483C44.1918 16.7768 40.5528 17.3386 36.4417 18.0755C32.3306 18.8125 28.4286 19.6704 24.3183 20.5955C20.208 21.5206 16.0988 22.6338 12.0722 24.0467C10.1781 24.7168 8.33563 25.504 6.53417 26.3468C6.25498 23.2557 6.06691 20.1489 6.06205 17.0107C6.1012 16.4468 5.66117 15.9646 5.09584 15.9524C4.5218 15.9156 4.0376 16.3743 4.04276 16.9492C3.68607 23.2043 3.82858 29.4776 4.46854 35.7101C4.77827 38.7957 5.14891 41.8711 5.61132 44.9309C6.07372 47.9906 6.65779 51.0291 7.18105 54.0783C7.63027 57.0593 8.42607 59.978 9.55207 62.7744C10.3821 64.9771 12.0028 66.7919 14.0983 67.8643C14.9199 68.2075 15.8042 68.3764 16.6946 68.3605C17.8713 68.2861 19.0364 68.0862 20.1705 67.764C20.6457 67.6176 20.9304 67.1327 20.8264 66.6468C20.7101 66.1636 20.2226 65.8672 19.7398 65.986C18.7216 66.1938 17.6821 66.2774 16.6437 66.2345C16.0719 66.2331 15.5093 66.0928 15.004 65.8255C13.59 64.9195 12.5421 63.5426 12.0455 61.9385C11.2098 59.2725 10.6846 56.5185 10.4801 53.732C9.74755 49.463 9.22326 45.1271 8.54667 40.8174C7.87008 36.5076 7.10772 32.4321 6.79247 28.2171C8.72372 27.4079 10.7005 26.7124 12.7128 26.1338C16.7559 25.0008 20.8976 24.2586 24.8258 23.553L48.8229 19.435C53.3356 18.6606 58.0279 18.2008 62.5208 17.4924L68.4667 16.4721C68.8735 16.3859 69.1732 16.0395 69.2 15.6243L75.0572 55.426C75.2875 56.7677 75.4392 57.6519 74.4547 58.1348C73.2842 58.6441 72.008 58.8631 70.7347 58.7731C70.1678 58.7551 69.6945 59.2029 69.6816 59.7699C69.6802 60.3305 70.1186 60.7938 70.6784 60.823C72.7158 61.2014 74.8182 60.7041 76.4701 59.4526C77.3618 58.2361 77.681 56.6921 77.3448 55.2217L72.4765 14.7796C72.3606 12.6922 71.9954 10.6262 71.389 8.62551Z" fill="#F94900"/>
<path fill-rule="evenodd" clip-rule="evenodd" d="M60.6752 61.0642L42.6269 36.1932L42.5955 36.0104L42.5117 35.5222C42.5001 35.0201 42.0786 34.6256 41.5769 34.6468C41.0748 34.6587 40.6803 35.0802 40.7015 35.5819C40.7104 38.5209 40.1438 41.4333 39.0336 44.155C37.9179 46.8914 36.1898 49.3355 33.9819 51.2997C30.7352 53.6567 27.7686 56.3773 25.1405 59.4089C23.9365 61.1006 23.4192 63.1862 23.6933 65.2446C23.9717 67.5554 25.2446 69.6298 27.1792 70.9242C28.4433 71.782 29.918 72.2779 31.4431 72.3583C33.0063 74.5641 34.8875 76.5263 37.0252 78.1807C38.6598 79.4264 40.593 80.2204 42.6311 80.4834C44.5762 80.5111 46.4833 79.9429 48.0959 78.8552C49.6126 77.9391 50.3993 76.1764 50.0685 74.4359C49.9461 73.8047 49.5795 73.2472 49.0488 72.8842C48.1282 72.3466 47.1668 71.8818 46.1738 71.4945C45.2207 71.0257 44.3296 70.4406 43.5204 69.7525C43.0382 69.3279 42.6 68.8566 42.2118 68.3449C43.5302 67.5968 44.8946 66.9331 46.2965 66.3568L51.2326 64.7563C52.1565 64.4879 53.1078 64.3246 54.0684 64.2697C55.0375 64.2084 56.0102 64.241 56.973 64.3676C57.3694 64.2995 58.618 64.8072 59.422 64.9205C59.9388 65.041 60.4807 64.992 60.9676 64.7809C61.7459 64.3232 62.0314 63.3376 61.618 62.5346C61.3007 62.1498 60.7159 61.1202 60.6752 61.0642ZM41.8803 71.3522C42.7174 72.2926 43.662 73.1313 44.6947 73.8512C45.7613 74.5784 48.4524 74.7132 45.6012 76.2069C44.6708 76.6907 43.6372 76.9436 42.5885 76.9436C40.7615 76.7402 39.0288 76.0257 37.5892 74.8822C36.291 73.9917 35.0697 72.9939 33.9382 71.899C35.2385 71.618 36.5024 71.1907 37.7061 70.6246C38.5537 70.2594 39.4162 69.7975 40.248 69.3408C40.7336 70.0569 41.2797 70.7298 41.8803 71.3522ZM53.8594 61.0412C52.691 61.0791 51.5286 61.2259 50.3876 61.4798C49.4728 61.6368 48.5278 61.799 47.6601 62.2303L44.989 63.1282C42.0392 64.2307 39.2309 66.1568 36.3229 67.5031C35.2407 68.0326 34.0906 68.4096 32.9054 68.6233C31.5561 68.8786 30.1601 68.6262 28.9855 67.915C27.8505 67.1668 27.0781 65.9801 26.8539 64.6396C26.7058 62.8014 27.3854 60.9929 28.7073 59.7071C29.3426 58.9493 30.0273 58.2342 30.7567 57.5661C31.3205 58.474 31.8896 59.4122 32.5302 60.4008C33.1709 61.3894 33.6204 61.8147 34.2137 62.529C35.0986 63.5759 35.9255 64.6707 36.6913 65.8077C36.9443 66.3105 37.5483 66.5253 38.0616 66.2945C38.5644 66.0415 38.7791 65.4376 38.5484 64.9242C38.1355 63.5104 37.5747 62.1444 36.876 60.848C36.5862 60.2937 36.2539 59.7631 35.8817 59.2608C35.5065 58.7276 35.0945 58.2213 34.6485 57.7458C33.9636 57.1189 33.235 56.5409 32.4684 56.0167C33.7297 54.953 34.9406 53.9603 35.8821 53.0453C38.1953 50.7601 39.9715 47.9894 41.0821 44.9335C41.7233 43.1482 42.1531 41.2941 42.3626 39.4088L57.2119 61.1878C56.1015 61.0343 54.9792 60.9852 53.8594 61.0412Z" fill="#F94900"/>
<path fill-rule="evenodd" clip-rule="evenodd" d="M55.9145 29.2986C55.1358 30.2483 54.3362 31.0763 53.5828 31.9902L52.6473 33.1239L51.8493 34.3282C51.2389 35.3432 50.7554 36.3679 50.0734 37.3325C49.7059 37.6642 49.6766 38.2311 50.0083 38.599C50.3315 38.9846 50.914 39.0145 51.2751 38.6643C52.4104 38.0473 53.4616 37.2867 54.4023 36.401C54.7987 36.0294 55.1484 35.6108 55.4442 35.1552C55.767 34.711 56.0537 34.2419 56.302 33.7524C56.8358 32.6561 57.2322 31.4896 57.6997 30.3735C58.0901 29.6902 57.5945 28.841 56.8076 28.8446C56.4426 28.8462 56.1061 29.0427 55.925 29.3597L55.9145 29.2986Z" fill="#932B00"/>
<path fill-rule="evenodd" clip-rule="evenodd" d="M71.5946 53.5404C71.7162 52.9907 71.3699 52.4464 70.8206 52.3235C69.5999 51.8097 68.3061 51.4917 66.9864 51.3804C66.4335 51.3455 65.879 51.3568 65.3284 51.4137C64.7828 51.4604 64.2423 51.5532 63.7123 51.691C62.5205 52.1115 61.3718 52.645 60.2815 53.2844C59.7984 53.4326 59.5228 53.9406 59.6615 54.4267C59.7921 54.9052 60.2968 55.1765 60.7682 55.0214C62.0794 54.7964 63.4026 55.0089 64.7653 54.9006L66.9912 54.5187C68.0995 54.3002 69.2268 54.1909 70.3567 54.1921C70.8768 54.3361 71.419 54.0506 71.5946 53.5404Z" fill="#932B00"/>
<path fill-rule="evenodd" clip-rule="evenodd" d="M56.2987 43.6094C55.8223 44.1419 56.1012 44.9901 56.8004 45.1365C57.0123 45.1808 57.2332 45.1496 57.4243 45.0484C58.4394 44.5603 59.4195 44.2353 60.3376 43.7324C60.7336 43.5298 61.1136 43.2965 61.4735 43.0352L62.5222 42.196C63.3428 41.4903 64.0312 40.7444 64.8567 40.0691C65.3599 39.8034 65.5492 39.1782 65.2774 38.6783C64.9909 38.2034 64.3845 38.0327 63.8922 38.2885C62.8134 38.6114 61.7597 39.0127 60.7393 39.4885C60.3044 39.6782 59.8924 39.9175 59.5118 40.2013C59.1048 40.4579 58.7245 40.7544 58.377 41.0868C57.6583 41.838 57.174 42.6742 56.2987 43.6094Z" fill="#932B00"/>
</svg>
