<svg width="135" height="176" viewBox="0 0 135 176" fill="none" xmlns="http://www.w3.org/2000/svg">
<mask id="mask0_26_2828" style="mask-type:luminance" maskUnits="userSpaceOnUse" x="86" y="16" width="49" height="52">
<path d="M134.647 31.7631L104.282 16.5758L86.4906 52.1476L116.856 67.3349L134.647 31.7631Z" fill="white"/>
</mask>
<g mask="url(#mask0_26_2828)">
<path d="M98.7796 57.9207C98.9172 57.9895 99.1697 57.7656 99.4826 57.3496C99.6411 57.1374 99.8148 56.8741 100.004 56.5679C100.194 56.2627 100.381 55.876 100.667 55.4927C102.049 53.2542 103.632 51.1667 105.417 49.2327C108.062 46.4265 111.089 44.1194 114.494 42.3123C114.962 42.0557 115.466 41.8503 115.96 41.6129C116.452 41.3622 116.959 41.1417 117.478 40.9505L119.046 40.3694C119.583 40.1892 120.139 40.0458 120.691 39.8798L121.527 39.635L122.382 39.4547C122.959 39.3466 123.532 39.1907 124.117 39.1144L125.891 38.8966C126.19 38.8488 126.491 38.8253 126.792 38.827L127.701 38.7911L128.553 38.7535C128.836 38.7485 129.118 38.7804 129.395 38.7888L131.063 38.8787L131.671 34.3847C127.441 33.672 123.454 32.2691 119.71 30.1784L118.442 29.4418L117.26 28.6826L116.679 28.3084L116.123 27.9108L115.038 27.1331C113.742 26.1516 112.505 25.1029 111.326 23.9847C109.62 22.3346 108.022 20.5873 106.532 18.7393C106.245 18.4171 106.014 18.1194 105.807 17.8543C105.601 17.59 105.403 17.3921 105.237 17.2251C104.883 16.8929 104.659 16.7537 104.528 16.8182C104.397 16.8828 104.361 17.152 104.472 17.6293C104.518 17.8617 104.595 18.1435 104.695 18.4765C104.804 18.8565 104.94 19.2264 105.102 19.5863C106.122 21.9249 107.445 24.0799 109.07 26.0461C110.192 27.4269 111.407 28.7162 112.718 29.9175L113.81 30.8596L114.385 31.3445C114.587 31.5022 114.794 31.654 114.999 31.8067L116.252 32.748L117.601 33.6305C121.695 36.2547 126.134 37.9949 130.922 38.8502L131.522 34.367L129.555 34.2494C129.227 34.2401 128.895 34.204 128.564 34.2107L127.572 34.2365L126.509 34.2775C126.158 34.2842 125.806 34.3118 125.456 34.3613L123.386 34.6386C122.704 34.74 122.043 34.9253 121.379 35.067L120.395 35.2942L119.437 35.5952C118.812 35.8048 118.166 36.0018 117.562 36.2198L115.779 36.9636C115.196 37.2068 114.629 37.481 114.076 37.7854C113.529 38.0781 112.972 38.3464 112.45 38.66C108.715 40.8689 105.548 43.7094 102.948 47.1841C101.218 49.4897 99.9228 52.0168 99.0551 54.7661C98.9217 55.188 98.821 55.62 98.753 56.0578C98.6875 56.4403 98.643 56.7682 98.6254 57.0341C98.5775 57.5785 98.6387 57.8796 98.7796 57.9207Z" fill="#F84900"/>
</g>
<mask id="mask1_26_2828" style="mask-type:luminance" maskUnits="userSpaceOnUse" x="0" y="11" width="123" height="162">
<path d="M122.566 39.0539L66.5094 11.0168L-9.35096e-06 143.994L56.0567 172.031L122.566 39.0539Z" fill="white"/>
</mask>
<g mask="url(#mask1_26_2828)">
<path d="M40.0817 163.876C40.3644 163.625 37.4324 160.33 33.1748 153.731C30.6137 149.72 28.4267 145.514 26.613 141.116C25.4868 138.39 24.5612 135.6 23.8368 132.742C23.0178 129.558 22.4788 126.329 22.2242 123.052C21.9596 119.464 22.1119 115.893 22.6785 112.341C23.2837 108.506 24.357 104.809 25.8999 101.246C27.5411 97.4449 29.7022 93.9626 32.3791 90.8033C35.181 87.4611 38.5054 84.7641 42.3531 82.7104C49.984 78.4638 60.144 78.221 68.8525 82.067C71.0626 83.0109 73.1074 84.2349 74.986 85.7366C76.863 87.2374 78.506 88.9629 79.9149 90.9132C80.5975 91.9006 81.1971 92.9365 81.7136 94.0211C82.2428 95.1015 82.6645 96.2205 82.9823 97.3797C83.6421 99.7124 83.8465 102.084 83.5929 104.494C83.4828 105.637 83.2252 106.747 82.8199 107.822C82.4147 108.896 81.8769 109.9 81.2032 110.832C80.5539 111.719 79.7754 112.475 78.867 113.096C78.4215 113.408 77.9552 113.687 77.4686 113.934C77.222 114.054 76.9612 114.148 76.7095 114.257L76.332 114.416L75.9328 114.539C74.8599 114.881 73.7628 115.083 72.6405 115.143C72.0727 115.175 71.5065 115.175 70.9386 115.137C70.3716 115.109 69.8063 115.049 69.2427 114.955C68.1171 114.77 67.0233 114.466 65.9615 114.048C65.4348 113.848 64.9215 113.62 64.4182 113.364C64.1683 113.239 63.9377 113.088 63.6919 112.955C63.4462 112.822 63.2071 112.675 62.979 112.515L62.298 112.044C62.0732 111.89 61.861 111.689 61.6354 111.515C61.1867 111.171 60.7875 110.762 60.3766 110.364C59.5656 109.562 58.825 108.698 58.155 107.774C56.8073 105.907 55.7172 103.898 54.8879 101.749C54.0477 99.6047 53.413 97.402 52.9847 95.139C52.8757 94.5644 52.7894 93.9991 52.6905 93.4547L52.4944 91.7629C52.3293 90.638 52.2884 89.5082 52.218 88.391C52.0139 83.9815 52.3752 79.6199 53.3042 75.3054C54.1854 71.2291 55.5254 67.3088 57.3259 63.5455C58.9997 60.0228 61.0492 56.7343 63.4745 53.6797C65.7177 50.8676 68.2419 48.3323 71.0445 46.0747C73.5863 43.999 76.31 42.1969 79.2165 40.6707C81.8018 39.292 84.4843 38.1424 87.265 37.2201C88.5484 36.738 89.8443 36.4278 91.0816 36.0673C91.7081 35.8585 92.3138 35.7713 92.9152 35.6339L94.675 35.239C95.8417 35.0613 96.954 34.8459 98.0276 34.7118C99.0996 34.5769 100.126 34.4739 101.098 34.4044C104.101 34.2077 107.104 34.2122 110.105 34.4131C112.166 34.6364 113.278 34.6726 113.317 34.5032C113.353 34.3346 112.304 33.9965 110.243 33.5131C107.204 32.9138 104.135 32.6224 101.037 32.6396C100.026 32.6537 98.9681 32.714 97.8525 32.76C96.7353 32.8052 95.5702 32.9879 94.3523 33.0917L92.4935 33.4035C91.8603 33.5125 91.2094 33.5938 90.5585 33.7631C89.2558 34.0657 87.8961 34.344 86.5221 34.7809C83.5469 35.6394 80.6698 36.7546 77.8908 38.1223C74.751 39.6409 71.7992 41.4632 69.0368 43.59C65.9717 45.9197 63.2034 48.5615 60.7303 51.5103C58.0551 54.7124 55.7816 58.1763 53.9106 61.9044C51.8979 65.9076 50.3868 70.0904 49.3738 74.4552C48.2929 79.1027 47.836 83.8107 48.0032 88.5792C48.0618 89.7954 48.0926 91.025 48.2535 92.2463L48.4596 94.0941C48.5501 94.714 48.6415 95.3322 48.7605 95.9495C49.2089 98.4743 49.8872 100.938 50.7945 103.338C51.7462 105.85 53.0023 108.198 54.5639 110.384C55.3765 111.51 56.2739 112.562 57.2551 113.544C57.7608 114.021 58.2531 114.517 58.8067 114.949C59.0817 115.17 59.3384 115.408 59.6302 115.617L60.5151 116.242C60.8103 116.448 61.1139 116.638 61.4284 116.814C61.7488 116.974 62.0474 117.191 62.3703 117.346C64.3111 118.346 66.3568 119.031 68.5073 119.407C69.2262 119.521 69.95 119.596 70.6764 119.632C71.412 119.679 72.1484 119.682 72.884 119.645C74.3938 119.57 75.8693 119.304 77.3112 118.844L77.8589 118.676L78.3899 118.457C78.7455 118.307 79.1062 118.169 79.4493 118.003C80.1514 117.656 80.82 117.258 81.46 116.809C82.1084 116.364 82.7174 115.867 83.2862 115.321C83.5748 115.059 83.8264 114.752 84.0932 114.471C84.3616 114.181 84.6083 113.877 84.8365 113.555C85.7828 112.3 86.5261 110.936 87.0631 109.459C87.5774 108.016 87.9198 106.535 88.0878 105.012C88.2524 103.513 88.266 102.015 88.1303 100.512C88.0055 99.047 87.7448 97.6059 87.3432 96.1909C86.9483 94.7792 86.4301 93.4128 85.787 92.095C85.1606 90.7898 84.4318 89.5424 83.6074 88.3521C81.9595 86.0704 80.0356 84.0513 77.8366 82.2971C75.6367 80.5404 73.2397 79.1151 70.648 78.016C68.1704 76.932 65.6039 76.1432 62.9442 75.6538C60.3415 75.1553 57.717 74.952 55.0707 75.0439C52.4697 75.1333 49.9105 75.5122 47.3958 76.1795C46.786 76.3589 46.172 76.5467 45.5538 76.7387C44.9381 76.9299 44.3375 77.1705 43.7663 77.407C42.5793 77.8556 41.488 78.4862 40.3741 79.0447C36.091 81.3902 32.4092 84.458 29.328 88.2455C26.4522 91.7479 24.1543 95.5959 22.4343 99.7895C20.8981 103.511 19.8391 107.364 19.2573 111.349C18.6747 115.332 18.5869 119.327 18.9949 123.333C19.3627 126.786 20.0384 130.177 21.0201 133.51C21.8812 136.463 22.9587 139.336 24.2534 142.127C26.3036 146.581 28.7833 150.784 31.69 154.734C36.5206 161.155 39.9038 164.047 40.0817 163.876Z" fill="#F84900"/>
</g>
</svg>
