<svg width="99" height="112" viewBox="0 0 99 112" fill="none" xmlns="http://www.w3.org/2000/svg">
<g clip-path="url(#clip0_26_2812)">
<g clip-path="url(#clip1_26_2812)">
<path d="M56.4883 65.5026C49.3427 66.4088 49.9823 59.8608 46.9843 55.1861C43.9885 50.2194 40.6048 48.7673 34.8347 49.4917C29.8118 50.0511 25.9212 53.4782 25.7207 58.6593C25.5451 63.2601 26.1247 67.4972 25.493 71.8113C21.1258 79.1845 16.195 87.9961 26.7012 92.4465C32.6935 94.9162 36.7656 92.8556 41.4154 89.2592C46.2263 85.8095 50.0677 88.0266 55.5801 88.8195C65.2177 90.6077 75.3177 77.6095 69.0465 68.9021C65.7508 63.9496 61.6543 64.7944 56.4883 65.5026Z" fill="#C8BFF4"/>
<path d="M46.6557 79.4064C45.6399 81.6152 43.017 82.5724 40.8086 81.558C38.5985 80.5428 37.6334 77.9375 38.6492 75.7287C39.6642 73.5216 42.2718 72.5554 44.482 73.5706C46.6904 74.585 47.6707 77.1993 46.6557 79.4064Z" fill="#47586E"/>
<path d="M76.6575 53.123C74.285 58.2816 70.0553 62.0004 65.1252 63.8482C60.822 65.464 57.1168 68.3146 54.5228 72.0208L39.1195 64.9454C40.2423 60.5181 39.9324 55.8124 38.3646 51.4286C36.6233 46.5164 36.7141 40.944 39.0701 35.8446C43.6053 25.9833 55.3406 21.2525 65.4359 25.2424C76.5631 29.6264 81.5925 42.3924 76.6575 53.123Z" fill="#F94900"/>
<path d="M67.3954 23.7685C67.0211 23.5966 66.8591 23.1554 67.0303 22.7831L68.2166 20.2038C68.3878 19.8315 68.8274 19.6688 69.2017 19.8407C69.5743 20.0118 69.737 20.4513 69.5658 20.8236L68.3796 23.4029C68.2084 23.7752 67.7679 23.9396 67.3954 23.7685Z" fill="#4E2FDA"/>
<path d="M49.3501 23.0789C49.1772 22.9995 49.0338 22.856 48.9633 22.6618L47.9762 20.0012C47.8354 19.6172 48.0321 19.1896 48.4153 19.0464C48.8004 18.9039 49.2281 19.1004 49.3707 19.4852L50.357 22.1476C50.4995 22.5324 50.3037 22.9582 49.9187 23.1006C49.7253 23.1737 49.523 23.1584 49.3501 23.0789Z" fill="#4E2FDA"/>
<path d="M79.6561 36.998C79.4832 36.9186 79.3406 36.7733 79.2694 36.5809C79.1268 36.1961 79.3234 35.7686 79.7085 35.6261L82.3717 34.6422C82.7567 34.4997 83.1827 34.6954 83.3253 35.0802C83.4678 35.465 83.2712 35.8925 82.8862 36.035L80.2247 37.0197C80.0322 37.091 79.829 37.0774 79.6561 36.998Z" fill="#4E2FDA"/>
<path d="M43.5048 67.2165L49.9535 70.1787C52.2559 64.4355 59.3046 57.0233 63.0842 53.3115C61.6213 53.5867 60.5419 53.38 59.8199 52.6967C58.9737 51.8937 58.8911 50.6604 59.0197 49.6342C57.1041 50.612 55.6455 50.7511 54.5841 50.05C53.495 49.3339 53.2034 47.94 53.163 46.8167C51.8321 47.6358 50.6132 47.8592 49.5299 47.4824C48.7922 47.2277 48.2201 46.7254 47.7832 46.145C47.4235 51.4666 46.3756 61.7301 43.5048 67.2165ZM50.0641 71.8628L42.1521 68.2285C41.9596 68.1401 41.8155 67.9746 41.7527 67.7732C41.6899 67.5717 41.7178 67.3515 41.8268 67.1708C45.8163 60.5757 46.4459 43.5932 46.4705 42.8731C46.4819 42.4964 46.7772 42.1876 47.1536 42.1577C47.5318 42.1286 47.8694 42.3851 47.9422 42.7572C47.9972 43.0414 48.5255 45.5776 50.0175 46.0796C51.1363 46.4683 52.5404 45.5512 53.5188 44.7146C53.7552 44.5104 54.0938 44.4782 54.3684 44.6324C54.6403 44.7875 54.7874 45.0967 54.7343 45.4046C54.6148 46.0962 54.484 48.2067 55.4027 48.81C56.1427 49.2944 57.6977 48.8285 59.7496 47.4839C60.0203 47.3084 60.3738 47.3283 60.6235 47.5272C60.8733 47.7304 60.967 48.0712 60.8505 48.3715C60.6146 48.9924 60.103 50.9215 60.8422 51.6192C61.152 51.9126 62.2501 52.4213 65.7195 50.8627C66.0517 50.7132 66.4442 50.8266 66.6448 51.1323C66.8453 51.438 66.7928 51.8433 66.5243 52.0889C66.393 52.2055 53.5599 63.9471 51.0784 71.4225C51.0121 71.6229 50.8638 71.7857 50.67 71.8693C50.4761 71.9528 50.2548 71.9504 50.0641 71.8628Z" fill="#F6F8F9"/>
<path d="M52.5312 79.3522C52.242 79.981 51.7311 80.4347 51.1275 80.658C50.5281 80.8724 49.8407 80.8695 49.2204 80.5846L36.0807 74.549C34.8312 73.975 34.2804 72.4922 34.8588 71.2346C35.1439 70.6147 35.6637 70.1652 36.2601 69.9386C36.8637 69.7153 37.538 69.723 38.1672 70.012L51.307 76.0476C52.5565 76.6215 53.1055 78.1036 52.5312 79.3522Z" fill="#A3ADBB"/>
</g>
</g>
<defs>
<clipPath id="clip0_26_2812">
<rect width="99" height="111" fill="white" transform="translate(0 0.799561)"/>
</clipPath>
<clipPath id="clip1_26_2812">
<rect width="99" height="111" fill="white" transform="translate(0 0.799561)"/>
</clipPath>
</defs>
</svg>
