<svg width="972" height="357" viewBox="0 0 972 357" fill="none" xmlns="http://www.w3.org/2000/svg">
<path d="M165.531 328.003H137.006C129.239 328.003 122.941 321.706 122.941 313.937V283.351C122.941 275.582 129.239 269.286 137.006 269.286H151.467C159.234 269.286 165.531 262.989 165.531 255.22V226.29C165.531 218.521 171.829 212.224 179.596 212.224H260.635" stroke="black" stroke-width="3" stroke-linecap="round" stroke-linejoin="round"/>
<path d="M140.395 145.347C140.395 129.967 128.219 117.501 113.196 117.501C98.1748 117.501 85.999 129.967 85.999 145.347C85.999 154.853 90.651 163.238 97.7557 168.265C98.8523 169.04 99.6126 170.275 99.6126 171.64V180.876C99.6126 184.973 102.858 184.632 106.857 184.632H119.536C123.534 184.632 126.78 184.973 126.78 180.876V171.64C126.78 170.275 127.539 169.04 128.64 168.265C135.743 163.238 140.395 154.853 140.395 145.347Z" fill="#E8F2FC" stroke="black" stroke-width="3" stroke-linecap="round" stroke-linejoin="round"/>
<path d="M117.874 156.996V175.955" stroke="black" stroke-width="3" stroke-linecap="round" stroke-linejoin="round"/>
<path d="M108.091 155.396V175.955" stroke="black" stroke-width="3" stroke-linecap="round" stroke-linejoin="round"/>
<path d="M120.701 190.891C120.701 195.346 117.175 198.953 112.823 198.953C108.48 198.953 104.952 195.346 104.952 190.891C104.952 186.443 108.48 186.493 112.823 186.493C117.175 186.493 120.701 186.443 120.701 190.891Z" fill="#E85319"/>
<path d="M99.6045 174.712V183.34C99.6045 186.251 101.926 188.615 104.783 188.615H121.612C124.475 188.615 126.791 186.252 126.791 183.34V174.712H99.6045Z" fill="white" stroke="black" stroke-width="3" stroke-linecap="round" stroke-linejoin="round"/>
<path d="M107.806 155.307C106.881 156.03 105.776 156.416 104.607 156.416C101.707 156.416 99.3447 153.999 99.3447 151.026C99.3447 148.052 104.453 142.052 112.841 151.05C116.284 154.614 118.102 156.416 120.985 156.416C123.887 156.416 126.249 153.999 126.249 151.026C126.249 148.052 123.887 145.636 120.985 145.636C119.818 145.636 118.714 146.02 117.788 146.743" stroke="black" stroke-width="3" stroke-miterlimit="10" stroke-linecap="round"/>
<path d="M59.7031 144.703H72.4649" stroke="black" stroke-width="3" stroke-linecap="round" stroke-linejoin="round"/>
<path d="M153.726 144.703H166.489" stroke="black" stroke-width="3" stroke-linecap="round" stroke-linejoin="round"/>
<path d="M75.3408 182.457L84.3654 173.432" stroke="black" stroke-width="3" stroke-linecap="round" stroke-linejoin="round"/>
<path d="M141.826 115.972L150.851 106.948" stroke="black" stroke-width="3" stroke-linecap="round" stroke-linejoin="round"/>
<path d="M113.097 104.07V91.3096" stroke="black" stroke-width="3" stroke-linecap="round" stroke-linejoin="round"/>
<path d="M150.851 182.457L141.826 173.432" stroke="black" stroke-width="3" stroke-linecap="round" stroke-linejoin="round"/>
<path d="M84.3654 115.972L75.3408 106.948" stroke="black" stroke-width="3" stroke-linecap="round" stroke-linejoin="round"/>
<path d="M574.843 269.583V247.186H539.53H537.767H502.448V269.583C502.448 281.836 493.262 291.92 481.406 293.379V293.573H537.767H539.53H595.888V293.379C584.037 291.92 574.843 281.836 574.843 269.583Z" fill="white" stroke="black" stroke-width="3" stroke-linecap="round" stroke-linejoin="round"/>
<path d="M694.405 250.119C694.405 256.607 689.15 261.863 682.666 261.863H394.634C388.152 261.863 382.89 256.607 382.89 250.119V91.2105C382.89 84.7152 388.152 79.4636 394.634 79.4636H682.666C689.15 79.4636 694.405 84.7152 694.405 91.2105V250.119Z" fill="#DDDDDD" stroke="black" stroke-width="3" stroke-linecap="round" stroke-linejoin="round"/>
<path d="M694.405 220.377C694.405 226.861 689.15 232.119 682.666 232.119H394.634C388.152 232.119 382.89 226.861 382.89 220.377V61.4523C382.89 54.9731 388.152 49.7117 394.634 49.7117H682.666C689.15 49.7117 694.405 54.9731 694.405 61.4523V220.377Z" fill="#E85319" stroke="black" stroke-width="3" stroke-linecap="round" stroke-linejoin="round"/>
<path d="M679.954 63.023H397.346V218.024H679.954V63.023Z" fill="#E8F2FC" stroke="black" stroke-width="3" stroke-linecap="round" stroke-linejoin="round"/>
<path d="M616.486 303.29C616.486 307.105 613.39 310.207 609.573 310.207H467.725C463.905 310.207 460.797 307.105 460.797 303.29V300.489C460.797 296.666 463.905 293.571 467.725 293.571H609.573C613.39 293.571 616.486 296.666 616.486 300.489V303.29Z" fill="#E85319" stroke="black" stroke-width="3" stroke-linecap="round" stroke-linejoin="round"/>
<path d="M428.755 336.705H190.676V201.888C190.676 195.551 195.814 190.414 202.149 190.414H417.282C423.619 190.414 428.756 195.551 428.756 201.888V336.705H428.755Z" fill="#E8F2FC" stroke="black" stroke-width="3" stroke-linecap="round" stroke-linejoin="round"/>
<path d="M416.576 205.775H202.852V321.348H416.576V205.775Z" fill="#E85319"/>
<path d="M446.769 343.69C442.771 347.481 437.438 349.614 431.924 349.614H188.824C183.283 349.614 177.899 347.611 173.704 343.989L167.697 338.8C166.576 337.832 167.262 335.99 168.743 335.99H450.569C452.119 335.99 452.877 337.885 451.751 338.954L446.769 343.69Z" fill="#DB4405" stroke="black" stroke-width="3" stroke-linecap="round" stroke-linejoin="round"/>
<path d="M267.047 338.783L272.626 343.301C275.507 345.632 279.116 346.91 282.824 346.91H336.607C340.312 346.91 343.923 345.632 346.802 343.301L352.384 338.783H267.047Z" fill="#F5F5F5"/>
<path d="M619.179 126.282C619.179 131.13 615.248 135.062 610.4 135.062C605.553 135.062 601.623 131.131 601.623 126.282C601.623 121.435 605.554 117.504 610.4 117.504C615.247 117.504 619.179 121.435 619.179 126.282Z" fill="black"/>
<path d="M562.337 184.245C562.337 189.092 558.405 193.023 553.558 193.023C548.711 193.023 544.779 189.092 544.779 184.245C544.779 179.397 548.711 175.465 553.558 175.465C558.405 175.465 562.337 179.396 562.337 184.245Z" fill="black"/>
<path d="M507.061 126.282C507.061 131.13 503.131 135.062 498.283 135.062C493.436 135.062 489.505 131.131 489.505 126.282C489.505 121.435 493.436 117.504 498.283 117.504C503.131 117.504 507.061 121.435 507.061 126.282Z" fill="black"/>
<path d="M485.031 185.494H623.35" stroke="black" stroke-width="3" stroke-linecap="round" stroke-linejoin="round"/>
<path d="M610.698 127.256C610.451 158.252 585.248 183.302 554.189 183.302C522.982 183.302 497.681 158.003 497.681 126.791C497.681 126.647 497.681 126.503 497.682 126.357" stroke="black" stroke-width="3" stroke-linecap="round" stroke-linejoin="round"/>
<path d="M531.586 331.98H422.973V349.753H531.586V331.98Z" fill="white" stroke="black" stroke-width="3" stroke-linecap="round" stroke-linejoin="round"/>
<path d="M531.587 349.753H424.591C419.683 349.753 415.706 345.772 415.706 340.866C415.706 335.959 419.683 331.979 424.591 331.979H531.587V349.753Z" fill="#E8F2FC" stroke="black" stroke-width="3" stroke-linecap="round" stroke-linejoin="round"/>
<path d="M428.529 331.98H415.528C410.62 331.98 406.642 335.96 406.642 340.867C406.642 345.773 410.62 349.754 415.528 349.754H428.529V331.98Z" fill="white" stroke="black" stroke-width="3" stroke-linecap="round" stroke-linejoin="round"/>
<path d="M543.992 338.026L531.532 332.011V349.727L543.992 343.715V338.026Z" fill="white" stroke="black" stroke-width="3" stroke-linecap="round" stroke-linejoin="round"/>
<path d="M546.074 340.871H552.247" stroke="black" stroke-width="3" stroke-linecap="round" stroke-linejoin="round"/>
<path d="M270.714 311.888C267.477 311.888 264.845 309.255 264.845 306.014V223.537C264.845 220.299 267.477 217.665 270.714 217.665H353.196C356.433 217.665 359.066 220.298 359.066 223.537V306.014C359.066 309.255 356.432 311.888 353.196 311.888H270.714Z" fill="#E8F2FC" stroke="black" stroke-width="3" stroke-linecap="round" stroke-linejoin="round"/>
<path d="M358.815 293.621L332.616 267.423L321.471 278.563L298.367 255.457L265.229 288.589" stroke="black" stroke-width="3" stroke-linecap="round" stroke-linejoin="round"/>
<path d="M332.818 249.202C337.238 249.202 340.817 245.616 340.817 241.201C340.817 236.783 337.238 233.207 332.818 233.207C328.401 233.207 324.818 236.784 324.818 241.201C324.818 245.616 328.401 249.202 332.818 249.202Z" fill="#E85319"/>
<path d="M171.487 349.548C159.138 349.548 149.131 339.538 149.131 327.191C149.131 314.845 159.14 304.836 171.487 304.836H201.114C213.46 304.836 223.469 314.845 223.469 327.191C223.469 339.538 213.46 349.548 201.114 349.548H171.487Z" fill="#E8F2FC" stroke="black" stroke-width="3" stroke-linecap="round" stroke-linejoin="round"/>
<path d="M153.845 340.854C154.608 341.804 155.505 342.652 156.413 343.477C161.794 344.174 168.723 344.369 172.998 341.671C178.175 338.419 179.017 332.661 178.976 329.055C178.96 328.218 178.944 325.749 178.931 324.926C178.885 321.306 177.912 315.576 172.673 312.438C168.336 309.846 161.434 310.19 156.071 310.99C155.179 311.855 154.305 312.722 153.565 313.683" stroke="black" stroke-width="3" stroke-linecap="round" stroke-linejoin="round"/>
<path d="M178.535 327.021H149.299" stroke="black" stroke-width="3" stroke-linecap="round" stroke-linejoin="round"/>
<path d="M456.83 175.737C456.83 177.839 455.126 179.545 453.023 179.545H421.921C419.818 179.545 418.114 177.84 418.114 175.737V84.2127C418.114 82.111 419.818 80.4062 421.921 80.4062H453.023C455.125 80.4062 456.83 82.111 456.83 84.2127V175.737Z" fill="white" stroke="black" stroke-width="3" stroke-linecap="round" stroke-linejoin="round"/>
<path d="M434.786 126.83C434.786 127.671 434.105 128.354 433.264 128.354H425.063C424.223 128.354 423.541 127.671 423.541 126.83V118.63C423.541 117.79 424.223 117.107 425.063 117.107H433.264C434.105 117.107 434.786 117.79 434.786 118.63V126.83Z" fill="#E85319"/>
<path d="M450.899 126.83C450.899 127.671 450.217 128.354 449.377 128.354H441.176C440.335 128.354 439.654 127.671 439.654 126.83V118.63C439.654 117.79 440.335 117.107 441.176 117.107H449.377C450.218 117.107 450.899 117.79 450.899 118.63V126.83Z" fill="#DB4405"/>
<path d="M434.786 141.601C434.786 142.442 434.105 143.123 433.264 143.123H425.063C424.223 143.123 423.541 142.44 423.541 141.601V133.401C423.541 132.56 424.223 131.878 425.063 131.878H433.264C434.105 131.878 434.786 132.56 434.786 133.401V141.601Z" fill="#DB4405"/>
<path d="M450.899 141.601C450.899 142.442 450.217 143.123 449.377 143.123H441.176C440.335 143.123 439.654 142.44 439.654 141.601V133.401C439.654 132.56 440.335 131.878 441.176 131.878H449.377C450.218 131.878 450.899 132.56 450.899 133.401V141.601Z" fill="#E8F2FC"/>
<path d="M434.786 156.37C434.786 157.211 434.105 157.892 433.264 157.892H425.063C424.223 157.892 423.541 157.21 423.541 156.37V148.169C423.541 147.329 424.223 146.647 425.063 146.647H433.264C434.105 146.647 434.786 147.33 434.786 148.169V156.37Z" fill="#DDDDDD"/>
<path d="M450.899 156.37C450.899 157.211 450.217 157.892 449.377 157.892H441.176C440.335 157.892 439.654 157.21 439.654 156.37V148.169C439.654 147.329 440.335 146.647 441.176 146.647H449.377C450.218 146.647 450.899 147.33 450.899 148.169V156.37Z" fill="#E85319"/>
<path d="M434.786 171.14C434.786 171.98 434.105 172.663 433.264 172.663H425.063C424.223 172.663 423.541 171.98 423.541 171.14V162.94C423.541 162.099 424.223 161.418 425.063 161.418H433.264C434.105 161.418 434.786 162.1 434.786 162.94V171.14Z" fill="#E8F2FC"/>
<path d="M450.899 171.14C450.899 171.98 450.217 172.663 449.377 172.663H441.176C440.335 172.663 439.654 171.98 439.654 171.14V162.94C439.654 162.099 440.335 161.418 441.176 161.418H449.377C450.218 161.418 450.899 162.1 450.899 162.94V171.14Z" fill="#DDDDDD"/>
<path d="M494.874 102.158C494.874 102.998 494.191 103.68 493.351 103.68H435.302C434.461 103.68 433.78 102.998 433.78 102.158V75.8306C433.78 74.9887 434.463 74.3076 435.302 74.3076H493.351C494.192 74.3076 494.874 74.9887 494.874 75.8306V102.158Z" fill="white" stroke="black" stroke-width="3" stroke-linecap="round" stroke-linejoin="round"/>
<path d="M443.346 83.7062H485.976" stroke="black" stroke-width="3" stroke-linecap="round" stroke-linejoin="round"/>
<path d="M443.346 91.7635H485.976" stroke="black" stroke-width="3" stroke-linecap="round" stroke-linejoin="round"/>
<path d="M337.048 54.2109C334.133 54.2109 331.768 56.5734 331.768 59.4909V59.4934H331.614C331.614 59.533 331.626 59.5701 331.626 59.6072C331.626 62.0376 329.657 64.007 327.226 64.007C324.798 64.007 322.83 62.0376 322.83 59.6072C322.83 59.3748 322.862 59.151 322.897 58.9272C322.813 56.3089 320.68 54.2109 318.041 54.2109C315.351 54.2109 313.168 56.3917 313.168 59.0842V59.4934H313.012C313.016 59.533 313.024 59.5701 313.024 59.6072C313.024 62.0376 311.055 64.007 308.627 64.007C306.196 64.007 304.227 62.0376 304.227 59.6072C304.227 59.3649 304.259 59.1312 304.299 58.9C304.197 56.2952 302.074 54.2109 299.444 54.2109C296.749 54.2109 294.568 56.3917 294.568 59.0842V59.4934H294.5C294.503 59.533 294.511 59.5701 294.511 59.6072C294.511 62.0376 292.543 64.007 290.113 64.007C287.684 64.007 285.713 62.0376 285.713 59.6072C285.713 59.5689 285.725 59.533 285.725 59.4934H285.717V59.0842C285.717 56.3917 283.537 54.2109 280.846 54.2109C278.151 54.2109 275.974 56.3917 275.974 59.0842V59.4934H275.899C275.901 59.533 275.915 59.5701 275.915 59.6072C275.915 62.0376 273.944 64.007 271.512 64.007C269.082 64.007 267.115 62.0376 267.115 59.6072C267.115 59.5689 267.124 59.533 267.124 59.4934H267.119V59.0842C267.119 56.3917 264.937 54.2109 262.248 54.2109C259.554 54.2109 257.376 56.3917 257.376 59.0842V59.4934H257.31H257.204C257.207 59.533 257.216 59.5701 257.216 59.6072C257.216 62.0376 255.247 64.007 252.818 64.007C250.389 64.007 248.419 62.0376 248.419 59.6072C248.419 59.423 248.45 59.2449 248.472 59.0657C248.233 56.3472 245.978 54.2109 243.201 54.2109C240.264 54.2109 237.883 56.5907 237.883 59.5305V59.4934H237.776C237.776 59.533 237.788 59.5701 237.788 59.6072C237.788 62.0376 235.818 64.007 233.388 64.007C230.959 64.007 228.989 62.0376 228.989 59.6072C228.989 59.423 229.02 59.2449 229.045 59.0657C228.805 56.3472 226.549 54.2109 223.771 54.2109C220.832 54.2109 218.45 56.5907 218.45 59.5305V155.09H237.881H257.308H322.913L342.332 135.673V59.4909C342.331 56.5734 339.966 54.2109 337.048 54.2109Z" fill="#DDDDDD"/>
<path d="M332.68 74.5449H228.1V82.2431H332.68V74.5449Z" fill="#DB4405"/>
<path d="M332.599 87.501H270.341V91.8315H332.599V87.501Z" fill="#DB4405"/>
<path d="M332.599 97.75H270.341V102.081H332.599V97.75Z" fill="#DB4405"/>
<path d="M332.599 107.999H270.341V112.329H332.599V107.999Z" fill="#DB4405"/>
<path d="M332.599 118.249H270.341V122.58H332.599V118.249Z" fill="#DB4405"/>
<path d="M311.507 128.5H270.341V132.829H311.507V128.5Z" fill="#DB4405"/>
<path d="M263.743 87.501H228.1V132.829H263.743V87.501Z" fill="#E8F2FC"/>
<path d="M322.911 155.089L332.598 145.401L322.885 135.688L303.482 155.089H322.911Z" fill="#C9C9C9"/>
<path d="M342.313 135.688H322.886V155.089H322.912L342.313 135.688Z" fill="#E8F2FC"/>
<path d="M280.994 39.5137V64.3536" stroke="black" stroke-width="3" stroke-linecap="round" stroke-linejoin="round"/>
<path d="M273.222 0.119653L272.771 30.1661L289.347 30.4147L289.797 0.368306L273.222 0.119653Z" fill="#DB4405"/>
<path d="M268.649 3.30367C268.62 5.15557 270.099 6.67985 271.951 6.70704L290.872 6.99634C292.724 7.02106 294.247 5.54745 294.277 3.69431C294.305 1.83995 292.826 0.316884 290.974 0.28845L272.053 0.000402657C270.2 -0.028031 268.676 1.45301 268.649 3.30367Z" fill="#E85319"/>
<path d="M263.47 38.8687C262.006 38.8452 261.179 37.1367 262.167 36.0562C266.84 30.9258 273.606 27.7474 281.092 27.8624C288.575 27.9737 295.242 31.3573 299.758 36.6274C300.712 37.74 299.834 39.4201 298.368 39.3978L263.47 38.8687Z" fill="#E85319"/>
<path d="M798.469 248.667L730.92 316.206L738.934 324.222L806.483 256.682L798.469 248.667Z" fill="#DDDDDD"/>
<path d="M738.889 160.75L730.875 168.766L798.425 236.306L806.439 228.291L738.889 160.75Z" fill="#DDDDDD"/>
<path d="M675.883 189.564C685.884 191.459 692.455 201.105 690.562 211.112C688.672 221.122 679.017 227.692 669.011 225.797C659.006 223.904 652.43 214.255 654.324 204.246C656.225 194.243 665.871 187.669 675.883 189.564Z" fill="#DDDDDD"/>
<path d="M753.531 143.531L735.642 125.6C732.064 122.017 726.262 122.007 722.676 125.581L697.681 150.516L642.534 167.226C637.725 168.685 636.196 174.74 639.746 178.307L700.587 239.298C704.145 242.857 710.202 241.35 711.678 236.541L728.516 181.433L753.513 156.5C757.1 152.92 757.105 147.116 753.531 143.531Z" fill="#E85319" stroke="black" stroke-width="3" stroke-linecap="round" stroke-linejoin="round"/>
<path d="M828.604 242.521C828.604 251.37 821.435 258.539 812.585 258.539C803.739 258.539 796.568 251.37 796.568 242.521C796.568 233.675 803.739 226.502 812.585 226.502C821.435 226.503 828.604 233.675 828.604 242.521Z" fill="#E85319" stroke="black" stroke-width="3" stroke-linecap="round" stroke-linejoin="round"/>
<path d="M727.827 312.236C719.513 312.236 712.771 318.973 712.771 327.283V343.709H742.873V327.283C742.873 318.973 736.137 312.236 727.827 312.236Z" fill="#E85319" stroke="black" stroke-width="3" stroke-linecap="round" stroke-linejoin="round"/>
<path d="M780.993 333.334H674.658C670.937 333.334 667.924 336.345 667.924 340.061V349.218C667.924 350.33 668.828 351.236 669.943 351.236H785.702C786.812 351.236 787.72 350.331 787.72 349.218V340.061C787.719 336.347 784.717 333.334 780.993 333.334Z" fill="#E85319" stroke="black" stroke-width="3" stroke-linecap="round" stroke-linejoin="round"/>
<path d="M751.966 142.636L739.373 130.046C742.947 133.631 742.942 139.434 739.352 143.014L714.357 167.946L697.518 223.053C696.076 227.758 690.255 229.288 686.671 226.023L699.018 238.402C702.576 241.961 708.633 240.454 710.109 235.644L726.949 180.537L751.945 155.604C755.534 152.025 755.538 146.221 751.966 142.636Z" fill="#AC3D0F"/>
<path d="M653.276 163.969L642.533 167.225C637.724 168.684 636.195 174.739 639.745 178.306L700.586 239.297C704.144 242.856 710.201 241.349 711.677 236.54L715.023 225.59L653.276 163.969Z" fill="#E8F2FC" stroke="black" stroke-width="3" stroke-linecap="round" stroke-linejoin="round"/>
<path d="M711.678 236.539L715.024 225.588L701.998 212.592C701.011 212.463 700.421 212.388 700.421 212.388L695.051 232.976L696.073 234.772L700.585 239.296C704.145 242.856 710.202 241.348 711.678 236.539Z" fill="#DDDDDD"/>
<path d="M753.531 143.531L735.642 125.6C732.064 122.017 726.262 122.007 722.676 125.581L697.681 150.516L642.534 167.226C637.725 168.685 636.196 174.74 639.746 178.307L700.587 239.298C704.145 242.857 710.202 241.35 711.678 236.541L728.516 181.433L753.513 156.5C757.1 152.92 757.105 147.116 753.531 143.531Z" stroke="black" stroke-width="3" stroke-linecap="round" stroke-linejoin="round"/>
<path d="M653.276 163.969L642.533 167.225C637.724 168.684 636.195 174.739 639.745 178.306L700.586 239.297C704.144 242.856 710.201 241.349 711.677 236.54L715.023 225.59L653.276 163.969Z" stroke="black" stroke-width="3" stroke-linecap="round" stroke-linejoin="round"/>
<path d="M842.839 187.846C847.298 194.934 855.985 239.63 855.985 297.588" stroke="black" stroke-width="3" stroke-linecap="round" stroke-linejoin="round"/>
<path d="M886.098 210.08C877.427 218.264 861.504 238.457 861.504 297.589" stroke="black" stroke-width="3" stroke-linecap="round" stroke-linejoin="round"/>
<path d="M862.114 193.554C862.114 188.49 858.449 184.286 853.636 183.429C852.775 178.61 848.573 174.952 843.511 174.952C838.446 174.952 834.245 178.61 833.386 183.429C828.569 184.286 824.91 188.49 824.91 193.554C824.91 198.62 828.571 202.817 833.386 203.679C834.245 208.494 838.447 212.154 843.511 212.154C848.574 212.154 852.775 208.494 853.636 203.679C858.449 202.818 862.114 198.62 862.114 193.554Z" fill="#E8F2FC"/>
<path d="M895.853 221.735C897.459 217.717 895.888 213.215 892.338 211.007C893.186 206.909 891.012 202.668 886.993 201.06C882.973 199.452 878.474 201.023 876.262 204.573C872.167 203.727 867.927 205.901 866.318 209.92C864.711 213.94 866.282 218.435 869.833 220.65C868.986 224.743 871.157 228.984 875.177 230.591C879.198 232.2 883.695 230.627 885.906 227.079C890.002 227.925 894.242 225.755 895.853 221.735Z" fill="#E85319"/>
<path d="M848.17 193.554C848.17 196.126 846.084 198.211 843.512 198.211C840.938 198.211 838.854 196.128 838.854 193.554C838.854 190.981 840.939 188.896 843.512 188.896C846.084 188.896 848.17 190.981 848.17 193.554Z" fill="#E85319"/>
<path d="M885.742 215.827C885.742 218.4 883.657 220.484 881.084 220.484C878.511 220.484 876.426 218.401 876.426 215.827C876.426 213.255 878.51 211.168 881.084 211.168C883.658 211.168 885.742 213.254 885.742 215.827Z" fill="#E8F2FC"/>
<path d="M861.145 294.41C857.745 272.634 851.261 240.8 807.182 240.242C836.439 256.932 818.357 276.759 861.145 294.41Z" fill="#DDDDDD" stroke="black" stroke-width="3" stroke-linecap="round" stroke-linejoin="round"/>
<path d="M885.098 349.621C884.917 351.763 883.122 353.413 880.972 353.413H836.219C834.068 353.413 832.274 351.763 832.092 349.621L827.041 289.634H890.149L885.098 349.621Z" fill="#DB4405"/>
<path d="M897.533 299.926C897.533 302.028 895.829 303.734 893.726 303.734H823.462C821.36 303.734 819.655 302.028 819.655 299.926V288.742C819.655 286.639 821.36 284.935 823.462 284.935H893.726C895.829 284.935 897.533 286.639 897.533 288.742V299.926Z" fill="#E85319"/>
<path d="M888.347 311.027L888.988 303.418H828.2L828.842 311.027H888.347Z" fill="#AC3D0F"/>
<path d="M680.898 293.01H590.194L569.425 308.972L555.016 311.302C555.016 316.437 555.016 311.424 555.016 323.979L569.425 326.308L590.194 342.27H680.898V293.01Z" fill="#E8F2FC" stroke="black" stroke-width="3" stroke-linecap="round" stroke-linejoin="round"/>
<path d="M555.016 311.303C555.016 316.437 555.016 311.424 555.016 323.979L569.425 326.308V308.973L555.016 311.303Z" fill="#E8F2FC" stroke="black" stroke-width="3" stroke-linecap="round" stroke-linejoin="round"/>
<path d="M672.105 283.267C665.96 283.267 660.978 284.923 660.975 286.965V348.314V348.318C660.975 350.354 665.955 352.011 672.105 352.011C678.245 352.011 683.226 350.354 683.226 348.318V348.314V286.965C683.218 284.923 678.245 283.267 672.105 283.267Z" fill="#E8F2FC" stroke="black" stroke-width="3" stroke-linecap="round" stroke-linejoin="round"/>
<path d="M644.77 303.8H604.208V331.479H644.77V303.8Z" fill="white" stroke="black" stroke-width="3" stroke-linecap="round" stroke-linejoin="round"/>
<path d="M80.7125 228.637H61.7744V256.268H80.7125V228.637Z" fill="#E85319"/>
<path d="M40.0575 350.388C36.9397 350.388 34.4141 347.862 34.4141 344.745V264.187C34.4141 261.068 35.9421 248.827 49.7732 248.827H92.7142C104.471 248.827 108.076 259.045 108.076 264.187V344.745C108.076 347.862 105.548 350.388 102.432 350.388H40.0575Z" fill="#E8F2FC" stroke="black" stroke-width="3" stroke-linecap="round" stroke-linejoin="round"/>
<path d="M81.2482 319.743H45.1943V272.135H97.2996V305.259L81.2482 319.743Z" fill="white" stroke="black" stroke-width="3" stroke-linecap="round" stroke-linejoin="round"/>
<path d="M89.5361 222.673H52.958V233.049C52.958 233.905 53.6528 234.599 54.5083 234.599H87.9846C88.8413 234.599 89.5348 233.904 89.5348 233.049L89.5361 222.673Z" fill="#DB4405" stroke="black" stroke-width="3" stroke-linecap="round" stroke-linejoin="round"/>
<path d="M81.248 319.744V304.395H97.2995" fill="#DDDDDD"/>
<path d="M81.248 319.744V304.395H97.2995" stroke="black" stroke-width="3" stroke-linecap="round" stroke-linejoin="round"/>
<path d="M51.5747 350.05C57.3999 350.05 60.0146 347.438 60.0146 341.611L55.7953 304.305C55.7953 290.615 44.6962 279.511 31.0073 279.511C17.3146 279.511 6.21931 290.613 6.21931 304.305L2 341.611C2 347.438 4.61343 350.05 10.4374 350.05H51.5747Z" fill="#E8F2FC" stroke="black" stroke-width="3" stroke-linecap="round" stroke-linejoin="round"/>
<path d="M6.21825 304.305L2.95703 333.135H59.0567L55.7942 304.305C55.7942 303.8 55.7485 303.3 55.7151 302.805H6.29613C6.26523 303.3 6.21825 303.8 6.21825 304.305Z" fill="#DB4405" stroke="black" stroke-width="3" stroke-linecap="round" stroke-linejoin="round"/>
<path d="M50.027 280.272C50.027 282.911 47.8846 285.046 45.2477 285.046H16.7707C14.1326 285.046 11.9951 282.911 11.9951 280.272V272.606C11.9951 269.973 14.1326 267.833 16.7707 267.833H45.2477C47.8846 267.833 50.027 269.973 50.027 272.606V280.272Z" fill="#DDDDDD" stroke="black" stroke-width="3" stroke-linecap="round" stroke-linejoin="round"/>
<path d="M863.231 323.284C865.909 343.759 882.701 357.671 903.111 354.566C922.45 351.619 918.574 339.332 932.901 336.988C941.06 335.657 945.96 338.714 948.725 342.172C950.293 344.14 955.243 347.376 960.917 345.662C969.73 342.995 970.676 334.798 970.279 330.969C968.881 317.436 937.564 274.181 895.437 281.362C875.083 284.835 860.549 302.811 863.231 323.284ZM924.017 319.542C931.094 321.7 927.913 327.816 925.184 328.475C916.758 330.514 913.935 332.613 907.955 338.814C897.561 349.603 882.529 331.275 899.56 322.748C905.099 319.984 914.428 316.633 924.017 319.542Z" fill="#E8F2FC" stroke="black" stroke-width="3" stroke-linecap="round" stroke-linejoin="round"/>
<path d="M880.306 308.562C884.088 308.562 887.157 311.628 887.157 315.416C887.157 319.2 884.09 322.267 880.305 322.267C876.522 322.267 873.452 319.2 873.452 315.416C873.452 311.628 876.518 308.562 880.306 308.562Z" fill="#E85319"/>
<path d="M950.29 316.286C953.594 316.286 956.269 318.963 956.269 322.267C956.269 325.57 953.594 328.248 950.29 328.248C946.986 328.248 944.309 325.572 944.309 322.265C944.309 318.963 946.986 316.286 950.29 316.286Z" fill="#E85319"/>
<path d="M932.178 297.793C935.965 297.793 939.033 300.863 939.032 304.649C939.033 308.432 935.966 311.5 932.178 311.5C928.396 311.5 925.327 308.432 925.327 304.649C925.327 300.864 928.396 297.794 932.178 297.793Z" fill="#E85319"/>
<path d="M902.574 290.942C906.361 290.942 909.426 294.011 909.426 297.794C909.426 301.58 906.361 304.649 902.574 304.649C898.787 304.649 895.721 301.58 895.721 297.792C895.721 294.011 898.787 290.942 902.574 290.942Z" fill="#E85319"/>
<path d="M914.795 72.1937C914.795 106.725 886.804 134.709 852.276 134.709C817.749 134.709 789.758 106.723 789.758 72.1937C789.758 37.6629 817.75 9.67676 852.276 9.67676C886.804 9.67676 914.795 37.6629 914.795 72.1937Z" fill="#E8F2FC" stroke="black" stroke-width="3" stroke-linecap="round" stroke-linejoin="round"/>
<path d="M809.774 72.1936C809.774 73.8959 808.399 75.2669 806.705 75.2669C805.01 75.2669 803.637 73.8959 803.637 72.1936C803.637 70.4975 805.01 69.124 806.705 69.124C808.399 69.124 809.774 70.4975 809.774 72.1936Z" fill="black"/>
<path d="M899.827 72.1936C899.827 73.8959 898.455 75.2669 896.758 75.2669C895.065 75.2669 893.689 73.8959 893.689 72.1936C893.689 70.4975 895.065 69.124 896.758 69.124C898.455 69.124 899.827 70.4975 899.827 72.1936Z" fill="black"/>
<path d="M822.037 44.7343L853.017 72.373" stroke="black" stroke-width="3" stroke-linecap="round" stroke-linejoin="round"/>
<path d="M870.763 51.5303L851.993 71.8764L850.816 70.4671" fill="white"/>
<path d="M870.763 51.5303L851.993 71.8764L850.816 70.4671" stroke="black" stroke-width="3" stroke-linecap="round" stroke-linejoin="round"/>
<path d="M855.345 25.365C855.345 27.0648 853.97 28.4346 852.28 28.4346C850.584 28.4346 849.207 27.0648 849.207 25.365C849.207 23.6651 850.584 22.2979 852.28 22.2979C853.97 22.2979 855.345 23.6651 855.345 25.365Z" fill="black"/>
<path d="M855.346 118.586C855.346 120.284 853.971 121.658 852.281 121.658C850.585 121.658 849.208 120.284 849.208 118.586C849.208 116.886 850.585 115.517 852.281 115.517C853.971 115.517 855.346 116.886 855.346 118.586Z" fill="black"/>
<path d="M859.38 72.1939C859.38 76.1152 856.203 79.3035 852.276 79.3035C848.35 79.3035 845.173 76.1165 845.173 72.1939C845.173 68.2712 848.35 65.0879 852.276 65.0879C852.825 65.0879 853.36 65.1497 853.874 65.2684C857.031 65.9928 859.38 68.8201 859.38 72.1939Z" fill="#E85319" stroke="black" stroke-width="3" stroke-linecap="round" stroke-linejoin="round"/>
</svg>
