<svg width="132" height="96" viewBox="0 0 132 96" fill="none" xmlns="http://www.w3.org/2000/svg">
<path d="M68.8804 37.534L67.6439 36.6849L68.8804 37.534ZM57.7782 14.8353L57.6306 13.3426L57.7782 14.8353ZM60.8432 70.5325L59.7802 71.5908L60.8432 70.5325ZM131.589 84.3099C132.121 84.945 132.037 85.891 131.402 86.4229L121.053 95.0912C120.418 95.6231 119.472 95.5395 118.94 94.9044C118.408 94.2693 118.491 93.3232 119.127 92.7913L128.326 85.0862L120.621 75.8867C120.089 75.2516 120.173 74.3055 120.808 73.7736C121.443 73.2417 122.389 73.3253 122.921 73.9604L131.589 84.3099ZM2.24099 0.940727L3.70211 0.601415C3.93293 1.59535 4.17073 2.56914 4.41525 3.52313L2.96222 3.89556L1.5092 4.26799C1.25891 3.29153 1.01573 2.29566 0.779873 1.28004L2.24099 0.940727ZM4.58649 9.64497L6.01902 9.20017C6.62423 11.1493 7.26007 13.0033 7.92355 14.766L6.51971 15.2944L5.11586 15.8228C4.4307 14.0025 3.77585 12.0927 3.15395 10.0898L4.58649 9.64497ZM8.80648 20.7963L10.17 20.1712C11.0213 22.028 11.9066 23.7628 12.8208 25.3823L11.5146 26.1197L10.2084 26.8571C9.25082 25.1609 8.32758 23.3509 7.44295 21.4215L8.80648 20.7963ZM14.7121 31.1837L15.9367 30.3174C17.1083 31.9736 18.3142 33.4732 19.5457 34.8281L18.4357 35.837L17.3258 36.846C16.0086 35.3969 14.7266 33.8016 13.4875 32.05L14.7121 31.1837ZM22.75 39.9576L23.7025 38.7989C25.2492 40.0703 26.8222 41.1511 28.4074 42.0617L27.6603 43.3624L26.9132 44.6631C25.1814 43.6683 23.4712 42.4922 21.7975 41.1164L22.75 39.9576ZM33.0795 45.8596L33.5809 44.4459C35.4255 45.1 37.2723 45.5581 39.101 45.8482L38.8659 47.3297L38.6309 48.8111C36.6277 48.4933 34.6022 47.9911 32.5782 47.2734L33.0795 45.8596ZM44.827 47.7384L44.7992 46.2387C46.7548 46.2023 48.6625 45.9965 50.4935 45.6586L50.7657 47.1336L51.038 48.6087C49.0556 48.9746 46.9843 49.1986 44.8549 49.2381L44.827 47.7384ZM56.5423 45.5903L56.0432 44.1758C57.9582 43.5 59.7172 42.7004 61.2728 41.8415L61.9978 43.1547L62.7228 44.4679C61.0214 45.4072 59.1112 46.2744 57.0414 47.0048L56.5423 45.5903ZM66.8923 39.7411L65.8853 38.6294C66.6537 37.9333 67.2395 37.2737 67.6439 36.6849L68.8804 37.534L70.1169 38.3832C69.5491 39.2099 68.7942 40.0423 67.8994 40.8528L66.8923 39.7411ZM68.8804 37.534L67.6439 36.6849C68.123 35.9872 68.5369 35.2763 68.8886 34.5587L70.2355 35.2188L71.5825 35.8789C71.1659 36.7288 70.6781 37.566 70.1169 38.3832L68.8804 37.534ZM71.8106 30.1147L70.3248 29.909C70.5549 28.2464 70.4871 26.6177 70.1569 25.0999L71.6226 24.781L73.0883 24.4621C73.4951 26.3315 73.5739 28.3155 73.2964 30.3203L71.8106 30.1147ZM69.5036 19.8911L68.2767 20.754C67.3742 19.4709 66.2137 18.4014 64.8306 17.6288L65.5621 16.3192L66.2936 15.0097C68.0876 16.0118 69.5809 17.3937 70.7305 19.0282L69.5036 19.8911ZM60.4613 14.8041L60.3411 16.2993C59.5779 16.238 58.7722 16.2444 57.9258 16.3281L57.7782 14.8353L57.6306 13.3426C58.648 13.242 59.633 13.2327 60.5814 13.3089L60.4613 14.8041ZM57.7782 14.8353L57.9258 16.3281C57.0686 16.4128 56.2169 16.6746 55.3826 17.1121L54.6861 15.7836L53.9895 14.4552C55.1354 13.8543 56.3575 13.4685 57.6306 13.3426L57.7782 14.8353ZM49.9999 20.2065L51.242 21.0475C50.2141 22.5654 49.3229 24.4116 48.6357 26.5293L47.209 26.0663L45.7822 25.6033C46.5445 23.254 47.5518 21.1465 48.7579 19.3654L49.9999 20.2065ZM45.8651 32.4295L47.356 32.5947C47.1375 34.5663 47.0796 36.6586 47.2105 38.8386L45.7132 38.9285L44.2159 39.0184C44.075 36.6715 44.1367 34.4085 44.3743 32.2643L45.8651 32.4295ZM46.6076 45.3726L48.0735 45.0544C48.5029 47.0326 49.0892 49.0518 49.8496 51.0911L48.4441 51.6152L47.0387 52.1393C46.2281 49.9655 45.6015 47.8087 45.1417 45.6908L46.6076 45.3726ZM51.1218 57.5382L52.4447 56.8313C53.4041 58.6268 54.5085 60.4235 55.7696 62.2075L54.5447 63.0733L53.3198 63.9391C51.9872 62.0539 50.8172 60.1511 49.7988 58.2451L51.1218 57.5382ZM58.607 68.1644L59.7248 67.1642C60.4185 67.9396 61.1453 68.7099 61.9062 69.4742L60.8432 70.5325L59.7802 71.5908C58.982 70.7891 58.2186 69.9799 57.4891 69.1646L58.607 68.1644ZM60.8432 70.5325L61.9062 69.4742C62.5863 70.1573 63.3007 70.8096 64.0468 71.4323L63.0856 72.5839L62.1244 73.7354C61.3105 73.056 60.5278 72.3418 59.7802 71.5908L60.8432 70.5325ZM68.0535 76.0788L68.8198 74.7893C70.4809 75.7764 72.238 76.6623 74.0704 77.4565L73.4738 78.8327L72.8773 80.209C70.9409 79.3697 69.0689 78.4271 67.2872 77.3683L68.0535 76.0788ZM79.1712 80.9565L79.6267 79.5273C81.5033 80.1254 83.4262 80.6466 85.3759 81.1002L85.0361 82.5612L84.6962 84.0222C82.6769 83.5524 80.6762 83.0105 78.7157 82.3856L79.1712 80.9565ZM91.0032 83.7406L91.248 82.2607C93.2327 82.589 95.2218 82.8581 97.195 83.0776L97.0291 84.5684L96.8633 86.0592C94.8428 85.8344 92.8008 85.5583 90.7585 85.2205L91.0032 83.7406ZM103.084 85.1029L103.184 83.6062C105.246 83.7438 107.264 83.8353 109.212 83.893L109.168 85.3923L109.123 86.8917C107.143 86.833 105.088 86.7399 102.984 86.5995L103.084 85.1029ZM115.241 85.4765L115.24 83.9765C117.423 83.9749 119.456 83.9417 121.291 83.8998L121.326 85.3994L121.36 86.899C119.51 86.9412 117.454 86.9749 115.242 86.9765L115.241 85.4765ZM127.416 85.2429L127.386 83.7432C128.722 83.7167 129.832 83.7135 130.571 83.7788L130.439 85.273L130.307 86.7672C129.756 86.7184 128.807 86.7156 127.445 86.7426L127.416 85.2429Z" fill="#F94900"/>
</svg>
