<svg width="1333" height="153" viewBox="0 0 1333 153" fill="none" xmlns="http://www.w3.org/2000/svg">
<path d="M1172.5 55.9043H-0.5V97.0966H1172.5V55.9043Z" fill="#F94900"/>
<path d="M1216.35 153H1208.5C1166.25 153 1132 118.75 1132 76.5C1132 34.2504 1166.25 0 1208.5 0H1216.35V153Z" fill="#F94900"/>
<path d="M1316.38 41.1923H1243.81C1235.18 41.1923 1228.12 34.1308 1228.12 25.5C1228.12 16.8692 1235.18 9.80768 1243.81 9.80768H1316.38C1325.02 9.80768 1332.08 16.8692 1332.08 25.5C1332.08 34.1308 1325.02 41.1923 1316.38 41.1923Z" fill="#F94900"/>
<path d="M1316.38 139.269H1243.81C1235.18 139.269 1228.12 132.208 1228.12 123.577C1228.12 114.946 1235.18 107.885 1243.81 107.885H1316.38C1325.02 107.885 1332.08 114.946 1332.08 123.577C1332.08 132.208 1325.02 139.269 1316.38 139.269Z" fill="#F94900"/>
<path d="M644.682 51.1092L619.647 69.0671L633.956 76.0639L614.823 83.3275L633.956 89.6652L607.338 101.019H832.213L821.403 91.2481L832.213 81.7425L821.403 76.0639L832.213 65.8992L809.086 59.5615L832.213 51.1092H644.682Z" fill="white"/>
<path d="M640.951 41.1912L626.846 25.4989L633.956 17.1094L640.951 41.1912Z" fill="#F94900"/>
<path d="M688.863 64.1863L703.028 17.1094L723.373 29.1493L688.863 64.1863Z" fill="#F94900"/>
<path d="M673.178 91.6483L697.02 129.571L685.1 139.269L673.178 91.6483Z" fill="#F94900"/>
<path d="M789.73 57.6843L748.902 33.3141L760.923 18.4163L789.73 57.6843Z" fill="#F94900"/>
<path d="M739.312 141.147L778.375 98.2383L757.669 144.554L739.312 141.147Z" fill="#F94900"/>
<path d="M772.103 75.3928L759.106 97.0933L752.137 85.224L772.103 75.3928Z" fill="#F94900"/>
<path d="M721.136 114.675L700.902 92.0372L728.578 101.896L721.136 114.675Z" fill="#F94900"/>
<path d="M809.086 91.6483L803.064 115.457H815.153L809.086 91.6483Z" fill="#F94900"/>
<path d="M640.951 97.0957L660.788 123.576L640.951 125.048V97.0957Z" fill="#F94900"/>
<path d="M653.419 60.4915L667.146 64.187L653.419 67.8826L649.725 81.6075L646.03 67.8826L632.305 64.187L646.03 60.4915L649.725 46.7666L653.419 60.4915Z" fill="#F94900"/>
<path d="M815.279 134.129L825.052 136.761L815.279 139.392L812.647 149.166L810.015 139.392L800.242 136.761L810.015 134.129L812.647 124.355L815.279 134.129Z" fill="#F94900"/>
<path d="M743.25 48.4764L753.024 51.1088L743.25 53.7411L740.618 63.5135L737.987 53.7411L728.213 51.1088L737.987 48.4764L740.618 38.704L743.25 48.4764Z" fill="#F94900"/>
</svg>
