<svg width="452" height="452" viewBox="0 0 452 452" fill="none" xmlns="http://www.w3.org/2000/svg">
<g clip-path="url(#clip0_596_1178)">
<path fill-rule="evenodd" clip-rule="evenodd" d="M102.4 187.332C102.4 225.261 118.325 254.601 138.979 274.869C180.962 316.08 235.588 318.59 287.512 291.18C291.952 297.743 298.611 304.499 303.341 311.544L292.435 321.002L345.903 388.658C354.782 400.529 363.275 411.146 372.83 422.727C386.149 438.941 389.044 451.585 411.725 451.585C428.228 451.585 445.215 432.958 434.309 411.049L401.977 368.776C390.202 354.299 345.034 293.496 334.997 286.837C328.434 291.18 329.978 289.925 323.705 293.593C319.555 287.416 312.22 280.853 310.193 273.228C314.343 266.955 317.528 265.507 322.45 258.365C355.651 210.591 348.219 156.737 327.758 126.046C314.15 105.489 301.121 91.1083 289.925 88.1164C287.03 98.2503 285.293 101.628 283.169 110.7C294.461 118.228 301.893 125.563 308.842 139.268C329.978 181.445 326.021 225.551 291.759 259.234C230.666 319.265 125.177 273.325 125.177 189.745C125.177 156.062 147.279 113.982 168.029 108.481C166.196 98.5398 164.748 96.4165 161.273 85.8966C151.236 88.2129 140.909 98.4433 130.293 110.507C113.403 129.81 102.593 160.791 102.593 187.525L102.4 187.332Z" fill="#F94900"/>
<path fill-rule="evenodd" clip-rule="evenodd" d="M221.69 0H231.438C244.178 1.06164 256.628 6.08032 266.762 16.3107C302.665 52.5996 276.799 104.234 249.197 110.7C249.197 125.081 251.803 146.796 237.905 146.796C197.562 146.796 204.029 147.954 204.029 110.7C161.756 107.226 144.673 6.17683 221.69 0.096513V0ZM259.813 26.2515L204.222 47.8705L216.672 55.302L192.544 78.4651L243.213 56.0741L232.114 47.4844L259.717 26.155L259.813 26.2515Z" fill="#F94900"/>
<path fill-rule="evenodd" clip-rule="evenodd" d="M39.1844 200.94C39.1844 206.731 46.9054 211.364 50.4764 216.768C45.8438 225.551 39.4739 235.685 39.1844 248.328L16.6003 250.548C8.97581 283.169 16.3108 286.644 39.1844 286.644C39.4739 301.603 47.6775 307.973 50.4764 318.204C46.9054 323.608 39.1844 328.241 39.1844 334.032C39.1844 339.533 56.2672 356.616 61.7684 356.616C67.5592 356.616 72.1918 348.895 77.5966 345.324L111.473 358.836C111.473 375.629 107.709 387.886 145.349 379.2L147.569 356.616C160.212 356.326 170.442 349.956 179.128 345.324C182.313 347.447 191.096 356.616 192.64 356.616C205.573 355.554 233.176 330.075 202.098 322.354C194.667 321.002 185.788 316.756 178.839 320.037C161.37 328.434 168.705 338.568 120.448 338.568C90.1433 338.568 57.2323 305.657 57.2323 275.352C57.2323 246.494 61.865 221.884 88.7921 207.6C88.02 198.72 86.5723 196.983 86.5723 185.016C81.9397 187.525 81.2641 188.104 75.2803 189.552C56.0742 160.887 39.1844 200.747 39.1844 200.844V200.94Z" fill="#F94900"/>
<path fill-rule="evenodd" clip-rule="evenodd" d="M213.004 157.992C213.004 166.775 218.795 164.748 233.369 164.748C241.379 164.748 240.125 160.308 240.125 151.236H213.004V157.992Z" fill="#F94900"/>
<path d="M150.833 215.691L161.283 214.675C161.912 218.183 163.182 220.759 165.094 222.404C167.029 224.049 169.629 224.872 172.895 224.872C176.355 224.872 178.955 224.146 180.697 222.695C182.463 221.219 183.346 219.501 183.346 217.542C183.346 216.284 182.971 215.22 182.221 214.349C181.495 213.454 180.213 212.679 178.374 212.026C177.117 211.591 174.25 210.817 169.775 209.704C164.017 208.277 159.977 206.523 157.655 204.442C154.389 201.515 152.756 197.947 152.756 193.738C152.756 191.028 153.518 188.5 155.042 186.154C156.59 183.783 158.804 181.981 161.683 180.747C164.586 179.513 168.081 178.897 172.169 178.897C178.846 178.897 183.866 180.36 187.228 183.287C190.615 186.214 192.393 190.121 192.563 195.008L181.822 195.48C181.362 192.746 180.37 190.787 178.846 189.601C177.346 188.392 175.084 187.787 172.061 187.787C168.94 187.787 166.497 188.428 164.731 189.71C163.594 190.533 163.025 191.633 163.025 193.012C163.025 194.27 163.557 195.347 164.622 196.242C165.977 197.379 169.267 198.564 174.492 199.798C179.717 201.031 183.576 202.314 186.067 203.644C188.583 204.95 190.543 206.753 191.946 209.051C193.373 211.325 194.087 214.143 194.087 217.506C194.087 220.554 193.24 223.408 191.547 226.069C189.853 228.73 187.458 230.714 184.362 232.02C181.265 233.302 177.407 233.943 172.786 233.943C166.061 233.943 160.896 232.395 157.292 229.299C153.687 226.178 151.534 221.642 150.833 215.691ZM203.122 233V179.804H242.566V188.803H213.863V200.596H240.57V209.559H213.863V224.037H243.582V233H203.122ZM250.512 206.728C250.512 201.31 251.323 196.762 252.944 193.085C254.153 190.375 255.798 187.944 257.879 185.791C259.983 183.638 262.281 182.041 264.773 181.001C268.087 179.598 271.909 178.897 276.24 178.897C284.077 178.897 290.343 181.328 295.036 186.19C299.753 191.053 302.112 197.814 302.112 206.474C302.112 215.062 299.777 221.787 295.109 226.65C290.44 231.488 284.198 233.907 276.385 233.907C268.474 233.907 262.185 231.5 257.516 226.686C252.847 221.848 250.512 215.195 250.512 206.728ZM261.58 206.366C261.58 212.389 262.971 216.961 265.753 220.082C268.535 223.178 272.067 224.727 276.348 224.727C280.63 224.727 284.138 223.191 286.872 220.118C289.629 217.022 291.008 212.389 291.008 206.22C291.008 200.124 289.666 195.576 286.98 192.577C284.319 189.577 280.775 188.077 276.348 188.077C271.921 188.077 268.353 189.601 265.644 192.649C262.934 195.673 261.58 200.245 261.58 206.366Z" fill="#F94900"/>
</g>
<defs>
<clipPath id="clip0_596_1178">
<rect width="451.488" height="451.488" fill="white"/>
</clipPath>
</defs>
</svg>
