<svg width="452" height="452" viewBox="0 0 452 452" fill="none" xmlns="http://www.w3.org/2000/svg">
<g clip-path="url(#clip0_596_1160)">
<path fill-rule="evenodd" clip-rule="evenodd" d="M89.1616 418.052C88.1971 406.907 104.165 409.908 119.811 409.908C135.028 409.908 151.853 407.014 152.711 416.231C153.782 427.376 138.136 424.375 121.74 424.375C107.808 424.375 90.0189 427.161 89.2688 418.052H89.1616ZM120.668 23.8979C126.67 23.8979 131.599 28.8275 131.599 34.8288C131.599 40.83 126.67 45.7596 120.668 45.7596C114.667 45.7596 109.737 40.83 109.737 34.8288C109.737 28.8275 114.667 23.8979 120.668 23.8979ZM241.229 404.871C224.404 410.765 216.153 427.483 199.113 406.693C189.04 394.369 193.648 395.869 178.43 395.869C155.818 395.869 27.1128 396.941 20.4685 395.333V56.0475L221.297 55.6189V186.039C231.477 183.253 228.262 182.288 241.229 183.789C240.801 137.708 241.229 91.4121 241.229 45.4381C241.229 13.5028 239.408 13.7172 203.507 13.7172H30.2206C-6.75148 13.7172 0.428611 22.0761 0.428611 87.3398V398.441C0.428611 407.979 -1.3932 423.839 3.64357 430.698C9.85917 439.164 18.5396 437.664 31.1851 437.664H203.507C236.943 437.664 241.337 440.021 241.122 404.871H241.229Z" fill="#F94900"/>
<path fill-rule="evenodd" clip-rule="evenodd" d="M53.3684 247.766H188.718C188.718 224.297 192.362 199.006 179.824 182.824C166.321 165.463 147.674 167.607 121.633 167.607C93.6626 167.607 77.9092 164.82 62.9061 182.288C56.6905 189.468 53.4755 198.256 53.2612 210.259C53.0469 222.475 53.0469 235.442 53.3684 247.766Z" fill="#F94900"/>
<path fill-rule="evenodd" clip-rule="evenodd" d="M190.326 273.701L224.94 335.428C238.872 334.57 249.695 327.39 278.201 333.392C281.738 334.142 286.239 335.428 289.775 336.714C298.241 339.929 296.098 339.929 298.777 342.608C305.207 348.823 315.924 345.609 318.067 337.785C319.996 330.605 313.566 322.246 310.565 316.995C292.669 286.775 275.308 252.803 257.197 222.261C253.339 215.831 249.91 209.616 246.48 203.186C243.158 196.863 237.8 189.576 228.584 194.184C215.188 201.042 231.692 205.972 215.831 239.193C209.401 252.589 206.186 256.125 198.042 266.092C195.255 269.521 192.79 270.7 190.433 273.701H190.326Z" fill="#F94900"/>
<path fill-rule="evenodd" clip-rule="evenodd" d="M286.882 152.604C290.847 150.46 297.706 149.496 302.421 149.71C304.135 152.925 307.35 171.25 307.458 175.858C306.172 176.716 307.565 176.18 304.671 177.144L292.133 178.752L286.882 152.711V152.604ZM330.498 138.886C338.857 138.243 345.394 134.385 351.503 137.708C351.931 141.03 351.931 138.994 351.288 141.887C349.145 151.318 355.896 145.959 349.359 152.818C353.003 155.926 353.539 159.034 349.038 160.962C357.932 169.964 345.287 169.964 337.893 171.358C327.819 173.179 325.354 174.358 314.531 172.858C313.352 166.428 311.101 157.426 310.351 150.996C309.815 145.531 316.352 138.458 318.281 133.099C320.317 127.634 315.495 111.881 324.497 117.132C330.605 120.668 330.391 131.063 330.284 138.886H330.498ZM292.99 192.683C289.668 200.828 283.024 209.83 280.238 217.867C288.168 214.117 309.172 197.184 316.352 196.863C388.367 193.862 396.083 137.6 355.468 114.346C309.815 88.3043 240.479 122.061 261.269 166.642C266.842 178.538 278.952 187.54 293.097 192.683H292.99Z" fill="#F94900"/>
<path fill-rule="evenodd" clip-rule="evenodd" d="M129.027 322.246C111.452 329.534 118.525 339.607 125.062 351.395C137.279 373.472 137.922 368.328 152.496 363.934C164.177 373.364 165.892 367.363 176.716 363.077C179.716 365.434 195.363 385.474 199.113 390.082C215.081 409.265 211.973 409.908 226.548 401.87C245.945 391.261 239.3 389.868 210.259 354.718C208.33 352.36 205.972 349.895 204.579 347.323L211.009 342.715C210.794 338.428 190.326 304.564 186.468 297.598C183.789 292.776 180.681 286.453 177.573 282.488L134.6 306.172C128.706 310.137 127.956 314.638 129.134 322.354L129.027 322.246Z" fill="#F94900"/>
<path fill-rule="evenodd" clip-rule="evenodd" d="M388.796 223.869C402.085 219.582 407.336 240.051 395.226 243.587C380.973 247.766 375.936 228.048 388.796 223.869ZM359.004 223.869C372.293 219.26 377.865 240.051 365.434 243.587C351.288 247.552 346.144 228.262 359.004 223.869ZM418.052 223.976C431.234 219.368 436.806 238.443 425.768 243.158C412.373 248.838 404.657 228.584 418.052 223.976ZM313.137 263.52C329.534 261.376 339.714 253.661 344.966 258.162C371.007 280.773 411.944 278.201 434.342 254.518C443.022 245.302 446.666 227.084 437.878 213.688C414.194 177.466 337.25 189.468 334.035 230.727C332.856 245.409 338.75 239.086 327.39 249.052C323.961 252.053 315.817 259.448 313.137 263.413V263.52Z" fill="#F94900"/>
<path fill-rule="evenodd" clip-rule="evenodd" d="M372.721 322.139C377.33 319.46 387.939 320.532 391.261 316.888C392.333 315.709 397.369 302.742 398.87 299.849C410.015 318.496 406.05 316.46 417.945 317.21C421.267 317.424 424.482 317.746 427.483 317.853C425.554 321.818 416.552 329.641 415.695 331.891C414.409 335.214 419.017 346.68 419.338 351.396C416.981 350.431 403.585 344.43 401.978 344.43C398.655 344.43 389.761 351.61 384.724 353.217L386.76 334.999C382.581 329.855 375.722 325.783 372.721 321.925V322.139ZM327.819 297.384C331.999 301.028 334.463 303.385 338.643 307.136L350.86 317.317C349.895 325.569 342.394 338.964 355.682 354.396C379.58 382.366 437.664 369.614 449.452 334.142C463.062 293.312 405.943 271.557 368.22 298.456C361.469 303.278 360.612 301.456 348.824 299.849C343.68 299.099 332.213 296.955 327.819 297.384Z" fill="#F94900"/>
<path fill-rule="evenodd" clip-rule="evenodd" d="M112.524 75.9803C93.9841 80.1597 76.9448 98.8065 82.4102 123.026C86.5897 141.994 106.308 158.712 130.42 153.032C148.424 148.746 164.606 129.563 159.784 106.201C155.926 87.447 136.207 70.622 112.524 75.9803Z" fill="#F94900"/>
<path fill-rule="evenodd" clip-rule="evenodd" d="M221.404 347.752C221.404 354.396 223.011 354.075 229.977 362.755L241.122 375.615L241.229 342.608L221.404 347.752Z" fill="#F94900"/>
</g>
<defs>
<clipPath id="clip0_596_1160">
<rect width="451.488" height="451.488" fill="white"/>
</clipPath>
</defs>
</svg>
