<svg width="92" height="44" viewBox="0 0 92 44" fill="none" xmlns="http://www.w3.org/2000/svg">
<path fill-rule="evenodd" clip-rule="evenodd" d="M83.5457 15.4844C84.0071 15.7256 84.8762 17.2397 85.0538 17.6331C86.3751 20.5536 86.1187 23.9326 84.493 26.4641C82.9565 28.857 80.7333 30.0589 78.3002 31.3391L71.1605 35.1977C69.5583 36.034 67.9919 36.8928 66.3985 37.7506C63.4878 39.318 60.2757 40.9916 57.4061 42.5899C57.3038 42.6467 57.2113 42.6883 57.1052 42.748L56.858 42.9364C59.4198 43.0411 62.195 42.9447 64.7802 42.9447C67.2877 42.9447 69.6797 42.794 72.0702 42.3041C76.2532 41.4472 80.2934 39.6547 83.0901 37.5759C87.8745 34.0198 91.3646 28.9123 91.6019 22.3623C91.6773 20.2786 91.3866 17.2367 90.6516 15.4888C90.0727 13.4021 88.405 10.7508 87.3088 9.45107C85.8647 7.73929 84.4074 6.39649 82.4084 5.06299C78.7778 2.64067 73.8603 0.727773 68.5351 0.293712L66.493 0.177734L56.7631 0.185564L60.1529 2.02017C61.2989 2.60397 62.4235 3.27439 63.5789 3.86456C66.9305 5.57633 70.5527 7.72461 73.8422 9.41534C75.0054 10.0133 76.0653 10.6749 77.2408 11.2847C78.1573 11.7603 81.4399 13.5695 82.2288 14.2018C82.6506 14.5399 83.3293 15.0498 83.5466 15.4844H83.5457Z" fill="#878B8F"/>
<path fill-rule="evenodd" clip-rule="evenodd" d="M51.9743 0.867632L73.5031 14.5584C73.7351 14.7072 73.9778 14.8564 74.2259 15.0213C74.3341 15.0928 74.4784 15.1833 74.5841 15.2562L74.8802 15.5317C75.304 15.6829 76.3845 16.9044 76.705 17.3536C77.188 18.0304 77.6172 18.828 77.8785 19.8063C78.45 21.9467 77.8584 24.1474 76.8381 25.5929C75.0852 28.075 71.0837 29.9874 68.4544 31.7676C67.7082 32.2732 66.9394 32.716 66.196 33.1995C65.4493 33.685 64.7265 34.1528 63.9827 34.6098C62.4813 35.5333 61.094 36.4958 59.5603 37.4325C58.0482 38.3564 56.6443 39.34 55.139 40.2561C54.5909 40.5898 50.9609 42.8775 50.748 43.0973C51.2124 43.0747 54.8718 40.9686 55.6146 40.6006C56.447 40.1885 57.1884 39.7422 58.0081 39.3067L74.7153 30.3226C75.6695 29.8337 78.6551 28.2492 79.4244 27.7163C80.7079 26.8266 82.0449 25.4887 82.5959 23.5738C83.6211 20.0118 81.8878 18.1361 81.8095 17.6678C81.624 17.5611 81.5575 17.4207 81.4258 17.246C79.9641 15.3081 76.6761 13.8841 74.6061 12.7316C71.9665 11.2621 69.3705 9.91831 66.726 8.49085C64.2787 7.17007 61.2995 5.51017 58.8444 4.25203C56.8919 3.25129 54.8033 2.00441 52.9384 1.07023C52.6041 0.902865 51.2046 0.215317 51.0303 0C50.884 0.0572549 50.9491 0.0112552 50.8752 0.0915099L51.898 0.781505C51.966 0.840717 51.9665 0.85393 51.9758 0.866163L51.9743 0.867632Z" fill="#878B8F"/>
<path fill-rule="evenodd" clip-rule="evenodd" d="M49.7599 2.93273C50.1602 3.13533 50.4534 3.42992 50.8302 3.70249C51.1693 3.94766 51.5231 4.23344 51.8397 4.47225C55.069 6.91072 58.5351 9.74117 61.7052 12.0642L65.6362 15.1447C65.8769 15.2039 66.4216 15.6864 66.6208 15.843C66.9418 16.095 67.2016 16.2844 67.5525 16.5579C69.6377 18.1826 71.0054 20.5677 70.0272 23.3933C69.7595 24.167 69.2193 25.0527 68.7607 25.4867C67.7394 26.4523 68.1794 26.0515 66.98 27.0003L61.3577 31.3263C60.6907 31.8234 60.1622 32.2781 59.5001 32.7601C58.8728 33.2171 58.2244 33.7182 57.6318 34.1875L55.7727 35.6204C55.4292 35.8675 55.1081 36.1308 54.7998 36.3613C54.469 36.6094 54.1896 36.8266 53.8686 37.0772C53.25 37.5597 52.6418 38.0153 52.011 38.5115L48.3266 41.3831C48.7323 41.3052 56.286 36.4043 56.8571 36.0442L61.115 33.3214C62.5077 32.3784 63.9508 31.5362 65.3387 30.627C67.4586 29.2377 69.6734 27.9242 71.7399 26.555C72.5053 26.048 73.1679 25.6551 73.6646 25.0542C74.1569 24.4586 74.6634 23.7897 74.9154 22.8129C75.5427 20.3808 74.3037 18.2594 72.4016 16.9812C72.1627 16.8207 71.5129 16.4718 71.4086 16.3015C71.0632 16.1968 68.9898 14.7894 68.4598 14.4669C65.5917 12.7218 62.6863 10.7199 59.804 8.95673C57.8735 7.77542 55.9993 6.47421 54.0521 5.28948C53.2295 4.78887 48.7068 1.78029 48.2625 1.7157C48.3814 1.77785 48.4974 1.91095 48.6295 2.01616C48.8189 2.16689 48.885 2.20212 49.0465 2.32593L49.7609 2.93224L49.7599 2.93273Z" fill="#878B8F"/>
<path fill-rule="evenodd" clip-rule="evenodd" d="M48.6764 6.01679C48.8614 6.08236 49.5715 6.77872 49.7966 6.97788L50.8516 7.96492C51.2343 8.36081 51.5911 8.6094 51.9023 8.95538C52.2732 9.36791 52.5805 9.5382 52.952 9.94731L54.5659 11.431C54.7998 11.6327 56.9955 13.6826 57.1296 13.9018C57.3728 13.9879 59.0738 15.6527 59.4433 15.9742C59.709 16.2052 59.9121 16.443 60.1847 16.6809C63.3714 19.4531 63.3219 23.6024 60.1558 26.4352L57.179 29.2539C56.4151 29.987 54.8252 31.3508 54.1773 32.0501C53.937 32.309 53.6654 32.4906 53.4095 32.7328L50.4151 35.5353C49.7501 36.2464 47.8763 37.8887 47.0493 38.6902C46.8208 38.9119 46.8042 38.8943 46.7043 39.1272C47.0503 38.9838 47.4408 38.6389 47.7173 38.4348L50.3887 36.3658C50.9936 35.9195 51.5857 35.4654 52.1822 34.9961C56.2987 31.7555 60.5654 28.5889 64.6921 25.3724C65.7462 24.5507 67.2549 23.5994 67.2994 21.64C67.3215 20.6638 66.9138 19.8612 66.4617 19.2984C65.8578 18.5468 63.1096 16.4881 62.1064 15.7482L61.3342 15.1438C61.2074 15.0107 61.318 15.1345 61.2613 15.0469C61.0229 14.9657 59.6782 13.8945 59.3826 13.6615C56.4181 11.3258 53.2686 9.00432 50.2967 6.67497L47.1281 4.24237C46.5384 3.84404 46.6999 4.04761 46.6755 4.11514C46.8007 4.12737 46.8174 4.17582 46.9333 4.30159C47.0195 4.39456 47.0929 4.49292 47.1834 4.58248L48.2052 5.53673C48.3549 5.67864 48.6148 5.81713 48.676 6.01727L48.6764 6.01679Z" fill="#878B8F"/>
<path fill-rule="evenodd" clip-rule="evenodd" d="M45.7409 13.0074L45.7414 30.8019L47.4174 28.8489C47.9503 28.2064 50.2855 25.4713 50.6946 24.8136C51.1899 24.017 51.4664 23.2056 51.6083 22.0982C51.7458 19.304 50.5214 18.013 49.2965 16.5684C48.703 15.8682 48.1128 15.1581 47.5412 14.4344C47.2412 14.0546 46.9408 13.7395 46.6423 13.3592C46.496 13.1733 46.3438 12.9878 46.1979 12.8131C46.0179 12.5973 45.9479 12.4911 45.7693 12.311L45.7409 13.0069V13.0074Z" fill="#878B8F"/>
<path fill-rule="evenodd" clip-rule="evenodd" d="M49.3234 11.3855C49.5632 11.4917 50.0452 12.1606 50.2776 12.4229L52.0976 14.5585C53.7066 16.3598 54.9941 18.6578 54.9965 21.5059C55.0009 25.5377 52.837 27.688 51.1145 29.711L49.7315 31.3601C49.2294 31.9087 48.8174 32.444 48.3364 32.9955L46.9392 34.6266C46.5047 35.1962 45.9904 35.6713 45.5891 36.2703C45.9517 36.0917 47.4027 34.6965 47.8196 34.3212L51.2799 31.0621C51.5421 30.8198 51.7169 30.6099 51.9787 30.3789C53.2251 29.2779 54.9921 27.4526 56.1818 26.4147C57.2755 25.4599 58.8169 24.2072 59.3058 22.7503C59.8421 21.1516 59.1659 19.5969 58.33 18.7337C57.8984 18.2879 57.4223 17.8245 56.95 17.4114L55.5495 16.1112C55.044 15.6013 54.6853 15.2901 54.1808 14.7802C53.9517 14.5487 53.6914 14.3422 53.4482 14.1274L52.8267 13.4618C52.4524 13.2666 52.2243 12.9739 51.9072 12.6397L50.1299 10.9911C49.4766 10.4127 46.1406 7.06936 45.6757 6.948L47.4976 9.14473C47.6405 9.33019 47.8348 9.54893 47.984 9.71189C48.215 9.9644 49.2534 11.1374 49.3234 11.386V11.3855Z" fill="#878B8F"/>
<path fill-rule="evenodd" clip-rule="evenodd" d="M8.06787 15.4844C7.60641 15.7256 6.73731 17.2397 6.55968 17.6331C5.23841 20.5536 5.49483 23.9326 7.12048 26.4641C8.65706 28.857 10.8802 30.0589 13.3133 31.3391L20.453 35.1977C22.0552 36.034 23.6216 36.8928 25.215 37.7506C28.1257 39.318 31.3378 40.9916 34.2074 42.5899C34.3097 42.6467 34.4022 42.6883 34.5084 42.748L34.7555 42.9364C32.1937 43.0411 29.4186 42.9447 26.8333 42.9447C24.3258 42.9447 21.9338 42.794 19.5433 42.3041C15.3603 41.4472 11.3202 39.6547 8.52347 37.5759C3.73902 34.0198 0.248917 28.9123 0.0115776 22.3623C-0.0637856 20.2786 0.226894 17.2367 0.96191 15.4888C1.54082 13.4021 3.20856 10.7508 4.30472 9.45107C5.74881 7.73929 7.20612 6.39649 9.20514 5.06299C12.8357 2.64067 17.7532 0.727773 23.0784 0.293712L25.1205 0.177734L34.8504 0.185564L31.4607 2.02017C30.3146 2.60397 29.19 3.27439 28.0347 3.86456C24.683 5.57633 21.0608 7.72461 17.7714 9.41534C16.6082 10.0133 15.5482 10.6749 14.3728 11.2847C13.4562 11.7603 10.1736 13.5695 9.38474 14.2018C8.96291 14.5399 8.28418 15.0498 8.0669 15.4844H8.06787Z" fill="#878B8F"/>
<path fill-rule="evenodd" clip-rule="evenodd" d="M39.6392 0.867632L18.1104 14.5584C17.8785 14.7072 17.6358 14.8564 17.3876 15.0213C17.2795 15.0928 17.1351 15.1833 17.0294 15.2562L16.7334 15.5317C16.3096 15.6829 15.2291 16.9044 14.9086 17.3536C14.4256 18.0304 13.9964 18.828 13.7351 19.8063C13.1635 21.9467 13.7551 24.1474 14.7755 25.5929C16.5283 28.075 20.5298 29.9874 23.1591 31.7676C23.9054 32.2732 24.6742 32.716 25.4175 33.1995C26.1643 33.685 26.8871 34.1528 27.6309 34.6098C29.1322 35.5333 30.5196 36.4958 32.0532 37.4325C33.5653 38.3564 34.9693 39.34 36.4746 40.2561C37.0226 40.5898 40.6527 42.8775 40.8656 43.0973C40.4012 43.0747 36.7418 40.9686 35.9989 40.6006C35.1665 40.1885 34.4251 39.7422 33.6055 39.3067L16.8983 30.3226C15.944 29.8337 12.9585 28.2492 12.1892 27.7163C10.9056 26.8266 9.56869 25.4887 9.01767 23.5738C7.99247 20.0118 9.72577 18.1361 9.80407 17.6678C9.98954 17.5611 10.0561 17.4207 10.1877 17.246C11.6494 15.3081 14.9374 13.8841 17.0074 12.7316C19.647 11.2621 22.2431 9.91831 24.8875 8.49085C27.3348 7.17007 30.314 5.51017 32.7691 4.25203C34.7217 3.25129 36.8103 2.00441 38.6752 1.07023C39.0094 0.902865 40.409 0.215317 40.5832 0C40.7295 0.0572549 40.6644 0.0112552 40.7383 0.0915099L39.7156 0.781505C39.6476 0.840717 39.6471 0.85393 39.6378 0.866163L39.6392 0.867632Z" fill="#878B8F"/>
<path fill-rule="evenodd" clip-rule="evenodd" d="M41.8536 2.93273C41.4533 3.13533 41.1602 3.42992 40.7834 3.70249C40.4442 3.94766 40.0904 4.23344 39.7738 4.47225C36.5445 6.91072 33.0784 9.74117 29.9084 12.0642L25.9773 15.1447C25.7366 15.2039 25.1919 15.6864 24.9928 15.843C24.6717 16.095 24.4119 16.2844 24.061 16.5579C21.9759 18.1826 20.6081 20.5677 21.5863 23.3933C21.854 24.167 22.3943 25.0527 22.8528 25.4867C23.8741 26.4523 23.4341 26.0515 24.6336 27.0003L30.2558 31.3263C30.9228 31.8234 31.4513 32.2781 32.1134 32.7601C32.7408 33.2171 33.3892 33.7182 33.9818 34.1875L35.8408 35.6204C36.1844 35.8675 36.5054 36.1308 36.8137 36.3613C37.1445 36.6094 37.4239 36.8266 37.7449 37.0772C38.3635 37.5597 38.9718 38.0153 39.6025 38.5115L43.2869 41.3831C42.8812 41.3052 35.3275 36.4043 34.7564 36.0442L30.4985 33.3214C29.1058 32.3784 27.6627 31.5362 26.2749 30.627C24.155 29.2377 21.9401 27.9242 19.8736 26.555C19.1082 26.048 18.4456 25.6551 17.9489 25.0542C17.4566 24.4586 16.9502 23.7897 16.6981 22.8129C16.0708 20.3808 17.3098 18.2594 19.212 16.9812C19.4508 16.8207 20.1006 16.4718 20.2049 16.3015C20.5504 16.1968 22.6238 14.7894 23.1537 14.4669C26.0219 12.7218 28.9272 10.7199 31.8095 8.95673C33.74 7.77542 35.6143 6.47421 37.5614 5.28948C38.384 4.78887 42.9067 1.78029 43.351 1.7157C43.2321 1.77785 43.1161 1.91095 42.984 2.01616C42.7946 2.16689 42.7285 2.20212 42.5671 2.32593L41.8526 2.93224L41.8536 2.93273Z" fill="#878B8F"/>
<path fill-rule="evenodd" clip-rule="evenodd" d="M42.9371 6.01679C42.7521 6.08236 42.042 6.77872 41.8169 6.97788L40.7619 7.96492C40.3792 8.36081 40.0225 8.6094 39.7112 8.95538C39.3403 9.36791 39.033 9.5382 38.6616 9.94731L37.0477 11.431C36.8137 11.6327 34.618 13.6826 34.4839 13.9018C34.2407 13.9879 32.5397 15.6527 32.1702 15.9742C31.9045 16.2052 31.7014 16.443 31.4289 16.6809C28.2422 19.4531 28.2916 23.6024 31.4577 26.4352L34.4345 29.2539C35.1984 29.987 36.7883 31.3508 37.4362 32.0501C37.6765 32.309 37.9481 32.4906 38.204 32.7328L41.1984 35.5353C41.8634 36.2464 43.7372 37.8887 44.5642 38.6902C44.7927 38.9119 44.8094 38.8943 44.9092 39.1272C44.5632 38.9838 44.1727 38.6389 43.8962 38.4348L41.2248 36.3658C40.62 35.9195 40.0279 35.4654 39.4313 34.9961C35.3148 31.7555 31.0481 28.5889 26.9214 25.3724C25.8673 24.5507 24.3586 23.5994 24.3141 21.64C24.2921 20.6638 24.6997 19.8612 25.1519 19.2984C25.7557 18.5468 28.504 16.4881 29.5071 15.7482L30.2794 15.1438C30.4061 15.0107 30.2955 15.1345 30.3523 15.0469C30.5906 14.9657 31.9353 13.8945 32.2309 13.6615C35.1954 11.3258 38.3449 9.00432 41.3168 6.67497L44.4854 4.24237C45.0751 3.84404 44.9136 4.04761 44.9381 4.11514C44.8128 4.12737 44.7962 4.17582 44.6802 4.30159C44.594 4.39456 44.5206 4.49292 44.4301 4.58248L43.4083 5.53673C43.2586 5.67864 42.9987 5.81713 42.9376 6.01727L42.9371 6.01679Z" fill="#878B8F"/>
<path fill-rule="evenodd" clip-rule="evenodd" d="M45.8727 13.0074L45.8722 30.8019L44.1961 28.8489C43.6632 28.2064 41.328 25.4713 40.9189 24.8136C40.4237 24.017 40.1472 23.2056 40.0052 22.0982C39.8677 19.304 41.0921 18.013 42.317 16.5684C42.9106 15.8682 43.5007 15.1581 44.0723 14.4344C44.3723 14.0546 44.6727 13.7395 44.9713 13.3592C45.1176 13.1733 45.2698 12.9878 45.4156 12.8131C45.5957 12.5973 45.6657 12.4911 45.8443 12.311L45.8727 13.0069V13.0074Z" fill="#878B8F"/>
<path fill-rule="evenodd" clip-rule="evenodd" d="M42.2901 11.3855C42.0503 11.4917 41.5683 12.1606 41.3359 12.4229L39.516 14.5585C37.9069 16.3598 36.6194 18.6578 36.617 21.5059C36.6126 25.5377 38.7765 27.688 40.4991 29.711L41.882 31.3601C42.3841 31.9087 42.7961 32.444 43.2772 32.9955L44.6743 34.6266C45.1088 35.1962 45.6231 35.6713 46.0244 36.2703C45.6618 36.0917 44.2109 34.6965 43.7939 34.3212L40.3337 31.0621C40.0714 30.8198 39.8967 30.6099 39.6349 30.3789C38.3885 29.2779 36.6214 27.4526 35.4318 26.4147C34.3381 25.4599 32.7966 24.2072 32.3077 22.7503C31.7714 21.1516 32.4477 19.5969 33.2835 18.7337C33.7151 18.2879 34.1913 17.8245 34.6635 17.4114L36.064 16.1112C36.5695 15.6013 36.9282 15.2901 37.4328 14.7802C37.6618 14.5487 37.9221 14.3422 38.1653 14.1274L38.7868 13.4618C39.1612 13.2666 39.3892 12.9739 39.7063 12.6397L41.4837 10.9911C42.137 10.4127 45.4729 7.06936 45.9378 6.948L44.1159 9.14473C43.973 9.33019 43.7788 9.54893 43.6295 9.71189C43.3985 9.9644 42.3601 11.1374 42.2901 11.386V11.3855Z" fill="#878B8F"/>
</svg>
