<svg width="452" height="452" viewBox="0 0 452 452" fill="none" xmlns="http://www.w3.org/2000/svg">
<g clip-path="url(#clip0_611_649)">
<path fill-rule="evenodd" clip-rule="evenodd" d="M31.9977 169.308C26.4549 167.544 25.5731 160.364 34.1392 159.608C44.3431 158.726 59.5858 159.608 70.2935 159.608H272.984C281.803 159.734 280.921 160.238 287.093 156.459C308.887 142.728 325.515 144.743 344.663 140.586L344.537 129.626H0.126465L0.378411 310.902L239.602 311.028L239.35 271.85C193.873 271.85 148.523 271.85 103.047 271.85C83.1428 271.85 52.7833 273.74 34.2652 271.85C26.7068 271.094 26.2029 264.922 31.2418 262.528C35.273 260.639 218.438 261.772 234.815 261.898C244.892 261.898 240.483 261.772 246.53 257.741C255.726 251.569 326.271 259.001 344.789 254.844V246.404C333.956 243.38 321.484 244.01 309.265 239.979C297.549 236.2 282.684 237.711 269.583 237.711H103.047C89.0636 237.711 75.0805 237.711 61.0975 237.711C36.6587 237.711 26.5808 241.113 28.7224 229.775C35.6509 225.744 77.726 227.886 90.1973 227.886C151.294 227.886 222.973 229.523 281.551 227.76C275.378 219.445 267.064 216.926 264.04 203.573C224.359 203.951 184.551 203.573 144.87 203.573C129.627 203.573 34.8951 205.714 28.3445 201.557L28.5964 195.636C39.5561 188.96 227.004 196.896 261.395 193.369C262.907 189.59 262.907 184.425 265.048 179.512C266.686 175.733 269.583 172.079 270.339 169.434L32.1237 169.182L31.9977 169.308Z" fill="#F94900"/>
<path fill-rule="evenodd" clip-rule="evenodd" d="M421.003 362.803C413.193 366.204 391.903 364.44 381.195 364.44C375.149 364.44 340.884 368.094 348.568 356.756C351.34 352.725 397.95 354.615 409.161 354.489C417.854 354.363 422.263 353.355 420.877 362.803H421.003ZM347.812 328.664C346.427 320.854 356.505 322.491 362.551 322.617C377.164 322.743 419.869 319.216 421.255 326.774C422.892 335.467 399.084 332.569 385.856 332.569C378.046 332.569 349.072 335.845 347.812 328.664ZM274.37 311.154C268.071 285.329 306.115 277.015 312.288 300.95C315.311 312.791 307.375 322.869 298.431 325.137C286.464 328.034 276.638 320.476 274.37 311.154ZM348.316 292.006C354.867 289.612 414.956 289.612 421.003 292.258C422.389 302.21 416.972 300.698 408.028 300.572H361.418C352.222 300.698 346.679 302.588 348.316 292.006ZM253.71 381.699C262.655 383.462 447.457 382.707 451.488 381.447L451.362 269.709L253.71 270.087V381.699Z" fill="#F94900"/>
<path fill-rule="evenodd" clip-rule="evenodd" d="M320.476 89.8189C315.185 92.9683 304.478 91.8345 296.289 91.8345C290.243 91.8345 272.607 94.354 276.89 84.78C278.779 80.3709 308.005 81.5047 314.934 82.0086C320.728 82.3865 321.484 83.8982 320.476 89.9449V89.8189ZM152.05 89.9449C150.161 78.8593 160.364 82.0086 170.442 82.0086C176.867 82.0086 193.243 79.6151 195.637 84.78C199.92 94.102 183.04 91.8345 177.497 91.8345C169.434 91.8345 157.593 93.2202 152.176 89.9449H152.05ZM213.903 87.5514C213.273 78.8593 229.524 82.0086 235.696 82.0086C241.617 82.0086 257.868 79.1112 258.624 86.5436C259.379 94.6059 243.885 91.8345 236.83 91.8345C229.776 91.8345 214.407 94.4799 213.903 87.5514ZM132.524 82.6385C134.288 87.0475 134.162 86.9215 132.272 91.2046C125.47 92.3384 116.274 91.8345 108.715 91.8345C103.173 91.8345 89.8194 94.354 89.0636 87.4254C88.3077 79.3632 101.913 82.0086 107.456 82.0086C115.266 82.0086 125.47 81.5047 132.398 82.6385H132.524ZM0.126465 113.25L344.537 113.124L344.663 61.223L0.252438 60.7191V113.25H0.126465Z" fill="#F94900"/>
<path fill-rule="evenodd" clip-rule="evenodd" d="M31.4938 355.119C37.6665 353.355 67.9 353.355 74.1987 354.993C78.2299 367.59 63.1131 364.063 52.7833 364.063C42.7054 364.063 27.4626 367.59 31.3678 355.119H31.4938ZM195.259 355.119C198.912 366.834 188.204 364.063 178.631 364.063C173.214 364.063 156.081 365.7 152.932 362.299C139.831 348.694 195.259 355.119 195.259 355.119ZM0.000488281 390.769H241.995C237.208 378.298 239.728 343.277 239.602 327.404L0.126461 327.278L0.000488281 390.643L0.000488281 390.769Z" fill="#F94900"/>
<path fill-rule="evenodd" clip-rule="evenodd" d="M347.183 170.82C377.038 163.135 387.746 208.486 358.394 216.044C328.791 223.602 317.075 178.63 347.183 170.82ZM276.638 197.022C281.047 224.484 331.562 232.043 357.009 231.665C425.916 230.657 457.031 183.795 398.328 162.505C347.687 144.239 271.095 161.75 276.638 196.896V197.022Z" fill="#F94900"/>
</g>
<defs>
<clipPath id="clip0_611_649">
<rect width="451.489" height="451.488" fill="white"/>
</clipPath>
</defs>
</svg>
