<svg width="15" height="14" viewBox="0 0 15 14" fill="none" xmlns="http://www.w3.org/2000/svg">
<path fill-rule="evenodd" clip-rule="evenodd" d="M11.7555 4.79567C11.8984 4.87039 12.1676 5.33931 12.2226 5.46117C12.6318 6.36567 12.5524 7.41219 12.0489 8.1962C11.573 8.93732 10.8845 9.30955 10.131 9.70603L7.91971 10.9011C7.42351 11.1601 6.93837 11.4261 6.44489 11.6918C5.54342 12.1772 4.54858 12.6955 3.65984 13.1905C3.62817 13.2081 3.59952 13.221 3.56663 13.2395L3.4901 13.2978C4.28351 13.3303 5.143 13.3004 5.94369 13.3004C6.72027 13.3004 7.4611 13.2537 8.20146 13.102C9.49699 12.8366 10.7483 12.2815 11.6144 11.6377C13.0962 10.5363 14.1771 8.95445 14.2506 6.92583C14.274 6.28049 14.184 5.3384 13.9563 4.79703C13.777 4.15079 13.2605 3.32964 12.921 2.9271C12.4738 2.39694 12.0224 1.98107 11.4033 1.56807C10.2789 0.817851 8.75586 0.225406 7.1066 0.0909732L6.47414 0.0550537L3.46069 0.0574787L4.51054 0.625674C4.86549 0.806484 5.21378 1.01412 5.57161 1.1969C6.60964 1.72705 7.73148 2.3924 8.75026 2.91603C9.11051 3.10124 9.43879 3.30615 9.80283 3.49499C10.0867 3.64231 11.1034 4.20262 11.3477 4.39843C11.4783 4.50316 11.6885 4.66109 11.7558 4.79567H11.7555Z" fill="white"/>
<path fill-rule="evenodd" clip-rule="evenodd" d="M1.97752 0.268714L8.64521 4.50888C8.71705 4.55496 8.79223 4.60118 8.86907 4.65226C8.90256 4.67439 8.94727 4.70242 8.98001 4.72501L9.0717 4.81033C9.20295 4.85716 9.53759 5.23546 9.63686 5.37459C9.78645 5.58419 9.91937 5.83124 10.0003 6.1342C10.1773 6.79712 9.99409 7.47868 9.67809 7.92639C9.1352 8.6951 7.89591 9.28739 7.08158 9.83876C6.85045 9.99532 6.61235 10.1325 6.38213 10.2822C6.15085 10.4326 5.927 10.5775 5.69663 10.719C5.23165 11.005 4.80198 11.3031 4.32699 11.5932C3.85868 11.8794 3.42385 12.184 2.95766 12.4677C2.78791 12.5711 1.66365 13.2796 1.59772 13.3477C1.74155 13.3407 2.87491 12.6884 3.10497 12.5744C3.36277 12.4468 3.59239 12.3086 3.84625 12.1737L9.02063 9.39121C9.31617 9.2398 10.2408 8.74905 10.4791 8.584C10.8766 8.30847 11.2907 7.89411 11.4613 7.30105C11.7788 6.19786 11.242 5.61693 11.2178 5.47189C11.1603 5.43885 11.1397 5.39535 11.099 5.34124C10.6462 4.74107 9.62792 4.30003 8.98683 3.94311C8.16932 3.48798 7.3653 3.0718 6.54627 2.6297C5.78833 2.22064 4.86563 1.70656 4.10526 1.3169C3.50054 1.00696 2.85369 0.620786 2.2761 0.33146C2.17258 0.279627 1.73912 0.066686 1.68517 0C1.63985 0.0177324 1.66001 0.00348586 1.63712 0.0283415L1.95388 0.24204C1.97495 0.260379 1.9751 0.264471 1.97798 0.26826L1.97752 0.268714Z" fill="white"/>
<path fill-rule="evenodd" clip-rule="evenodd" d="M1.29171 0.908299C1.41569 0.971045 1.50647 1.06228 1.62317 1.1467C1.7282 1.22263 1.83778 1.31114 1.93584 1.3851C2.93598 2.14032 4.00947 3.01694 4.99127 3.73639L6.20874 4.69046C6.28331 4.70879 6.452 4.85823 6.51368 4.90673C6.6131 4.98478 6.69358 5.04344 6.80225 5.12816C7.44804 5.63133 7.87165 6.37003 7.56868 7.24514C7.48578 7.48475 7.31846 7.75907 7.17645 7.89351C6.86014 8.19253 6.9964 8.06841 6.62492 8.36228L4.88366 9.70206C4.67709 9.85604 4.5134 9.99684 4.30834 10.1461C4.11405 10.2877 3.91323 10.4429 3.72969 10.5882L3.15392 11.032C3.04752 11.1085 2.9481 11.1901 2.85262 11.2615C2.75017 11.3383 2.66363 11.4056 2.5642 11.4832C2.37263 11.6326 2.18424 11.7737 1.98888 11.9274L0.847796 12.8168C0.973439 12.7927 3.3129 11.2748 3.48977 11.1632L4.80849 10.32C5.23983 10.0279 5.68677 9.76708 6.1166 9.48548C6.77315 9.05521 7.45911 8.64842 8.09914 8.22436C8.33618 8.06734 8.54139 7.94564 8.69522 7.75953C8.84769 7.57508 9.00455 7.3679 9.08261 7.06539C9.27691 6.31214 8.89316 5.65513 8.30405 5.25926C8.23009 5.20955 8.02882 5.10148 7.99653 5.04874C7.88953 5.01631 7.24738 4.58042 7.08324 4.48055C6.19495 3.94009 5.29515 3.32006 4.40246 2.77399C3.80456 2.40813 3.22409 2.00513 2.62104 1.63821C2.36627 1.48316 0.965558 0.551378 0.827942 0.531372C0.864771 0.55062 0.90069 0.591844 0.941611 0.624429C1.00026 0.67111 1.02073 0.682022 1.07074 0.720366L1.29202 0.908148L1.29171 0.908299Z" fill="white"/>
<path fill-rule="evenodd" clip-rule="evenodd" d="M0.956208 1.86346C1.0135 1.88377 1.23341 2.09943 1.30313 2.16112L1.62989 2.46681C1.74841 2.58943 1.85889 2.66642 1.95529 2.77357C2.07017 2.90133 2.16535 2.95408 2.28038 3.08078L2.78022 3.54031C2.85267 3.60275 3.53271 4.23763 3.57424 4.30553C3.64956 4.3322 4.17638 4.84781 4.29081 4.94738C4.37311 5.01892 4.436 5.09258 4.52042 5.16623C5.50738 6.02482 5.49207 7.30988 4.51148 8.18726L3.58955 9.06024C3.35296 9.28728 2.86055 9.70967 2.65988 9.92625C2.58547 10.0064 2.50135 10.0627 2.42209 10.1377L1.4947 11.0057C1.28873 11.2259 0.708409 11.7345 0.452274 11.9828C0.381496 12.0514 0.376343 12.046 0.345425 12.1181C0.452577 12.0737 0.573521 11.9668 0.659152 11.9036L1.48651 11.2628C1.67384 11.1246 1.85723 10.984 2.04198 10.8386C3.31689 9.83501 4.63834 8.85427 5.91643 7.85807C6.24289 7.60361 6.71015 7.30897 6.72394 6.70213C6.73076 6.39977 6.60451 6.15122 6.46447 5.97692C6.27745 5.74413 5.42629 5.10652 5.11559 4.87736L4.87643 4.69019C4.83718 4.64896 4.87143 4.68731 4.85385 4.66018C4.78004 4.63502 4.36356 4.30326 4.27202 4.23111C3.35387 3.50772 2.37844 2.78873 1.45802 2.0673L0.476675 1.3139C0.294046 1.19054 0.344061 1.25358 0.336483 1.2745C0.375282 1.27829 0.380435 1.29329 0.416354 1.33224C0.443029 1.36104 0.465762 1.3915 0.493801 1.41924L0.810256 1.71478C0.856633 1.75873 0.937111 1.80162 0.956056 1.86361L0.956208 1.86346Z" fill="white"/>
<path fill-rule="evenodd" clip-rule="evenodd" d="M0.0469971 4.02853L0.0471486 9.53968L0.566238 8.93481C0.731286 8.73581 1.45453 7.88874 1.58123 7.68505C1.73461 7.43831 1.82024 7.18703 1.86419 6.84405C1.90678 5.97865 1.52758 5.57883 1.14823 5.13143C0.964384 4.91455 0.781604 4.69464 0.604583 4.47048C0.511677 4.35287 0.41862 4.25527 0.326169 4.13751C0.280853 4.07991 0.233718 4.02247 0.188553 3.96837C0.13278 3.90153 0.111107 3.86864 0.0557875 3.81287L0.0469971 4.02838V4.02853Z" fill="white"/>
<path fill-rule="evenodd" clip-rule="evenodd" d="M1.15655 3.52619C1.23081 3.55908 1.3801 3.76626 1.45209 3.8475L2.01574 4.5089C2.51406 5.06679 2.91281 5.77851 2.91357 6.66059C2.91494 7.90928 2.24474 8.57523 1.71125 9.20178L1.28295 9.71253C1.12745 9.88243 0.999835 10.0482 0.850853 10.219L0.418151 10.7242C0.283567 10.9006 0.124278 11.0478 0 11.2333C0.112305 11.178 0.561678 10.7459 0.690806 10.6296L1.76248 9.62023C1.84372 9.54521 1.89782 9.48019 1.97891 9.40866C2.36493 9.06765 2.91221 8.50233 3.28065 8.18088C3.61938 7.88518 4.09679 7.49719 4.2482 7.046C4.41431 6.55086 4.20485 6.06935 3.94599 5.802C3.81232 5.66393 3.66485 5.52041 3.5186 5.39249L3.08483 4.9898C2.92827 4.83187 2.81718 4.73548 2.66092 4.57756C2.58999 4.50587 2.50936 4.44191 2.43404 4.37538L2.24156 4.16926C2.12562 4.10879 2.05499 4.01815 1.95678 3.91464L1.40632 3.40404C1.20399 3.22489 0.170807 2.18944 0.026826 2.15186L0.59108 2.8322C0.635336 2.88965 0.695504 2.95739 0.74173 3.00786C0.813266 3.08607 1.13487 3.44935 1.15655 3.52634V3.52619Z" fill="white"/>
</svg>
