<svg width="452" height="452" viewBox="0 0 452 452" fill="none" xmlns="http://www.w3.org/2000/svg">
<g clip-path="url(#clip0_606_588)">
<path fill-rule="evenodd" clip-rule="evenodd" d="M436.633 215.488C437.694 217.374 438.519 219.378 439.227 221.265L449.482 223.386L451.133 238.239L441.348 241.776C440.759 246.138 439.462 250.381 437.458 254.271L442.881 262.405L433.568 274.075L424.609 269.832C422.959 271.011 421.309 272.071 419.54 273.132C417.536 274.193 415.414 275.136 413.41 275.844L411.642 285.156L396.907 287.042L393.371 277.848C388.537 277.14 383.94 275.726 379.579 273.486L373.449 278.555L360.953 270.421L364.49 260.283C363.547 258.987 362.721 257.572 361.896 256.04C360.717 253.8 359.657 251.56 358.949 249.202L349.637 246.963L348.458 232.11L357.299 229.281C358.006 225.155 359.185 221.029 361.071 217.257L355.413 207.944L365.197 196.745L374.274 201.46C375.806 200.4 377.339 199.339 378.989 198.513C380.993 197.452 383.115 196.509 385.237 195.802L387.477 186.018L402.33 184.603L405.512 193.798C409.638 194.388 413.528 195.566 417.301 197.335L425.552 191.912L437.223 201.225L433.097 209.948C434.393 211.716 435.69 213.602 436.751 215.606L436.633 215.488ZM421.309 223.858C427.91 236 423.43 251.324 411.171 257.926C399.029 264.527 383.704 260.048 377.103 247.788C370.502 235.646 374.981 220.321 387.241 213.72C399.383 207.119 414.707 211.598 421.309 223.858Z" fill="#F94900"/>
<path fill-rule="evenodd" clip-rule="evenodd" d="M52.3393 123.541H214.309L220.556 128.963C219.967 132.736 219.613 136.626 219.613 140.634C219.613 143.934 219.849 147.117 220.203 150.3L205.467 160.202L214.426 184.25L233.287 183.425C237.531 189.319 242.6 194.623 248.376 198.985L245.429 214.781L268.888 225.273L279.969 212.895C284.094 213.602 288.456 214.074 292.818 214.074C295.647 214.074 298.594 213.956 301.305 213.602L313.801 227.394L335.373 215.606V340.089C335.373 368.852 311.797 392.429 283.033 392.429H52.1036C23.3405 392.429 -0.23584 368.852 -0.23584 340.089V175.88C-0.23584 147.117 23.3405 123.541 52.1036 123.541H52.3393ZM100.671 193.562V319.46C100.671 334.313 108.922 336.081 120.946 329.126L226.45 268.181C226.45 268.181 244.486 258.161 228.219 247.081L125.19 188.611C116.821 183.896 100.671 176.234 100.671 193.445V193.562Z" fill="#F94900"/>
<path fill-rule="evenodd" clip-rule="evenodd" d="M293.053 71.9086C296.59 71.9086 300.008 72.1444 303.309 72.6159L314.154 59.6489L336.316 68.7258L333.84 85.3471C339.499 89.5908 344.568 94.6598 348.694 100.436L364.372 99.0214L373.684 121.065L360.835 130.614C361.307 133.796 361.543 137.097 361.543 140.398C361.543 144.052 361.307 147.706 360.717 151.243L372.623 160.909L363.9 183.307L348.222 181.185C343.625 187.433 337.848 192.973 331.365 197.335L333.723 209.83L312.622 221.382L300.952 208.533C298.358 208.887 295.647 209.005 292.936 209.005C288.81 209.005 284.802 208.651 280.912 207.944L270.538 219.496L248.612 209.712L251.323 194.977C245.901 190.851 241.186 186.018 237.178 180.478L219.613 181.303L211.244 158.787L224.918 149.475C224.564 146.528 224.329 143.463 224.329 140.516C224.329 136.861 224.682 133.207 225.154 129.671L212.894 119.061L222.325 97.0174L237.885 99.6108C241.893 94.3061 246.608 89.5908 251.913 85.5829L250.498 69.6689L272.66 60.3562L281.973 72.9695C285.509 72.3801 289.163 72.1444 292.818 72.1444L293.053 71.9086ZM293.053 99.9644C315.333 99.9644 333.487 118.118 333.487 140.398C333.487 162.677 315.333 180.831 293.053 180.831C270.774 180.831 252.62 162.677 252.62 140.398C252.62 118.118 270.774 99.9644 293.053 99.9644Z" fill="#F94900"/>
</g>
<defs>
<clipPath id="clip0_606_588">
<rect width="451.604" height="451.488" fill="white"/>
</clipPath>
</defs>
</svg>
